<mxfile host="app.diagrams.net" agent="Mozilla/5.0 (Macintosh; Intel Mac OS X 10_15_7) AppleWebKit/537.36 (KHTML, like Gecko) Chrome/127.0.0.0 Safari/537.36" version="24.7.6">
  <diagram name="第 1 页" id="4rpOFLAjBN7q6WfnMAo9">
    <mxGraphModel dx="1060" dy="673" grid="1" gridSize="10" guides="1" tooltips="1" connect="1" arrows="1" fold="1" page="1" pageScale="1" pageWidth="827" pageHeight="1169" math="0" shadow="0">
      <root>
        <mxCell id="0" />
        <mxCell id="1" parent="0" />
        <mxCell id="5scTNiIZI9GJ8U_l5Csz-177" value="" style="rounded=0;whiteSpace=wrap;html=1;dashed=1;dashPattern=12 12;labelBackgroundColor=none;fillColor=#cce5ff;strokeColor=#36393d;" vertex="1" parent="1">
          <mxGeometry x="497" y="210" width="260" height="170" as="geometry" />
        </mxCell>
        <mxCell id="5scTNiIZI9GJ8U_l5Csz-176" value="" style="shape=image;verticalLabelPosition=bottom;labelBackgroundColor=default;verticalAlign=top;imageAspect=0;image=https://image.shipengx.com/%E8%88%AA%E8%BF%B9%E9%87%8F%E6%B5%8B%E4%BB%A3%E4%BB%B7%E7%9F%A9%E9%98%B5%E7%A4%BA%E4%BE%8B.png;movable=1;resizable=1;rotatable=1;deletable=1;editable=1;locked=0;connectable=1;" vertex="1" parent="1">
          <mxGeometry x="504" y="217.87" width="246" height="154.13" as="geometry" />
        </mxCell>
        <mxCell id="5scTNiIZI9GJ8U_l5Csz-23" value="" style="rounded=0;whiteSpace=wrap;html=1;dashed=1;dashPattern=12 12;labelBackgroundColor=none;fillColor=#eeeeee;strokeColor=#36393d;" vertex="1" parent="1">
          <mxGeometry x="251" y="90" width="230" height="480" as="geometry" />
        </mxCell>
        <mxCell id="5scTNiIZI9GJ8U_l5Csz-21" value="" style="rounded=0;whiteSpace=wrap;html=1;dashed=1;dashPattern=12 12;labelBackgroundColor=none;fillColor=#f9f7ed;strokeColor=#36393d;" vertex="1" parent="1">
          <mxGeometry x="40" y="90" width="190" height="480" as="geometry" />
        </mxCell>
        <mxCell id="5scTNiIZI9GJ8U_l5Csz-1" value="EuclideanDistance" style="rounded=0;whiteSpace=wrap;html=1;fontStyle=1;labelBackgroundColor=none;" vertex="1" parent="1">
          <mxGeometry x="50" y="100" width="170" height="40" as="geometry" />
        </mxCell>
        <mxCell id="5scTNiIZI9GJ8U_l5Csz-11" value="WeightedLocationDistance" style="rounded=0;whiteSpace=wrap;html=1;fontStyle=1;labelBackgroundColor=none;" vertex="1" parent="1">
          <mxGeometry x="50" y="146" width="170" height="40" as="geometry" />
        </mxCell>
        <mxCell id="5scTNiIZI9GJ8U_l5Csz-12" value="BboxSizeDistance" style="rounded=0;whiteSpace=wrap;html=1;fontStyle=1;labelBackgroundColor=none;" vertex="1" parent="1">
          <mxGeometry x="50" y="192" width="170" height="40" as="geometry" />
        </mxCell>
        <mxCell id="5scTNiIZI9GJ8U_l5Csz-13" value="DirectionDistance" style="rounded=0;whiteSpace=wrap;html=1;fontStyle=1;labelBackgroundColor=none;" vertex="1" parent="1">
          <mxGeometry x="50" y="238" width="170" height="40" as="geometry" />
        </mxCell>
        <mxCell id="5scTNiIZI9GJ8U_l5Csz-14" value="PointNumDistance" style="rounded=0;whiteSpace=wrap;html=1;fontStyle=1;labelBackgroundColor=none;" vertex="1" parent="1">
          <mxGeometry x="50" y="285" width="170" height="40" as="geometry" />
        </mxCell>
        <mxCell id="5scTNiIZI9GJ8U_l5Csz-15" value="HistogramDistance" style="rounded=0;whiteSpace=wrap;html=1;fontStyle=1;labelBackgroundColor=none;" vertex="1" parent="1">
          <mxGeometry x="50" y="332" width="170" height="40" as="geometry" />
        </mxCell>
        <mxCell id="5scTNiIZI9GJ8U_l5Csz-16" value="CentroidShiftDistance" style="rounded=0;whiteSpace=wrap;html=1;fontStyle=1;labelBackgroundColor=none;" vertex="1" parent="1">
          <mxGeometry x="50" y="378" width="170" height="40" as="geometry" />
        </mxCell>
        <mxCell id="5scTNiIZI9GJ8U_l5Csz-17" value="BboxIoUDistance" style="rounded=0;whiteSpace=wrap;html=1;fontStyle=1;labelBackgroundColor=none;" vertex="1" parent="1">
          <mxGeometry x="50" y="424" width="170" height="40" as="geometry" />
        </mxCell>
        <mxCell id="5scTNiIZI9GJ8U_l5Csz-18" value="LifetimeDistance" style="rounded=0;whiteSpace=wrap;html=1;fontStyle=1;labelBackgroundColor=none;" vertex="1" parent="1">
          <mxGeometry x="50" y="470" width="170" height="40" as="geometry" />
        </mxCell>
        <mxCell id="5scTNiIZI9GJ8U_l5Csz-19" value="ExistenceDistance" style="rounded=0;whiteSpace=wrap;html=1;fontStyle=1;labelBackgroundColor=none;" vertex="1" parent="1">
          <mxGeometry x="50" y="516" width="170" height="40" as="geometry" />
        </mxCell>
        <mxCell id="5scTNiIZI9GJ8U_l5Csz-22" value="" style="shape=image;verticalLabelPosition=bottom;labelBackgroundColor=none;verticalAlign=top;aspect=fixed;imageAspect=0;image=data:image/png,iVBORw0KGgoAAAANSUhEUgAAAboAAAOgCAYAAABLJbNRAAAMbWlDQ1BJQ0MgUHJvZmlsZQAASImVVwdYU8kWnluSkJDQAghICb0JIjWAlBBaAOlFEJWQBBJKjAlBxY4uKrh2EcWKroootpVmx64sir0vFhSUdVEXGypvQgK67ivfO9839/45c+Y/5c7k3gOA5geuRJKHagGQLy6QxocFMcampjFInQAFw4EuQIARlyeTsGJjowCUwfvf5d1NaAflmpOC65/z/1V0+AIZDwAkHeJMvoyXD/EJAPD1PIm0AACiQm85pUCiwHMg1pXCACFepcDZSrxTgTOV+MiATWI8G+IrAKhRuVxpNgAa96GeUcjLhjwanyF2EfNFYgA0R0DszxNy+RArYh+Rnz9JgSsgtoP2EohhPICZ+R1n9t/4M4f4udzsIazMa0DUgkUySR532v9Zmv8t+XnyQR82cFCF0vB4Rf6whrdzJ0UqMBXibnFmdIyi1hB/EPGVdQcApQjl4UlKe9SYJ2PD+gF9iF343OBIiI0hDhXnRUep9JlZolAOxHC3oFNFBZxEiA0gXiiQhSSobDZLJ8WrfKF1WVI2S6U/z5UO+FX4eijPTWKp+N8IBRwVP6ZRJExMgZgCsVWhKDkaYg2InWW5CZEqm9FFQnb0oI1UHq+I3wrieIE4LEjJjxVmSUPjVfal+bLBfLHNQhEnWoUPFAgTw5X1wU7zuAPxw1ywKwIxK2mQRyAbGzWYC18QHKLMHesUiJMSVDwfJAVB8cq1OEWSF6uyxy0EeWEKvQXE7rLCBNVaPLkAbk4lP54lKYhNVMaJF+VwI2KV8eDLQBRgg2DAAHI4MsEkkANErd313fCXciYUcIEUZAMBcFJpBlekDMyI4TUBFIE/IBIA2dC6oIFZASiE+i9DWuXVCWQNzBYOrMgFzyDOB5EgD/6WD6wSD3lLBk+hRvQP71w4eDDePDgU8/9eP6j9pmFBTZRKIx/0yNActCSGEIOJ4cRQoj1uhPvjvngUvAbC4Yozce/BPL7ZE54R2giPCTcI7YQ7E0XF0h+iHAPaIX+oqhaZ39cCt4GcHngQ7gfZITOujxsBJ9wd+mHhAdCzB9SyVXErqsL4gftvGXz3NFR2ZBcySh5GDiTb/bhSw0HDY4hFUevv66OMNXOo3uyhmR/9s7+rPh/eI3+0xBZiB7Fz2EnsAnYEqwcM7DjWgLVgRxV4aHc9Hdhdg97iB+LJhTyif/jjqnwqKilzqXHpcvmsnCsQTC1QHDz2JMk0qShbWMBgwbeDgMER85xHMFxdXN0BULxrlH9fb+MG3iGIfss33bzfAfA73t/ff/ibLuI4APu94PFv/KazYwKgrQ7A+UaeXFqo1OGKCwH+S2jCk2YITIElsIP5uAJP4AsCQQiIADEgEaSCCbDKQrjPpWAKmAHmghJQBpaB1WAd2AS2gp1gDzgA6sERcBKcBZfAFXAD3IO7pwO8BD3gHehDEISE0BA6YoiYIdaII+KKMBF/JASJQuKRVCQDyUbEiByZgcxDypAVyDpkC1KN7EcakZPIBaQNuYM8QrqQN8gnFEOpqC5qgtqgI1EmykIj0UR0PJqNTkaL0PnoErQCrUJ3o3XoSfQSegNtR1+ivRjA1DF9zBxzwpgYG4vB0rAsTIrNwkqxcqwKq8Wa4HO+hrVj3dhHnIjTcQbuBHdwOJ6E8/DJ+Cx8Mb4O34nX4afxa/gjvAf/SqARjAmOBB8ChzCWkE2YQighlBO2Ew4RzsCz1EF4RyQS9Ym2RC94FlOJOcTpxMXEDcS9xBPENuITYi+JRDIkOZL8SDEkLqmAVEJaS9pNOk66SuogfVBTVzNTc1ULVUtTE6sVq5Wr7VI7pnZV7blaH1mLbE32IceQ+eRp5KXkbeQm8mVyB7mPok2xpfhREik5lLmUCkot5QzlPuWturq6hbq3epy6SH2OeoX6PvXz6o/UP1J1qA5UNjWdKqcuoe6gnqDeob6l0Wg2tEBaGq2AtoRWTTtFe0j7oEHXcNbgaPA1ZmtUatRpXNV4pUnWtNZkaU7QLNIs1zyoeVmzW4usZaPF1uJqzdKq1GrUuqXVq03XHqUdo52vvVh7l/YF7U4dko6NTogOX2e+zladUzpP6Bjdks6m8+jz6NvoZ+gdukRdW12Obo5ume4e3VbdHj0dPXe9ZL2pepV6R/Xa9TF9G32Ofp7+Uv0D+jf1Pw0zGcYaJhi2aFjtsKvD3hsMNwg0EBiUGuw1uGHwyZBhGGKYa7jcsN7wgRFu5GAUZzTFaKPRGaPu4brDfYfzhpcOPzD8rjFq7GAcbzzdeKtxi3GvialJmInEZK3JKZNuU33TQNMc01Wmx0y7zOhm/mYis1Vmx81eMPQYLEYeo4JxmtFjbmwebi4332Leat5nYWuRZFFssdfigSXFkmmZZbnKstmyx8rMaozVDKsaq7vWZGumtdB6jfU56/c2tjYpNgts6m06bQ1sObZFtjW29+1odgF2k+2q7K7bE+2Z9rn2G+yvOKAOHg5Ch0qHy46oo6ejyHGDY9sIwgjvEeIRVSNuOVGdWE6FTjVOj5z1naOci53rnV+NtBqZNnL5yHMjv7p4uOS5bHO5N0pnVMSo4lFNo964OrjyXCtdr7vR3ELdZrs1uL12d3QXuG90v+1B9xjjscCj2eOLp5en1LPWs8vLyivDa73XLaYuM5a5mHnem+Ad5D3b+4j3Rx9PnwKfAz5/+jr55vru8u0cbTtaMHrb6Cd+Fn5cvy1+7f4M/wz/zf7tAeYB3ICqgMeBloH8wO2Bz1n2rBzWbtarIJcgadChoPdsH/ZM9olgLDgsuDS4NUQnJClkXcjDUIvQ7NCa0J4wj7DpYSfCCeGR4cvDb3FMODxONacnwitiZsTpSGpkQuS6yMdRDlHSqKYx6JiIMSvH3I+2jhZH18eAGE7MypgHsbaxk2MPxxHjYuMq457Fj4qfEX8ugZ4wMWFXwrvEoMSlifeS7JLkSc3JmsnpydXJ71OCU1aktI8dOXbm2EupRqmi1IY0Ulpy2va03nEh41aP60j3SC9JvznedvzU8RcmGE3Im3B0ouZE7sSDGYSMlIxdGZ+5Mdwqbm8mJ3N9Zg+PzVvDe8kP5K/idwn8BCsEz7P8slZkdWb7Za/M7hIGCMuF3SK2aJ3odU54zqac97kxuTty+/NS8vbmq+Vn5DeKdcS54tOTTCdNndQmcZSUSNon+0xePblHGindLkNk42UNBbrwo75Fbif/Sf6o0L+wsvDDlOQpB6dqTxVPbZnmMG3RtOdFoUW/TMen86Y3zzCfMXfGo5msmVtmIbMyZzXPtpw9f3bHnLA5O+dS5ubO/a3YpXhF8V/zUuY1zTeZP2f+k5/Cfqop0SiRltxa4Ltg00J8oWhh6yK3RWsXfS3ll14scykrL/u8mLf44s+jfq74uX9J1pLWpZ5LNy4jLhMvu7k8YPnOFdorilY8WTlmZd0qxqrSVX+tnrj6Qrl7+aY1lDXyNe0VURUNa63WLlv7eZ1w3Y3KoMq9643XL1r/fgN/w9WNgRtrN5lsKtv0abNo8+0tYVvqqmyqyrcStxZufbYtedu5X5i/VG832l62/csO8Y72nfE7T1d7VVfvMt61tAatkdd07U7ffWVP8J6GWqfaLXv195btA/vk+17sz9h/80DkgeaDzIO1v1r/uv4Q/VBpHVI3ra6nXljf3pDa0NYY0djc5Nt06LDz4R1HzI9UHtU7uvQY5dj8Y/3Hi473npCc6D6ZffJJ88Tme6fGnrp+Ou5065nIM+fPhp49dY517vh5v/NHLvhcaLzIvFh/yfNSXYtHy6HfPH471OrZWnfZ63LDFe8rTW2j245dDbh68lrwtbPXOdcv3Yi+0XYz6ebtW+m32m/zb3feybvz+m7h3b57c+4T7pc+0HpQ/tD4YdXv9r/vbfdsP/oo+FHL44TH957wnrx8Knv6uWP+M9qz8udmz6s7XTuPdIV2XXkx7kXHS8nLvu6SP7T/WP/K7tWvfwb+2dIztqfjtfR1/5vFbw3f7vjL/a/m3tjeh+/y3/W9L/1g+GHnR+bHc59SPj3vm/KZ9Lnii/2Xpq+RX+/35/f3S7hS7sCnAAYHmpUFwJsdANBSAaDDvo0yTtkLDgii7F8HEPhPWNkvDognALXw+z2uG37d3AJg3zbYfkF+TdirxtIASPQGqJvb0FCJLMvNVclFhX0K4WF//1vYs5FWAvBlWX9/X1V//5etMFjYO54QK3tQhRBhz7CZ8yUzPxP8G1H2p9/l+OMdKCJwBz/e/wW9HpC5MZQvNwAAAIplWElmTU0AKgAAAAgABAEaAAUAAAABAAAAPgEbAAUAAAABAAAARgEoAAMAAAABAAIAAIdpAAQAAAABAAAATgAAAAAAAACQAAAAAQAAAJAAAAABAAOShgAHAAAAEgAAAHigAgAEAAAAAQAAAbqgAwAEAAAAAQAAA6AAAAAAQVNDSUkAAABTY3JlZW5zaG90VTb3ZQAAAAlwSFlzAAAWJQAAFiUBSVIk8AAAAdZpVFh0WE1MOmNvbS5hZG9iZS54bXAAAAAAADx4OnhtcG1ldGEgeG1sbnM6eD0iYWRvYmU6bnM6bWV0YS8iIHg6eG1wdGs9IlhNUCBDb3JlIDYuMC4wIj4KICAgPHJkZjpSREYgeG1sbnM6cmRmPSJodHRwOi8vd3d3LnczLm9yZy8xOTk5LzAyLzIyLXJkZi1zeW50YXgtbnMjIj4KICAgICAgPHJkZjpEZXNjcmlwdGlvbiByZGY6YWJvdXQ9IiIKICAgICAgICAgICAgeG1sbnM6ZXhpZj0iaHR0cDovL25zLmFkb2JlLmNvbS9leGlmLzEuMC8iPgogICAgICAgICA8ZXhpZjpQaXhlbFlEaW1lbnNpb24+OTI4PC9leGlmOlBpeGVsWURpbWVuc2lvbj4KICAgICAgICAgPGV4aWY6UGl4ZWxYRGltZW5zaW9uPjQ0MjwvZXhpZjpQaXhlbFhEaW1lbnNpb24+CiAgICAgICAgIDxleGlmOlVzZXJDb21tZW50PlNjcmVlbnNob3Q8L2V4aWY6VXNlckNvbW1lbnQ+CiAgICAgIDwvcmRmOkRlc2NyaXB0aW9uPgogICA8L3JkZjpSREY+CjwveDp4bXBtZXRhPgp/uvUzAAAAHGlET1QAAAACAAAAAAAAAdAAAAAoAAAB0AAAAdAAAOYfGITp8QAAQABJREFUeAHsnQe8FEXyx9t0mM94Js6I+TwTKup5RsR86h/1VMQEIhhQQcCAcGDEcCKiKGACFRQVc8B8KgbMCKIC4qknRvQOMCD7r29pjb3zZndnw3tv99H1+ezOTKfp/nVPV3d1V9dCGSEXKCAQEAgIBAQCAk0UgYUCo2uiNRuKFRAICAQEAgKKQGB0oSEEBAICAYGAQJNGIDC6Jl29oXABgYBAQCAgEBhdaAMBgYBAQCAg0KQRCIyuSVdvKFxAICAQEAgIBEYX2kBAICAQEAgINGkEAqNr0tUbChcQCAgEBAICgdE1kTbw/IR5bsitP7ppH/3sPvks424ftKTbfqtFm0jpQjECAgGBgEDpCNQco3vuuefcnXfe6Q444AC3++67l15yifnzzz+7k08+2S211FLusssuKyutxoz8n8/nu83a/FezsN0Wi7r1117YdWnfzG2wzsKNma3w7oBAQCAgUBUI1Byju/vuu90VV1zhTjrpJHf44YeXBeJPP/3kdt11V7f88su7+++/P3Va7733nrvlllvctttuqww3dcR6Cnj/Ez+5Y7vPcW3+uqi7deBS9fSWkGxAICAQEKhNBGqO0b3++utu3Lhxbuedd3bbbbddWaiXyuheeOEF16NHD3fQQQe5bt26lZWHSkS+4Y4fXY+L5rruHZu5Xl0Wr0SSIY2AQEAgINBkEKg5RldJ5JsKoxs++kfX8+K57ixhct2E2QUKCAQEAgIBgd8QKJvRnXXWWe73v/+969Wr12+pxu7eeecdFfUxAzv44IPV9/vvv3cjR450r776qvv444/dyiuvrKLAY445xi2+ePas5Ouvv3ZXXXVVVqp77713zhndF1984YYMGeJefvllt8QSS7jtt99e1/MQe26zzTZu33331bR8Rnfddde5m2++2TFjhP7yl7+4Tp06uWbNfmEcs2bNchdddJH6ffbZZ27q1KnuD3/4g1t//fXVjT/WDPfcc8/omZsJEya4UaNGuSlTprgffvjBrbjiim6zzTZzhx56qGvRokVW2FIfAqMrFbkQLyAQEFgQECib0dFhf/rpp+6hhx5yyy67bCJmMJChQ4equI9NJDCiU0891f373/92Sy65pFtrrbXc5MmTNe7aa6/thg0blsXsPv/8c900QgAYzpw5c3Ku0ZH2cccd57755htde1t11VU1bd5DvAMPPNB1795d32WMjofVV19d01566aUd74Patm3rTjvtNL3/9ttvNc9sYCEdwpAmzM4IJm6MHLcPP/zQtWvXTr1ZB4SxffLJJ4oXm2D+/ve/W9Syrr0umeuGjfrR9T51cdf12DCjKwvMEDkgEBBoeghgvaAckllOZscdd8y88sorOZM588wzNcwHH3ygYfr166fP5557bmbu3LnqJgwgY+GGDx+eM6277rpL4952222JYWTmp/6yhpb58ccfNYwwUXUjn5deemkUD3/c+PFumXFl5s+fn3n00Ucjd0sjiiQ3zz//vPrLTk3fuc597969NZww+iy/d999N0OeKkE//pTJbNbmu8yKW8zK3Dvul/JWIt2QRkAgIBAQaCoIuHIL8uCDD2Z15l9++WXmggsuyIgKgCYN42jdurWGmTdvXuY///mP3sNcuPfp/fffVz/Z5OE7Z93nY3S8yxjX9OnTs+JdeOGF6peL0cG8jMinpTNz5kxzjq5pGZ3MBjWdp556KopbqZsLB8/NnHnhnMy2f/uFyXXtO0cYe6VSD+kEBAICAYGmg0DZosuPPvrIHXHEEU4Yg7vkkkuczIZc//79Vaz3yCOP6Pob/jvssIMbMGCArpudccYZOjVeb7316kyRWfuC2FnJ+lqc8qkXIF5k/Q2R4mOPPZYVFfUB8pdLdEleEVsanXLKKbped9NNN9VZS0u76/KBBx5wF198seYHkeaf//xnt+mmm+qapr2n1OvaO37n/jfnF5u5rXdaVDahLO5abrZIqcmFeAGBgEBAoMkiUDajE57v2rRpowDB5M4//3xldjjccMMNDkbYt29fd+KJJ+p61X333acMjzWrjTfeOCewIvZzyyyzTB3/fIxOZnHuqKOO0vW2O+64IyuuzKocaSYxuiQ9OtbxXnzxRS3DBhtskJVWWkbHWh7rjfG8HHbYYZrP5ZZbLivdYh8++Wy+u/Xen9yAId9r1BfuXiYoiRcLYggfEAgINH0EKjE5lZ2XKqKbMWOGiimlc9friBEjMgMHDlS/N954Q1/17LPP6jNraKVQPtHlV199pWkjKo2TzK7UL0l0ud9++8WDZ0Q/TsPLbsk6fmlFlxaRfCG+7NOnj6aJWHTQoEHmXfZ132P/p2t0N935Q9lphQQCAgGBgEBTQ6DsNToAGT16tHbgxtQmTZqUkVlcpkuXLpkOHTqon206YUMKHf0hhxySkR2MReOZj9H5a3SyEzQrbTlNRd9bCUY3fvx4TYsyFkuivqBxYa7ktxI06KbvldFddv33lUgupBEQCAgEBJoUAhVhdKInp503DIzZFAzM37l4wgknRKCx0aN9+/Ya/p577onc7YbNLKSXi/IxOuLIOpymzYYYYySipxdtiKkEo2OWZ2WlPLmInZVxf2a2FjdXvGLdh436ITC6YkEL4QMCAYEFBoGy1+gQ7vr6aPvss487++yzVY9t//33V9kvumSs0Rm9/fbbrnPnzvoonb5u0iANzpAU0aaeH8kRW0Yc4iziP31E3w4l8y233FI3duDI5hNhnuqP8jl6dKyPsbaGjp6IGvWZAJVYoxOVA9WBQ5eO9T0U0tnIwoabli1baj744yzO//3vf6pI3rx5c9UbfPLJJxUbyodOYSXolrt/dGf0n+tOP76ZO+fkbGX7SqQf0ggIBAQCArWMQEUYHQDYLkU2o+yyyy6KCSeLcCoKuy1hAj6JCFN3QcK4fII5wbQsDfxMKd0P59/HN5OgqH355ZfrrkmYYKtWrfT95I20UFaHjEHH4+PXs2dPZZAouyftDiX/119/vSqjo5wOwWD5GWERYezYsfYYXdmMImJdt8gildklOe5f89zhp852O227qBtz7VJukWC0IMI63AQEAgIBgYoxulKhnD17tqogLLTQQm6VVVapyNZ7y4uIDd3CCy+sP9ut2bVrVyfrgxak3q/kgSPDYIbM+jipJUltopyMfPNtxm25z39V3WD1VRZ26621sDu/++Ju0/Urw0jLyVuIGxAICAQEGhuBRmd0lQZAhM6q0oDI0ghmyowT0eg111yjolLzayrXSe//7EaICPPDT+a7mV9m3GVnL+G2+lNgdE2lfkM5AgIBgdIRaHKMjvWz3XbbTdfnttpqK4cS+cMPP6wImdJ66XCFmAGBgEBAICBQawg0OUbHocusr6HsbcQ6Hbbjjj322KzDos0/XAMCAYGAQECg6SLQ5BidVRUiTHY8QkknrFi4cA0IBAQCAgGBpo1Ak2V0TbvaQukCAgGBgEBAIC0CgdGlRSqECwgEBAICAYGaRCAwupqstpDpgEBAICAQEEiLQGB0aZEK4QICAYGAQECgJhEom9FNnDjRrbDCCmoapyYRCJkOCAQEAgIBgSaNQGB0Tbp6Q+ECAgGBgEBAIDC60AYCAgGBgEBAoEkjEBhdk67eULiAQEAgIBAQCIwutIGAQEAgIBAQaNIIBEbXpKs3FK4WEXjuueccNhixV7j77rtXbRF+ksPSx3Xrqvnb8axz3e/XWtv5bn85t49btvkfo/y/e/cYN/G2Ea5ll1Pc2rvtEbnX2s2HTz7u3rz5BrfpYUe4FvvslzP738740H317mT3/axv3IobbuxW3Ggjt+jiS+QMP1dsbn7+9psYw3Z/2OzPbsmVVq4TdvKY0W764+PcH/78Z8HxF3Nj5rbqllu5rTp1qRMnODgXGF1oBQGBKkPATEqddNJJary3yrIXZYeO+cYdttbnQ+6+36286WZuzpdfupt2/MX48CF3PyBuf4rCTxg80L181T/dbhde6jb6v4YzlRVloEI3b996i/tXv/PcDj3Odlscf0KdVOfLebvjB1zo3rxpeJbfEiuu6A648VZhehtlufPwytVXulcGXZnlvsVxHfUdTkyYGT1/YT9lsmvvuofbZ8gwdX7u/H+4t0bc6NbZvbXb+5qhFjRcPQQCo/PACLcBgWpA4PXXX3fjxo1zO++8s9tuu+2qIUuJeVhQGd0nL7/o3n/gPrdu6zZuzZ12roPNxNtHumf7nusWW2opt/2ZZ+msdvoTj7l3br9V3Y568jm3+HLLR/GMcRKe2e7Ciy4mA4IrdHbc6oweWbO0wOgi2Iq7kWlyWfT2229nPvnkk7LSCJEDAgGB2kNAZm+ZwRuspb/PJ76lBZj9xRee29tZhZJZi/pNHnNHlntTe7hh+620nBNvG5lVtLHtD6/rPn9+ZsTuO6n71MceicITF2xJ6+d58yL35y74h7o/2On4yO1f/fuq20OdO0Ru4SYbgTCjk3HBhAkT3KhRo9yUKVPcDz/84FYUEcNmm23mDj30UNeiRYuskYPA5x588EH39NNPa3ishRO2Y8eOaj3cAmMuqE+fPmpNHPNAN998s2OkDv3lL39xnTp1cs2aNbPgeiUOafP79NNP1Q1lfEb1Rx55ZB3r659//rkbNmyYk8GGWmpYe+213a677qomibDYHifyMGnSJIdIbOrUqe6JJ55wb775plo+33fffV27du3iUQo+F1vOr7/+Wu0DYkbpww8/1PSbN2+uxnDbt2/vlpJRrdHVV1/tKONqq63mHnroIUf5zjzzTMXyX//6l9twww0V45VWWsmi6PpGmvqJIqS8ATfwoy4WXXRRraPp06drvv/+97+7li1/EddZcuDLrOzVV191M2bMUIzXXXddh01ETEbF6wdcrrrqKouu17333jvvjK53794OC/b9+/fXNb0XXnhB2yRGh4855hi34447ZqUHntau8N9ggw2y/It9KGdGN+/HH9zUhx5wX0993y231jquVbcebrWW29bJwrzv57rXrrvWffLiC27WjOlu6VVXc8132Mltc/Kpdda7EBm+e9cdbrL8vvv3R5oW61zMurbs0MktvvwKUfpfTXnXvXf/vZruN9M+cM2WWdatsMGGbq1ddnN/OrydW2jhhaOw3CCSff7Cf2S5bXhQ2zozOtYoh261qYY7/KHH3fLr/dZ/sK7HjGy1rVq6g24fo2FmvvG6u+uwg3Sm12HCW/LeRdzP0geNPmAvN+vD6Rpm/+G3uD/+5a96H2Z0CkPRfws8o6OztQ5++eWXV8YmM1TtEE4++WRHJ2ZEp37uuec6Ollo0003de+8847eY/Pu2muvdeutt54+//TTT8p0eFh99dXdrFmztLOj44batm3rTjvtNL23Pzroiy66SB/p1GG4kydPdnPmzHFDhw51G2+8sQV1dLIwS/zIN++wvLRu3VoZQBT415uzzjpL837EEUe42267TV3JN2lwfeyxx+JRCj4XW06wIx8QWP3ud7/TMvL8xz/+0Q0ePFhP2uH56KOPVobMveWTe8ieYRrdunVTt2LqRyMU8QcT6dGjR/Re8CbvtB+Iettpp530nr9Bgwa50aNHa/h11lnHffPNNxGT+etf/+ouuOCCLGZHu6C9QbQV6qTQGh0DJog2ykANMlwwPtyvXz91sz8fzyuuuMJtu21dxmJh01xLZXTL/nFNZUTLrb1O1JnzvvbPjFdGZu+ePfMzd2/7wzUMYr3l122hmzXwX77F+u6Qu+7LYnYwuKfO7qHR8YfJsbkD5tN2zL2ywWNzS9o9f1F/XUMj3RXW38BRFmOOiCT3GjREdjD8Nlj8338+dWOP+qUvmPv1V5pm0hrddx//243c/Zd20OVdYVReGh+/8Jy779h2jrW6Y194VfMyZexd7ome3dx6e+3r2gwcrG62lmmZ3an3P9xm7Y7Wx8DoDJUir9kTvOKfal10KaPijIx8MzJazyr8u+++mxEmk+V2//33a1jpWDKfffaZ+n333XeZIUOGqHuXLl2i8GLpXN1IW2YhGZkpZuaLmOLRRx+N3AljJCPzzH777ad+Mssy54x03pnnn38+89VXX0Vu3JxzzjkaVjrMDHEhYX4ZYXLq/tZbv4iS1OPXv169ekXvJs9z585VH7Hbl7njjtLEScWWU5hxZuzYsZnZs2dHWZOOPXPqqadq3m644YbIXWZ46iYz7YxYio/yTtmID7bUhVEx9WNx0l6pA97Hb/jw4VG0++67L8oHdWVEPcvuyahucP/444+j+nnttdcsaJ3rXXfdpWnKYKSOn+9g+eEqs0dtK/izlMBznAxPwr/00ktx76KfEanNfOsN/f0055f6/Pmnn+q4WcImukQk98nLv7x/9hefZ+7++/+p6O21oddaUL2O636auj9yapfMT3PnqNu3H83IPHDCser+8qB/RuHJi4kMP53wcuQ+/+d5melPPp5BpOrTlPvuEXfB7NdvB79ZMz7MXL/lJpr2xy+N94Nn3b818mYN8/qw67LceZj3/ffqRxl/+O9/s/z98pMv6LWhQzT8s/3O0+evp36gz2PbHZYZf/klev/SlZepH3/fffKx4vvNtKm/uX387zpukWe4UQQQ9ZRFtc7oZFalncpTTz1VEAeZPWjYeCdCZ28MxhigzwDoJI1gStZBzZw505yVEZp7nKlFgX69gbnmCgujwO/SSy+NR8sYo6PMlaJiy5nrvWBKvmXGHAWxjtkYiOHPOyER5yruFsH809SPxUl7NUZHPTNoMWLwcsghh2je5dxXc855pV4op+yszBmmWEZ3yy235EzL9zjjjDMyYMRPxOi+V4PcW0c/av82We9748Zh2qE/3efsyJ0O3db/uPfpi8mT1O/mv7aKnH0GA/MslcgD7337thE5k8jH6Ih02z57aBpvjbgpSoMBAOW2MsmsUP2ev/h8dXvpysszInrN3H3EIfo8SwatMFLCP3l2jyidcFMaAgsRrchJYFbwWj/U+YEHHnAXX3yxinwOPvhgXXNBJPn73/8+q5wy+3GIBCFEbIitfGJNBjKRkC/Se+SRR1RsaeFPOeUUXa+76aabstYAWWuRmYCmz5oZa3+sQy2++OIWVa+862gR660t4s2RI0dm+bEm1LVrV7fNNtu4f/7zn1l+JrpE/LrXXntl+ZX6UEo5EQ3LTEjFr8LsHSJHYV4q2vPzTRkpK3plECJmRIX2zLoool2ei62fYstrostWrVq5yy67LCs67Yd29I9//CNL701mno66p7wyeNE4MjNVMeaJJ54YicyzEpOHtOoFJrpERLrGGmvEk6m6ZxPJbXVCZ1mT6xnl79NXXnZj2x2quxj3uvo6df/3c8+6+49vr/dJ2/FZY4M6vj7JLSZid+jxM0937913j0MkulHbQ91qW27tVv7TZlniTQ34699/Xn3FTRl7t5NZoqzBfaGu33/ztYoxyR/5TCLbJZkkuiT8tMcecY+ccqJG3eTQw93Sq63u0L1DjGrU4dWJ7ndLL+3GX3aJe33otbqzcrm113VPntXdteou7+7Y2b0+bIgbf+nFbtPDj3Q7973AooZrCQgs8IyOtRA2dIjoLgu+ww47zB111FFuueWWU3c6WFvLY0NBLiLMn0WZ0xgA62ciUssK3r17d8dmDJl9ZW0I+Oijj1zfvn3de++9F4UnPh3+gQceqJsg8Hj55ZedjM7d1ltv7QYOHBiF5caYIMz49ttvz/IzRsf60ZZbbpnlV+pDseW0/Nn7WHdkM4nMUnVjDMydtU6Icv/nP/+J1g6PO+44xcYYXefOnXUjDs/F1o+9P+3VGB0bRERsnBXtmmuu0TVPBjC0G0jEs1kMkbpi/Yx8/vvf/3aUhV8SFcvoRBrhFltssaSkqsrNGF1cj842ZOja2K+MbtIdt7une5+l61n+2lq8QHtc+k/XbNlfBqWzpk8TBfZT3RfvTIyCsR7WsvMpwizaybb9RSN3tvo/0/e3elyj1Q7ud7Je983UD3RNcJuTT3PbnJK9hm6RCzE6wvnrhTyzFrjbhQPco11P4tF1mfKhXt+8cZiTWZ1ugvn0lZdUFQH9Q/L64hUDZCPONbLxJndeNJHwVxiB0iaCv8WqddGllQRxIeJL2SmpoiXES8IQzDsjmwki98gxz42J9Fh3i5NsntC0WHtKItmll2G9iTU/8sFPNnFEQVnnwk12c0ZudsP6FX4yYzCn6GqiS+JXioopJ2I+2XCh+ZPBRbRGSF6S8o3oElGhEeWlbEaU0Z6LrR9LI+3VRJdgGCeZ4Wk+ZFanXqw5miibeLaGiueIESM0rL/OF0+vWNFlPH61PpvoMq5e8Nnrr6mI7uGTToiyPm3co+rmb6OPPAvcsH416c5RkRgQ8d/0J35bs5z7zdfRWtyHTz2RtU736vXX6HtFsT3nWwqJLi0i63/kBVEra3KsL5IXRJtGrBWaOJMra55GMkNVv3xiVAsbrvkRWODX6JLgYf2CDhQmRedsZJ2XbNE2p5zXYhhAzkTEw9bcZAddFOwLWVgnf+THXy8iwL333qt+fniL2NiMzmdGMpO2bOmVNSvK5DPoYhgdiRRTP1kvT/FgjI71OL9NENUGJK+88oqm9Oyzz2pZ/M1J9grWIClnYzA62tIll1yiPwZTDU3FMLovp0zWTh4dM9u4UUp+7Z1sbDGa9vhjmjbrYXFi4wsMpxKMLp625eXZ/n0iry/f/aWcvJP1OiPW62xjzKev/tKuzC9ci0dggWd07Kz0R9xA+MYbb2hnRMfpk6x5qTtMJB6HHYz+TrZiGZ2IADNJMzxZx9N3ikgzygodLRsx6DDvueeeyJ082AYOUVWI3O2msRmdYUK+p8tiuxEzINtIUg6jK6Z+7N1pr8boyPv48b/tyPvggw+0HnD/76+77Kz9MFDy2wmbVQjHrzEYnbUN3u+31bQYlBvOOvo0MzpmQ7Z5I654TT5mfz4z89kbv22oYbPH5xOzFdQJN+GaQcq4RKTJo5KICNUtroxtM8tyGR0bY+bEdkmzi5N0+bHRxKc7DtpX3V+97prIecq9d6sbjF5GVpF7uCkNgYWIVljAmTtErW9GOfzww1XZmsNzUVxm/eTJJ5/UDQPoTXGwrpF0ZA4dNHSiULZFbwqlbxSCReypG05YX4GKXbv6UhRSWYcjXZSSURRHSVl2EGp6srPOoXBs5OujEW/VVVfVfLO+h44XenIoNvtka3TXX3+922STTXyvku+LLafl4Q9/+INr06aNri0Js1ZMyUSpa3TELaZ+CF8M2RqdxWEtlnUxNoKwzosCdocOHdSbZ9bqaCesQaI3x72/Dhxfo+MQZ9uwwgYbNhWxjsrGKIj1PWFUem9/thnF1izNPdfVNvfgb5umcoWtD/di1uh4/39em+DuObytZoWzHVcTpfyfZdPSl5PecSLadJvIocq79LtQ/YXxuZt32k7P1kS5eskVV9LNHyiFQ39/4FHRl9tQ79GrG9n6r7rphPU/1gbnfvWlniGpAeQvvi72lih724aVmW+9qYrma2zbyq2yxS9r3YsttbTb+sRf1t/Qxxu5x1/17MmlV1/DzZo21f37+V90b/X8yp6/rQ3yPn/zygb7/80t0mxxx0HN0O6XXO42PPD/9D78lY7AAs/o2EHHxoE40VGJ6MktssgiWV4o81555ZXu8ccfz3Jn04jMSqINBvkYQM+ePZ3MEPSkDVMwF102hzsnlfhEB8cuSnZhxgnmiqIyHasRuxbZVYmyeZxwf/rpp11DMbqkctKZo8hMR24Ecxc9OlWYLofRkV7a+rF3p70ao4M5s3OSzURGKGyzMcZvKyjvswvTTiIhLHE333xzN2DAgDqbUTiFxw9rads1aVNTU2F07EYc0/ZvWUrTVm4R7bmnz+2VtWMRPw6L3rrTSW7dNntr0B9kM5McgeX+M+Fli6pXNoHsdE7fOodIswFmXPeukZI4gTc44CC3estt3NPnnV2H0cG4TKE86wW/PvhK4HPllJtR+7VWRmphyQc7OTc7MnuwYv7v3T/WPdPnHFVEx43wO/Y617FrM1D5CCzwjA4IRbzkRP9NR91Ly5ZfZkcc7ZWPYGSiAKzb2tk1uPLKK2eddJEvbj6/77//XvPC7ITObZVVVsm7o44JOTsT6eDXkqOf/CO08r2nMf3Is6wz6o/docsuu2zFs1Pp+jFGx+yZXbPM0GgznHoSV/+wwqA2gWoBAxHCxY98s3DhWhiBH2Ug+K0cAbbQQgvLdv3Vso7z8mPPmzvH/Vcw/+G/37klVljRLSMzqoVz7EjlyLDvRLXgx9n/cyu02EDUELLVePx0i76XNv6tzOyYKaJewNFlhUhElFLGD51o/rvl1l2vzjFkheIH/9wIBEaXG5sFzge9r2nTpqUqN2c1MsuMi0dTRW7kQKWUE5UORNnG6Bq5COH1AYGAQBEIBEZXBFhNPSgK5rK1PXUxOZszrlifOnIjBiylnIgiA6NrxEoLrw4IlIFAYHRlgNfUorKRhc04aYlNFrWgqBwvTynlFNUBZXSspbGeGCggEBCoHQQCo6udugo5DQgEBAICAYESEAiMrgTQQpSAQEAgIBAQqB0EAqOrnboKOQ0IBAQCAgGBEhAIjK4E0EKUgEBAICAQEKgdBAKjq526CjkNCAQEAgIBgRIQCIyuBNBClIBAQCAgEBCoHQQCo6udugo5DQgEBAICAYESEAiMrgTQQpSAQEAgIBAQqB0EAqOrnboKOQ0IBAQCAgGBEhBY4BndyJEjHUdZ+TRkyJCaPNrKL0O+e8y6YBYGE0SYJ6pFuuCCC9yHH37oxJComjRKKsONN97oxDacO/30093aa6+dFGSBc+MA8IsvvljNB4ntv7LKz6HVYjFeDxLHCkgtEoeov/vuu3pI9/rrr+/WWGONihzOblh8/vnnTmwW6gHgmN7605/+5DgEPlDDIrDAM7r77rvPcWAvhAkbCDcaZS3Qo48+6rBNh1khTNykIWzmYY/spJNOctjjq0XCnhtHeVEWbNsl0dlnn+3E2ndFzRLRMcJkaR8w0FojOt1jjjnGtWrVypXLnPKZosqHC/WGfcVtt902y95jvjj14YepJSxR+IQNQAZPmMcqh8Dm0ksvdQ899FCdZBhkriYWGAI1HAILPKPzocaYJrOEWmJ011xzjRpZ7d+/v9t111394uS8f/11scUlBl133nlnNfKaM2AVe6RhdNQjo3XqFWO0lSDMJ+29996anm9ItRJpN0QaGPi94YYb1GzQIYccUtYrS2V0ZvII+43dunUrKw+lRp4yZYo7/vjjNTqDRExcYZcSJoxNRw7+LodgoDBSTG2JpXlNf+bMme6RRx7RtDEFFqgBEcDCeDn09ttvZ8TmVjlJVE3cI488MrPjjjtmxDho1eSpUEYGDx6seRar6IWCNin/Y489VsstnUeDluu7777T9wqTaND3VuPLfvzxR8VCOvKisidGhzWezCiLilfJwDJr0zxcddVVUbLTp09XN/qAqVOnRu7F3kycOFHTEUaeEWO6WdHnz5+f9RweGgaBMKPzBhVpZnSIrhC7cJr9jBkzXPPmzV3Lli2ddLw5jbVOmDDB3XvvvSqrx8I2cZh9MaLF0CuE8VdGe1gel49MDaki3thwww1d+/btNY5llXWn22+/XR8nTZqk6wtY6cb4q1HHjh1dixYt7NF9LVaP5aOOnrlhZrLddttludkDawvDhg1zMpBxWD9njcvyjC06I9Zp+vTpo2UHg5tvvtkxY4SwgN2pU6eyDY4+8MADuo4KLptuuqmKabGSniS6BJu4xXjWonKNoD/66CM3YsQIteyO8Vrqg7UaRuE77bSTFVOtglN30rlr3eMhHWLkj2HVYte8mBGdd955uh7cq1evKK34DSaCaHPU1cEHH6ze0j0oJojbmZ1gKBjRNfWeVFZmKFhGN9poo40cltGTCKO4rFMj0ifd7bffXtdyERMz2zFr9/6M7rrrrstb92B70UUX6eswWEtdInIGayPWi/fcc097jK6I/1hXhpBCYKm9HPrhhx+itWna63rrrafJXXjhhZGokW/uhBNOKOk1WJZHYsJslW88UOMjEBidVweFGB0fCI2fjxQZPh8I91iQxlI2jCFu4ZsOgw0vEOKzFVdcMYpz+eWXR4yGjoDO1Q8HkzGSmZvbfPPN9RHGeeWVV+o9DIn3IyLxbcOxPrXJJptYdEc4Ng5AvIs4udboZGSrDMrSJd90tlDr1q2VsemD/FlnxzPhjFnwPqht27butNNO0/tS/hCz8YM23njjyBK8pRVfo2NN7uqrr1ZvGU3rFaboY2FxYVp09uSV+iR98k+d7rDDDsrcLOxZZ52lJoxg7GbKyN/gQtxzzjnHgqe+YvaHfNKZ57K0Tmc8dOhQNRPEBiLycO655+raLC+C+Vv9UI5rr7026rwtI507d3Yw6rlz5+rAKNcaHUwOsTAW1GlTMM3JkycrPrQH3/BsMXUPk8W8EXknHcPcX1+FiRsjt3xzpT5HjRqlTuUwIEsTq++IK8GKNW4Gbq+99lqW+SVMUMH4SiHWvWkjbHKjrAz8fve73+nA028zpaQd4pSIQLkTxwVJdClGSVUkIR9bRjpEhU5mOxlhfuouo+4sOMWStboLc8i89NJLkZ/M3jIyI8tI5xS5kc7w4cMzvihOZo8ZYZSaRpcuXaKw/k0poksrx2233eYnFd1Lh63vlE0XGfIKIdahHIh1KJeRia9wP/PMMzMyGMggnpEORMPiTphSSDrdKA17p3SuGWE6kbuPV/wdFs7H2Q8jMz9N54wzztA8mx9pIl5LokqLLmWWo3kQCUHS69QNXMFRNpLo8/3336/PwqQzMjtSN/JVqK0Q8P3339e4MtvQePE/RHm8S4zMRvUmjE7dcJcNFlGUUuu+WNHloEGDovfLzDF6f6k3JloEP4jvDFE07VukKvouvulSCZz48T3bvV3Br9TvodT8hHgi/igXhAWJ0dm6kMwasmB79dVXtUHH121EHKXuIhrLCl/MA50uHwkfYRJVmtFZR84742uVMrPSvOTq7HzmAIO0jzsfM0oqk7kZQ+7bt6856VVExqnSLsToGJiQRxHrZaWf78Hwidd1vjj5/GTUr3mQWZsGk80iGQYYsjNPnxk02ADDBh2s/ZBvEY9lJU0HamGNAWYFkId8jI53WZ0xsPFJZjfqV4m6L5bRiZpIhjLzE+mIn62S7kUMqmUxZmYMicEZgyIw4F2lkLUPwxG8xo8fn2FQZXUjm5hKSTrEKQOBwOg88AptRrGGKmIdL1ZGZzHWsK0zIgCdIe50zGmIj4RZFh00TJX8WJ5IJ2khu9KMjlkD7+K9cRKRqfqJKDLy8kf1siMxcudGRKUans61FLKRvIgn60S3usjHRAsxOp9hwlxgHIU2VllHVilGZ3lgBgXZjILyiZhP2w71wawOElGYYoobMxKkC/4Pd36+BEEj/vqXj9EhpSAu746T7GBVv1yMrpi6L5bRxfNS7rO9v0OHDhkYOmW2Ga7N9kqtX3CwOhBRbVZWGSDjV+zmnaxEwkNJCARG58FmTCU+kyGI38HQAcXJOl7EbRBhrMHPnj07HrzOs6yd6CjS4tCJ0fnZrBB3RCxxqjSjo4PkXfGPlPcaEzSRD27G6JI+XjoP0pLNEgQtmnr37q3x4zMXEiIPpF0OoyOdMWPGRCNt0uMH5iYmJIxPlWZ0NmOj/XDfr18/zYPhRtm5N6mAdcy4wfxy/d58800/29F9PkY3bdo0fVdSJ8+uXt6ZxOiKrXtjNI2161I2cGlZmLWxJEC5bHekqATos2wsijAr5safFcdnbvat8D6WKgI1HAKB0XlY52N0fgOON1JfTAfDMjLml68ztrAmFmS9SHZImrOukfFh8GsIRmeiG2aUcbI1R78TsI+32M4unnbSsyi1a7ll12Udb94HJvmwLTSjs0SpM9bIWJ+yOmOWlESVZnS8w/LJ7I73y6YmvcLcBg4cqOWU3aSaHaQJ1h6S8lfILR+jY4BH2uQhTtQBfk2B0cnpMBGGlGn06NFRca2cstkncvNv6Afs57v799Y24+uufj9RSHLgpxfuy0cgMDoPQ9tUwuJ7EtksIr65wUbZ8Q7CRHdpdNyMycrur6xX2yyKDzKJ0ckOO/1oRX0hK16+B1v7StqMYhtAKAsbS3ziHeSDWYdRfTI61mN4HyJMn2QHX9RRVYLRxdOm7Lw3SeTMIAc/wtDhVYLoaEnTmBozDtYlmW0gXsMvaQBls5Bi8pCP0fmDuXjaNuioBKNjzYoyxddec5Xj8ccfz6D3xo/ZYLnEhiarY/D1lxvIE3mLbyzjnfbd4M8vl6TGNg8xePXJ39QT/7b8cOG+8ggERudhamIjFqeTyDoi0RvL6uT4+Gn4559/flY0YwwwSH+WRiCY48cffxyFR1RIGqyFGPEBFhJdInojHmK+tGQfbBKjo7MzpnvPPfdESdLRMsvhXWygMKpPRofIk/fRKcHcjNi4gTu/chgddRCfnfNsnSD+SWTvFjWEJO+i3WwWbWVF7O3vWrVNE5Ywm2cIS3v1O2n8qadc63P452N0+JsiNWuWxshpp4ZJJRidX6/x/JOHONlaLWWuxK5L0jeRv7/jVk5FitoVs7442bdm9c9yRhKZmJfvBaZqxKYa4vJ9BWpYBIIenaeWIesaqluGEwrYHAuEcrcdFYTuj+n5oIfEuXiyeB3pMwnjcGuuuWaUonRYqkSMHhI6Sfvss49eZS1E9aZ8PTrOvxNGqro9e+yxhx4ui06YdIJRek888UQd5WvSkg9Kw6DLh/L6Yost5mSdJes8PdJHjwoiP7JTVPOPDhaETpGlw9mZIk5Td/Sm0KWSj1cVtNGVo5yLLrqo+psuFeWTbe/qZn92DBJ6cOBZClkalA0Fd3TOUCA38vXoZMarSsvyCak3eSY8CsamTI+Csh1kjRK1MH1Nd91111XF+GeeeUaPgZOOPUtf0N7HVUb9TmYZ6oS+FfiQP1nz8YOlvjcMiUAbQQcSPbb9999f00C/01dG5xiyI444IjooAMX2Zs2a6QEGTz31lCq9g4sRR26J2FkfOTgAnT3013zlbHS/0MMUpqZ6dOh/2TcgsyjVByOBJD26YuteBkeR/iJxUUhHUR/dRdpvnCqtR0f6fjm33nprPRKN7wvcrQ7i+aCt0GaMZP008ZAI9G05TxRdOvQrqR+/3Q4YMEDLaumEa/0jEBhdDGMaO6dQoDQM0VBR1jXCHWVdUxrGnc6fzi9JKZnOF0VyU3i1dEhXZobRiScwRU4u4WMyohPgDEuZrekHmMToCEtHxkkpdiIJbjBNPmAjU0y25/g13lnRYXKSBR2eEadiUHaU3o2sk47Hx79nz5560ot/+oTFS3vl/WAA8zWSGbKeZALD9hmdPxCxsPErzNIUu2HMKJPTufkko24n4qecp8yjVC7iRmW4FpdTSVDULpVOOeUUrT+RCrhddtlFk+FUGQY6SR0jeeDQAGO49l7qAYaL0rcRhzfHT4sxP7vSPhnUQTKzcQzCaE8MgBjUwYTIG+0IxW+onLoXkbxiTx0ahuTZz7e+RP7qg9GRNt8yAzqYkBGMnMO6F1lkEXOKrrQ1DkM3ysXo8EdBnj6BE5SMwFI2mDkGsoEaFoHA6ErEm5ExJk9WWWWVnB2inzSMjPB8APni4M/JDTATwjUmMTMiz3SqzG7jp740ZN5kE4iOwjlZgg6jUkQZOQ2E2S6dG5j7J8xU6j31lQ7MhtmJiCy1HTJz9Y9oK+e9IlZ0Cy+8sP6sk+/atatKC8pJt9rictA19c8xbpxgUklioCsicD31hiP9wDNQwyMQGF3DY75AvhHm7Y9uC4GAOKuxGX2hPCb5IyJEnJyGYEicG2li4DRx6jsMjJ/zPxnYGMmmC8eMk7NFsZbx5z//2bzCNSBQEwgERlcT1VT7meTwYcSeaQnjoBwKXWtk635p8815iNU0g2T9bLfddtP1ua222kolEA8//LAWJ37+Z9oyhnABgcZGIDC6xq6BBeT9iAdtQ0SaIrPm5R/4myZONYRh1uOv3xbKE5tZ2DxULYSInbVVbKkZISpm3Q/rFIsvvrg5h2tAoGYQCIyuZqoqZDQg0HAIIMIUVQt94TLLLNNwLw5vCgjUAwKB0dUDqCHJgEBAICAQEKgeBAKjq566CDkJCAQEAgIBgXpAIDC6egA1JBkQCAgEBAIC1YNAYHTVUxchJwGBgEBAICBQDwgERlcPoIYkAwIBgYBAQKB6EAiMrnrqIuQkIBAQCAgEBOoBgcDo6gHUkGRAICAQEAgIVA8CgdFVT12EnAQEAgIBgYBAPSAQGF09gBqSDAgEBAICAYHqQSAwuhx1IYYn1VyJGKJ0K6ywQmIoMaTo3njjDTXrwan6TZUwZcIp7L4trloq69tvv60mkDhu66ijjsqZ9VovZ86CleFRyTaOHTwx5uuOPvromjzHFBg5nFyM16o1go022qiiljSsmrA3iNUQCIsK1XREnOWx5q5y1E9ZJJ1IRiq/rDSqMbKc61e2BetqKxfWp+Vg5YzY1Coqa2ZRuahIVRR4/PjxWpe+deyk7NVHOR955JGM2L/LyDmfSa+sejdh/oodVtDLJTHAq2mJ4dyikqoGDPl2unXrpvm3dsJVDisvqixpAostxOg9wvDSRAlhCiDgCvgX9F6QGd29996bkRlfzTB6semmH5BYHy9Yr34AMQibKcQk/PDVdp+W0dVHOQcPHqyYi7XzaoMlVX4q2cZLZXTVgCGDFRjbkUcemRHbfBkxshsxI5HqpMIyTSAxpBuly/sCo0uDWuEwgdHlwCjNjC5H1Kp1LpXRVW2BUmYsLaNLmVxRwaqhky4qw/UYuFYZHczGZnE+4+ndu7e6c60EidHlTOvWrTNdunSJ3vfZZ59VIukFPo2wRifCZhGlOOyCTZ061W266abusMMOc9dff70amsSysm8uhjW5sWPHZomoTzzxRLfqqqtmudnDc8895+6//363zz77OKw/864JEyaoReiddtrJnXTSSVmWu0n/rrvuciIq0iRatGjhDj/8cLfllltakllX1gxGjBihecXSNJbJt912W7UC3bx5cw07YMAAtaCMrTEzfiofbpQO6wCUwSfKSF6MsLx89tln22OdKyZ4br/9djdlyhT1W3/99TUPLVu2zAqLXTrsm8msUs3ZyExH10LJK3nYfPPNs8IX+4A5oCFDhrjXX39dDZpiwHWLLbZw0hm5Aw880HXv3j0ryWLKiQkb2gm/Tz/9VNNh/Xa77bZzMtKP7MqBG1hAkyZNct98843ad6P+jTp27Oio22Logw8+cEOHDnXbbLONa9u2bc6otLF//etf2m4oOyQdprvpppvc5MmT3ddff+3WXHNNt+eee7oDDjigjkXyYts47Zv1N74fzCvx/YA/7zzjjDOcWT9gvW/48OGOtVDaYr66LxVDLK33798/wqZPnz6uWbNm0XMpN7feequTGZzbddddo7QxTnvEEUdEydGmrZyRY5E3fKf33Xefu/nmm3Udk+j0BbVogLjIotd78AWe0cko0/GDNt54Y/046ZiM4ozu2WefdVdffbV6W2cHU9xkk00sStZ1zJgx7sorr9QORcQSbs6cObqAzRWCScFooFGjRkVpb7DBBo5O2/JCR92mTRsNZ390ZnQa0PLLL+/YEPPhhx9qHDZddOrUSf0Ig400OmqzleZvnqHcIprRsPYHs6AjgqycMO0kolx9+/ZVrz/+8Y9ukUUW0Xzg0KNHDy27esqfdXarr766pkt4yxNh4nhbvDTXzz//3B1//PFafvBg8EHHbpTE6IopJwzuoosu0uTAj0EF6VOXMCBwhBjIUOcQecKf/PgGVhk05GozGjHhj7QOPvhgt95662lnmBBEnbAGDqMZOXKktonXXnvN9erVS/MB7tSPYb7ffvupn59WMW3c6pP48TaLm1+fFjZN3ZeKocyK1Go774bGjRvnllhiiV8eSvy/8MILlZHDtMFfpkfu1FNPVYwtSfoQyl8qwdhPPvlkHSRQf2Z0ODC6UhGNxSt3TlvLa3TCSCIRgW0W+OmnnzK2AI+4YubMmTkhsnD5FurvvPPO6B0sZvNOaN68eRkZBUbP06dPj8K9+eabGkZGvRnWdsgHIo1Zs2apO3+IIXHDT0acmfnz50d+zz//fCZpwb9U0SXv4JdEshszI52l+svIPgri51vsmkXuJr4iPemM1f2rr77KyGxO05DOOQpb7A1rbKRLvVCPEPVq+S+0zmjhkt5LfVk5rX4IJ4OHDHhThiSqtOhSDKBqeYR5Jr1O2xXloG3QJn744YeMxbntttuidgIu5i5MJTEtHPO1cf/7sboEJxn0RJj730+pdV8MhnwjVo9cc+GUs8AJHrYJ5amnnlJfGfDoOyhPhw4d9P6ll15KiJnOiW+IdXPqjG8UsjIE0WU6DAuFWqDX6GS0pA2KD9OnGTNmRA3N/1D9MNzn6wQsrDE6GrHf4Zu/XdnUQuNO6oztPTI6teCZO+64Q8PLKDNyK3RTH4yOTp58s0gfJ1tr8PNtnV379u2zgstsNmf5swLmebDOgUGDT/369UuVtsX349o9DMP8czE1C+tfi+mk/Xi57kXtRfNhzBYGg5t1tCLeVH+ZwWkSjz76qD7//e9/V6bsp2vtn7aXi6ztJQ3mLL6IB7Oiiwg9wsr/fkqt+2IwpI3DwO3HbslyibZK3YvYPyNiX2VI4MlA1JggO0NLJRHnavoMfI2srQVGZ4iUd12gGd2gQYO0gYl4pQ6KNlvyP9R4oHydgIU1RkdnlI9OOOEEzQvv5cPyf5aX6667LkoChsjHkDRziwLFbuqD0Vlnx2wqTvYB33LLLZGXdXbsWvOJDpvygGkpZCN5sIoTOwdJO2kQ4Ye1zsV38++NYdLJicg5I+KmTKGOtJhO2n9XrntmzeSTgQEkolR9tg0RtAf8ZY1Q/UWsrs+4+W2Ke5vRMSvJRfnauM2g034/pdZ9pTHMVdZc7rYx7cUXX8ycf/75iqdJgBhogq0/mMuVTpK7rGtqfL5/XypDmvwCo0tCrXi3BZrR0TnkaqR0ZvhVitHxkecjY2bMgtCjSfr5Hcppp52m+ePjS0v1wehgvuAkC+h1smFM0Nfbs84uzqAnTpyo6ZTK6KZNm6bxk1Qn0HUij+UyOmb61umRHj/EmQxmTFQaB6HSnbR1jLRdOkYTp9J+EBuaZMA6YhMjMuNOalO45cMlH6Oz7wcxdZySvp9S677SGMbzWugZjKhrG+j47dlEl8z2SiFZl9O02RnMbNF+1r5kc5e6lZJ2iPMbAgs0o6PB0qDinS7wWAdSKUbH+kg+oiMiL++++26+YJGffXTFjCTrg9ExcyDf8RkaGWXWg9+wYcOifJfa2UUJ5Lix9SLqLU62ppKvQycOeeVXiGB4zKxMNEsc2RiUGK3SnTRrgjA1ymliStZoyQPMzdoRolbIZl2jR49OzF8hx3yMTk7K0fcyY45T0vdTat1XGsN4Xgs92+ABjCmXvwRh5aQu4sRAxP/F/Xm2+KSd75cUN7ilR2CBZnRsfKBxIcL0CX0Wa3QNxeg4sYR3ppX133jjjRreH136ZUi65wPlHXSUvpgkKazvZlj4bnZvm05Yq4iTzSb8TSqldnbxtOPPMADLp79ph3DXXHON+lWK0fnvtvIw8EgiUyxOYgZJ4dO4yU5WLc/AgQP1ClOjwzTGAwM2QgoALog4S6F8jM7WVeNp26CD9/rfj2EVH1gWms0XgyGbT2BM/C677LKcM+1isDDJBOWRncdRVNaCrc0libBNyZwwucTDtE3EofGfpQv++AUqD4EFmtEhFqBB0fHD3IwQw1lD8z9U87drvk7AwtgaXaEZnYnXEPkw8/IJpoRohN1ZRibCIp+yxd2c9UpZTHSV5SEPVi7ipyWLkxRetrxHafqjWn9Dgmxlj6KW2tlFCeS5YQMGefXXBGF61C/u5TA6RJO0lziJbpqmHd/QZOFEvUT9bQ3N3Mu50pasTixdf9Yhqg5R8qzxWFg5ozFytxvqLN8RfvnaOPEsbb/ujeHi538/pdZ9MRjaWq3lqxK7LkXFJyonTNnI1kfBPokMO/KSi9ElxcPN8h/W6HIhVJz7Aq9HhwKxrHM59Ln23ntv1e2SEWekhCEj4khhnIONUeYUiNVfZjMaHv02UwZGUXr33XeP4pseHYrhKH7nI8sLOlf77ruvHiaNDtsLL7yg75GRZZbyqIx0HcqsEDpilEFObnBPPPGEkxF+pEfnv1M6ZIfeG8Qhx+iaEU82JkTBZKTqZLde9Iw+FtSuXbvIbeedd470xmRG7EQ0pvqBKDKjp4UiNjqAKMr7iuYyE42UhimjEQry6P2RJ/SWSiFLg7goQqNoKzPkSGcsrkdXTDm//PJLxRhdKRTEURRHGVxEx5pVYa5u3XXXrZNtWTt0svFD3cEZBXoO6UVhfrXVVqsTPo0Dh1R37txZg4okwO21116qIC4dq7rJTMa1atUqSkoYo5OZgz6DCzqAKI3Lzk1HWrSJPfbYQ/2LbePoC9LGod122011P0nTyP9+Sq37YjCsDz06yiIiYCc7nbWN873THtBjhegT0G2ME+0enUQIHUt0LdNS0KNLi1S6cAs8o5MRn552YI0W2GRWpZ0AysD+h2oKu/mghVn6ytfEF/GinoBSiNHJrEGVfDk9wqcll1zScYoKCqtLLbVU5AXD5UQKEWGpMrB5cJILTHOHHXYwp+gqI15lSjBzU0bnNAuYppGvAG5u8SsfMUwMQhFdRut1lJg5IYPTTvzT13N1dmDNaSH+6RPxd6Z5ZlBAx029QgwaZN1KFfHjjK6YcorY1/Xs2VPbhZ8P6qZr165ZSsq+P/fkiZNSZGdp5EWdbb311tFzMTciqowGUwwoVlppJTd79uzoQAHaxLLLLpuVJCfSXH755VGdmydMW0SdUUddbBunDdLRc6IHcenwjznmGB3McHiBiK21DnhfOXWfFkORhkTtkncyEClXYZx0KCcHRTCgM+I7E7FiTsX/SjA6rD3YINreG67FI7DAMzqDjA+EI7QY7dJ5NSaJqNKJyEdHjcwc+KB8ZhHPGx+h6HZpnOWWW05nacyqGppg1ByNBDF74diwxiDwkw0jOrMkHwsttFDFssGMR8RJDlMqMFFmjfnqpmIvrlBCzOSY9TNgIu+VYAKWNRgwx23RHpn1MNhgAFlJ/O1djXWljSMJ4DvzjwZsrPyE96ZDIDC6dDiFUA2MAOJXmEkaotPZZZdd0gStqjAwTUSraQmxOGexVhMxi2P2uPjii0fZspkyM1ZmroECAo2NQGB0jV0D4f2JCCDmtfMYEwN4joXOfvSCVtUts/C//e1vqfOESJ3zEKuJEFnzYwbHDIcZHCJLKN8ZsBog/AUEGgiBwOgaCOjwmuIQkCOtHOtiaQgxnL/5Ik2cagiDGMw2K6TJD2LYcg4OTvOOYsOw9ieHBmQNSth4waHHrP0GCghUAwKB0VVDLYQ8BARqHAHM7jAwwUJDY6wP1zh8Ifv1jEBgdPUMcEg+IBAQCAgEBBoXgcDoGhf/8PaAQEAgIBAQqGcEAqOrZ4BD8gGBgEBAICDQuAgERte4+Ie3BwQCAgGBgEA9IxAYXT0DHJIPCAQEAgIBgcZFIDC6xsU/vD0gEBAICAQE6hmBwOjqGeCQfEAgIBAQCAg0LgKB0TUu/uHtAYGAQEAgIFDPCARGV88Ah+QDAgGBgEBAoHERWKAZHUcwcVQRh9KK8cSCNYFpG7EU7Y499thEEzgFE6jRANg54wBiMahZkyXAPhr2xLB1d9RRR+UsQ62XM2fByvDAtM4bb7zhTj/9dLXsUUZSalIKszNHH320M3tr5aTXGHHF2KwTA7baZ2y00UYVt3SC6SwOM8eqRDDPU4zr9vEAAEAASURBVMEaFpMaZZF0InktFJeVeD1Hnjt3rlryFaOjqd4kh9RqeDlxPlX4phLIrB3XannGjx+v9VaOhfFSy05bEfuEOS2+l5puQ8UzK9li1LbsV+ayMF4o4WrAkL6iW7dukeVv+ybkrM9C2U/lL6Z/MmJwOEof3ANVDgFsR5VFgdGVBV9NRJbZUKYQk6jmgqRldPVRzsGDB2vnJdboqxminHkTCUZGpB0VGcyWyuiqAUMGKzA3MeKbEWPKGTFUHDElmfHmxC+NxwUXXBClZQw0MLo0yKUPExidNN4wo0vfYGoxZFpGVx9lq4ZOuj7KVUqatcroxFBtxIi4N+rdu7e6cy2H9ttvvww/sUKvTBRmFxhdOYjWjbtAr9Gx7rTHHnuoHa2+ffu6kSNH6nrEWmut5XbffXd32GGHZVlHHjp0qLv55ptdr1691Br5M888oye2b7HFFq5jx45uzTXXrCNUfuutt5w0YDdlyhT1w3jmIYcc4lq2bJkV9rLLLnNffPGFO+KII9zmm28e+UmVuauvvlrfh+2yHXbYIfIr5ubnn392Dz74oP4+/fRTjYr18u22287JKFVPnffTGzt2rGJhblgLP/vss+0x68o6joi2stz8h/POO0/XNMyNMpEXTLyAC+sRmHQBw1VXXdWClXQFwyFDhrjXX3/dLbroom777bd31I90Ru7AAw903bt3z0q3mHKmxZA1LeocmjRpkmPdBfM6/poLZW3RokVWXgo9fPDBB442uM0227i2bdvmDM5aMnbhsOlH2SGsot90001u8uTJDivjtNU999zTHXDAAVltnLDkH1x8OvHEE3PWzf3336/rb1OnTtV65LsBf955xhlnuGWWWUaTop0MHz7cSSfusHYgs1y1Xde8eXNH+n67LxVDETG6/v37R1nv06ePWj2PHEq4ufXWW53M4Nyuu+4apf3RRx/pt2rJPfzww1E5zS3tFUO1rFlivNaM1rKeLKLMtEmEcAUQCIxOGJ3Rkksu6dZZZ52o0453jMboLDyd16xZsxxWlomLocm1117bvKNGiwO2xDBfYkYpe/TooZ2MBZ4wYYI77bTT3PLLL68MF3Mn0F133aWbQLDxdc0117jFFlvMohR1hbFcdNFFGoc8rrjiitrpzZkzRztP0vcJZkFHBBljfO655/wg0f3ll1/uyL9PP/zwg+KCGxt4eB8Eszj33HO1I+YZi9nGJMGQDgVDqqUQ9XD88ccrYwFHmCYdu1G8PnEvppxpMQSLK6+8Ul9LnsCY/Fid4sGgYZNNNtEwaf9I6+CDD1Z8GHDlolNOOUUZDQM36vq1117TwRn5WH311bUdmlFbmUmon58WNvIYXEFW97mMqBrzIizfAwMNGLuRiPl0IMmzhSUPpMs3YfnA3w9bKobffvut23fffUlOady4cTqQsudSrjCchx56SJk2+DNQYxMbzNwI47OVsBUYGJ0hWuFr3UlecS5NYY0OUYE03AwLzpCMnDOtW7dWsQSLxEa2GYXwiMOg+fPnZ4SBaFiZFVrQjMwWVRxBWBnxRu6s1eBG+mK/K3LnRka76idMUNOV2U4UVjqGrLDFPMybNy/Ky5tvvhlFFaaTef755zNi6TpyS7ohv/yKIZmhahwW8HmPEViQlljLzsiIX52/++67jDAcde/SpYsFLfrKGhtpI/aRHbUaX2bU6oZ7oXVGwvBLolIxrLToEjE7eRSmlZTNDPnEn/ZF25QBh4rmcbvtttvUjYjgYmkJU0lMC0ewJG7SZhRhauqHv3T6mgbv5zvAjd/MmTOjtE106Yen7clsTsMKY47C+jfFYCgDz+jdvCcXTn76he5tE8pTTz2lQWXAo++gPB06dNB7MRRcKJlU/sKYNb0gukwFV+pAYY3u1w+SD98n2UqvDQ7mY2SMTsQx5qTXL7/8UsPyYRmzhIHwzOJ1nOjM8aNR+0QncfLJJ6ufiJmUGRBORKR+sKLv6exIh18hppaUuMVN8ktyE9GZvktEtBmYmE/WucbLLqKsaHBhDNCPl+be8ukPTojXr18/zU85jK5UDIvppNOU0TYu2IAFBoObdbQM0sBBxOua3KOPPqrPDCz8AQeeIi1QPzab5KJ8jM7ii3gwK/rHH3+s6ZKPJEbXvn37rPCjRo3S8LnqpxgMaW+0MfvZ95j1wiIfyC9leeWVVzIi9tV2Cp60WWOCldqJzXfBuwKjK7KSCgQPjE4aFQ0LJuOTzbzoJI2M0YnYyJyiK5066YgoRt2sE2CWESebud1yyy1xrwyjZJtNkt7AgQPrhCnFwTp7PtARI0Zk2CmWthMgH/zSECN/Cy9rNllRGF2bH/mgA/F/5meddlbkAg82kge7OLFzkLRzdaQW3t5vz/FrKRgW00nH35f0bDNimANk0gTbEGGDDDY2QNZmKZuPNfc26GBWkovyMTqbQbMLMU7WhpMYHTsWfYJZk79cnXulMfTfneZe9GY1fy+++GLm/PPP13sbGDPoJe/xgVuadJPCBEaXhEr5boHRSSNN6hzpbGnAiDSNrNOg44zTCSecoOFhINB1112nz0lM0ZjgFVdcEU9Gn02Mx/thfJWgGTNmZOyDJV1+7PS68847IzFfrvdY+Fz+5s5skTQJb2Ie8+PKTMvSOvPMMzO5fjZb8eMWup82bZqmzYAjTug68d5yGV0pGFa6k2bwQFlgbIgmDW/aMIM1Zmf4W0dsYkQkC7nwzodLPkZHHngXg8I4MZDBL4nRwYx9mjhxooatVkYHbpTFBjr+d2uiS2Z7laDA6CqBYt00AqOTBkwjptPwSRbk1d1GyvgZo7PRsh+ejoR0bBZDGJ7jo1fiMKPCb9iwYX4Sem+iJ/z52XpdnYAlOtBZMysw8SnvkB16eVOzvOQLhBjH1lpg8kkkmxS0TKRXabL1Ijr+ONmaSr4OnThpykm4YjCsNKND/AhTo5zWVmRXoOYd5mbtEFErZLOu0aNH63Oxf/kYnYn3kwZ+xoCbAqOzwQPtg3L5a+tWTuoiTvQp/i/un/QcGF0SKuW7BUYnjZcGLEf7ZKFpzEh2Okbuxug4wcAnNp5YJ2lrUib6RIYfJxtl+5tUCMMHZCJQZP7GONhEUB9kmwN88WzSe6xsSX7mxiiXcPHNJ+ZvVxNplbO5xtLyrzAAyydiTJ+oQ/wqxej8tAthyECHdycxAz+dYu4Z/JAmYm2uMDU6XGM8/oYexIqEQcRZCuVjdLa2Fk/bBh28txKMrhgMEY/DmPixIco2JZVSdotjEhjKIzuPzTkz3ZNQJC0DmJI58fKJh6ME5SYwOh+Nyt0HRieNkIY4aNCgCFU+FmM4vkjCGB3hZat3FN7WgBBfGuFPOH7+aM9fqLf1PItjDNA6DpiBMQYTRVnYYq587OzgjBMbXsgf781HVo5cYWzGBGbG6HOFtc4Y5hpfF6WzKGV9zt7FBgzy6q99wvQMw3IYXakYjhkzRvPkSwYsv6VeGfhYnVi6/qxD1GCipNnYY2HljMbI3W5om/FBnvlxzcfoiGdp+23c6hi/SjC6YjC0tVrLVyV2XfqSCMSsRrY+CvZJZNiRl8DokhBqOLegR+fp0UmHqDpKMhtz7733nkO3TJhbpFDr69H94Q9/UD04+bCcfIiq9IHSd6tWrSIFEGGeTkRGqmOHgi96dCjiome0zz77ZClg33fffW7AgAGqW3SjKNaiPAqhVI3eWVy/LnpJihvZFarK0uj5oCCOojiKzDJ61NjCGNy6664bpSQjVSe79aJn9LGgdu3aRW4777yz4oMDisfSoahOHArxcUIZeOmll1ZnDqxFKR4MyM9OO+2kCr0iDnSyrqfh0KcqhdDH69Spk0ZFEXqVVVZxMjOOdLXienTFlLNYDC3/snboZOOHPqI3xkEB6ELKoMCtttpqFqyoK4dUd+7cWePQNvbaay/VS5SOVd3i7VAYo+pg4gku6NahNC5roY60ZKCjByfgzyEK6OhJF8Sj6lKi89amTZtI4Z065kAFCH1Ba/+77bab6tGRppGvG0e7NoVxX9fN6i2XknQxGNaHHh1lERGwu+OOO/RbBgvaA0r5EHgl6X6iK4lOIkRfQv+RROBF+hD5B290Sjm4Atpll130UAd9CH8lIRAY3a8no3DqiN8Qt956ayezjiwlX2N0nGrhd6Agz+kfdPg+iTjNiWhLPwTfnZMj6PxN+RslcmMiMsuqc2IGHRcMEqYgo0g/qVT3IhJ1PXv21I7Nj8DH1LVr1ywFW/xNadUPG7/nI4ZZQ4VOopcZb6QwTngGB3SQvMcnmLnsBHTHHXec71zU/QsvvKAdN4wXIk1Zt1IF6DijK6acxWLoZ5o8cVKKr2AsYkdHGyuFRFQZMRraxUorreRmz56tzIj0UG7GIodPDJhQ7GeA4RMDHxF1Rh21KaX7YeL3e++9txOxnDrDEOnoGagRlw7/mGOOUYZGuxbxvNYBgXMxOpT6+ab8k0fi70yLoUgUonZJGgzmOHmnXKKcKNEzcDVisCu7MHMq/qdldJSNAyRyEd+ELAnk8g7uKRBYoBldHB9Gs4zyOVGDDrIQYbKDOIyQma3lIhF7OY4MghjVc5xWYxB55VgmZlWUjxmPMdvGyA+4iCjXichSO2uOyFpooYXKzopsAHDMEKkT8K5EmpapasPQ8pX2ykxOzmt0Sy21lNZ/JZiAvRsG3KxZM50NMuthsMGsp5L427sa60qbpY9YbrnlohNfGisv4b3pEQiMLj1WVRFS1uocopw0RAeDiIgzH2uNnnjiCWXIafJNp4N4p9YIpolkIC0hMuTItGoiZnHMHk3UTt5spsyMlZlroIBAYyMQGF1j10CR75eFfj3/Mm00zmf0z1hMG6+xw3EgsX8OYr78IC5DfFZrJHqHDpF5WhLdNCcn56QN3iDhEM3zYwaHKI8ZHCJLiPXtYs/z1IjhLyBQYQQCo6swoPWdHJtk0jIA8sICf2OKJ0vFQ3ZfqmWINPERw/mbgNLEqYYwiMFss0Ka/CCGrcTBwWnelTYMa3+iN5nVJtl4waHHWKQIFBCoBgQCo6uGWgh5CAjUOAKY3WHDDtKDfOvVNV7MkP0aRSAwuhqtuJDtgEBAICAQEEiHQGB06XAKoQICAYGAQECgRhEIjK5GKy5kOyAQEAgIBATSIRAYXTqcQqiAQEAgIBAQqFEEAqOr0YoL2Q4IBAQCAgGBdAgERpcOpxAqIBAQCAgEBGoUgcDoarTiQrYDAgGBgEBAIB0CgdGlwymECggEBAICAYEaRSAwuhqtuJDtgEBAICAQEEiHQGB06XAqOxQnxl988cVqlwoTPYEaDgGz98VxaEcddVTOF2PPjYOWOU800C8IYFrnjTfecKeffrpa6SgHF8wH3XPPPe7oo48uaNqpnPfUZ1wslogBWz3IeqONNlK7cZV8H2aUsC6CVQmseQSqDAKB0VUGx4KpiAVmtdPFmYzYl6sUYSCVg3SxcRfOFkxG9cUXX3Tdu3dX47Ncc5HZ1XvuuedyBSnavdbrx2yqVeKA5lz26AqBWg0YMgDCyC1tyacLLrjAYYS4XOIgbGwWcgg7lMsIbbnvWWDjl2vMXEbLGRnllJtMk4//xRdfZC655JKMWCmuaFkHDx6c2XHHHTNiFb2i6TalxMaPH68YXXrppXmLJVaeM4XC5E0gwbPW60eM5mq7rcQ3LlYOtB4eeOCBBKRyO1UDhmJoVvMuRnwzYjU9c+211+oz357MeHNnPoWPMMsoLdLjJ9KFFDFDkLQIYCSxLAqMriz4yo5cDZ1A2YWo5wTSMrr6yEaon99QrVVGJ8sOESPi3qh3797qzrUc2m+//TL8ZEanTDQwunLQTI67QIsuEUf069dPrQXvueeebuTIkQ7Dpuuss47a1zr44IPrzPSJc8stt7hXXnlFrVg3b97ctWzZ0h177LEqV49HYL3n22+/jZyR62NXLE5Tp05V+11bbrmla9GihZNRo2NtidPg/+///s8ddNBBURTWTBBzQJMmTXLI9THf4sv0O3bsqOlEkYq4wb7YlClT3CmnnOLuv/9+FddgmRrR6GmnnZZlWXnevHmub9++bumll3a9evXKegs24ljP6NKli1t99dUdJoaGDx/uwABxK6fdg/HaYqH96quvVpxYv2nbtm1WOsU8yMzZDRkyxL3++utqcHb77bd3W2yxhZPOKFF0OXbsWF2Dsndg/R1xXRL9/PPPKlpCvPTpp59qkBVWWMFtt912Tkb6kd2/+qofxN9Dhw5122yzTV6MZMak+GLTj7JDWJa/6aab3OTJkx11ueaaazra/AEHHFDHAjj5BxefWFdeddVVfafonjbC+httmDaCGB38eecZZ5zhlllmGQ3riy6xdiBSCLVdxzdE+ptvvnmUZqkYYq2+f//+UTp9+vRRq+eRQwk3t956q5MZnNt1112jtD/66CN3xBFHRKk9/PDDUTkjx5Q3GKpFbI7xWjNaG0SXKcFLGWyBZnQs+u69994RVEsuuaRba621tDPAkYZMJ230ww8/uBNOOEE/aMJi8JOPe86cOQ5bYcOGDXPYRvOpc+fODgObfIAwpFxrdK+99pra8MJ4JVabucIISBs6//zzIyvaEyZMcFdeeaW6E5Ywyy+/fNTR4kFnXarRy5NOOsm9+eabypzo0Cmb2cCDKY0YMSLqHLGpRgfA++nwfGI9jDUNGCeMmLUvY4aEBw8j/5lOdqWVVjKv1FewOP744zVd0qNjpmM3OvDAA3Wtzp65whTpcCFjXrnW6GBwF110kYYFhxVXXFHTB38YEHbYoPqqH8rHwKCQoVkGKDAaBm7kk7YF7uSTAQdmdKw+ZSYR1YlmXv6wkcfAAzJMcq3RGfMiLHXMQMOvVwZstGXIwpKHeLvC3w9bKoYMKvfdd1+SUxo3blziANT801wvvPBCZeQwbfCXOYN+q2BsZG3cnku9BkZXKnIF4iVP9NK71rLo8rvvvotEEtKIMzJb04LLbCZylw8yAuOuu+5S9/bt22dmzZql7sKMMsL81F1melHY+I3MbDRMt27d4l76/Oqrr0bvlJG3uglzzMiMUN3JXxLVh2hMmLu+U2aRmZkzZ+prhaFnWrdure4TJ06MsiIjc3VD9BInyooYBjwhmcXpM+sP8+fPj9Y5CCezpYyJtp566ikNX+wfa2wm9hEGrNFlhq5uuBdafyMMvySSmauKl/CXQUAUhHw///zzGRnMRG7+TaXrhzohD8K0/NdE9+QTf+oKjGVwlrE4t912m7oRGFzMXZhKFD9+Q12R3jvvvBP3yrDujB8/6fTVn/fLDD9yt/aDp9WvHx7cZDan4YUx13kHDsVgyHdpeeKaC6fEF+VwtHZs7VIGPPoOytOhQwe9F0PBOWIX5yyMWdMLa3TF4VYo9AK9RuczOhEBZmFFp8iH4n98Ip5UNxnxZoU1JnXIIYdkufsPxTA6GZVGUWVGou/MlXYxnUCUaIEbY3Sk7VOPHj00L3yMRqUwOhsQ2EdNhwE988wzmj4bIEoh6+CmT5+eFV3E05puOYwOhmHp52JqWS/99aHS9WMbF4zZwmBws45WxJuaT5nBaQ5kx6I+i7hcBxN+Hm3gxiapXJSP0Vl8EQ9mRf/4448jrJIYHQNFn0aNGqXhc9VPMRjyTcPA7cdgsVwiv9S9LFdkROyrgwjwpO0bE3zkkUfKfY3Gt28iMLqKwBklEhidNGAaMaNfn2i4uIsqQORsMxoRzURu3PidICPaJErL6Bgh+sTMxDpY393ui+kELE6hqzE6NnH4xEyTvIwZMyZyLoXR3XnnnRqfAQPpMdOAbNOIPatjyj8byVNHcYJx8p5cHamFz4czYYxh0smJ+FZ32xXqSCtdPyIe1rLAHCARpeqzbYhgRyPlYGMDJCJHfcaNDtv/2Ywu3uY04q9/+RidzaDZhRgn+1aSGB07Fn2CWZO/XJ17pTH0353m3ga4IobPyBKC5pUZMYSkhbzDoCpBgdFVAsW6aQRGJ400SeyGOIoGzCwGQgTCMz/EVXGyDxtxThKlZXR0pnGy98bdea6PTsAYnazjZL1SFuW1/OUyOusYDWNTuWDETFlhIsXStGnTNG7SzPfpp59Wv3IZ3YwZMzLW6Vmd0HZg3CYqjee70vWDCJl3w9gYnPF+nml/DLKYnfFsHbGJEdkWf+aZZyb+8uGSj9GRB96VpNrCYAC/JEYXVy9AFE7YamV04Eb+bKBzxRVXRNVsokvabiUoMLpKoFg3jcDopAHTiOPEx2uNGz86FZ75sS7nk62L4JdrhL8gMjpjCvE1uvpgdLZelDRosTWVfB069Wn169dt0j0Mj5mVDQiIx/pjElWa0THIgqlRThNT2gAE5gZDIz9IGSCbdY0ePTopewXd8jE6Wz9OEjUbA24KjM4GD+BKufzv38pJXcSJPsP/xf2TngOjS0KlfLfA6KTx0oD9DxJYbeFcdlJGKNsoNb4wP13WhEiDDigX1RejM8XVpM4mV14KuVsHnmZG5w8A/LVF7sGEX0MwOhiAvc82Clk5r7nmGvWrFKOzdLlaO0maieNfH/Vja6UDBw7UcsHU6HCN8VB/RgwqwAURZymUj9HZ2lo8bRt08F7/uzKsip3RFYMhkhcYEz+WHXLNtIvBwtYiKY/syI2i2nePe9IA15TM8c8nHo4SlJvA6Hw0KncfGJ00Qhqiv27AiM3WL2RrdoS2dSwsvtPBG9GBkgby+1xUX4wOMSLvtjWaXO8vxr0YRke6iAvJgz+rsQ8W94ZgdOSDDRi8zza74AbTM7FyOYyODtPKQbpGtm6JiDCJ6qN+WMOknPys3v1Zh6g6RFkRXbYoLG0wTsxE8p16ko/REc/y4c9ojOHiVwlGVwyGtlZr+arErkvW5C09f8exrY+CfRIZdsQNjC4JoYZzC3p0nh5dmzZtVO8IXRZTfhUGGClomB4TDujDodwtDV+Vc3GTDkgVcbmHXnjhBVVA5x4lXZRq0SlCUdcIpV6Uwk2PjjxI52Xees13BqOsTTnZYKDh0HdDeX2xxRZzwnzcaqutlpVO2gfTo5MRu0OZ14jyyexID/hFid0IXTR0tqB99tlH9ZZkFGzedfToZKeaKsCDj8xOXNeuXTW/6E6hkI7ycLt27aL4aW9kpu06deqkwVGEXmWVVZxsKop0xuJ6dDIid7IrMUreyuC/e2c5xxD9uC+//FIVztEVQ0EcRXGU9YWha3wOEVh33XWjtOymPuqHgwTQz4Q4f3GvvfbSNigdq7pxlirt08jqjWdwQbeO9oiuJGkJk3Z77LGHBudABBT9pQvSZ3QM0XmjXdqBBOuvv77bfffd1R99TmFEer/bbrupHh1pGsmMso4eHfn0dd2s3nIpSReDYX3o0VEWEQE7WUvWQ5zBgvbAoQcQeKHbGCc7JxR32hC6lkkEXqQPkX/wNp1e3HbZZRc9kID7QKUhEBidMDoUWGE+MjqPUOT0iX/84x96SnnkKDcwQDoXU7jFj/h0FnEFbTqc+AkTflrcGzPhJIiTTz5ZGUX8ZA4YHQ3/sccei0fXZxgGJ6X4Cqwy+3Rbb711YvhCjrkYHXlFkdgUZy0dPk7yTMdpRFnIj2w4iToCUxiPMzpLr1xGx7vBgrqQkbxmBcVxTi0h33FGZ8q5luekK+WCecss3/Xs2TOrjISnXmDUfscdT6fS9SOiyojRmHL97NmzlRnxbgZUyy67bFY2ZEOOu/zyy7OUuQkA05YZfNRR+4O5rAS8Bw5ZELGcusAQ6ejvu+8+PeiADv+YY47RE3A4qJhDBKgD6EaxhMDJOHFGh1I/J/n4J49oBO8vLYaiXqD1ZVEZiGAJoFyinLQhWeuMkmLQykEO8e/eAqRldJSNAV8uEumS45sJVDoCgdH9yugYrTGaZfQI41puueXyosqIGNM7zBpKOcUjb+I16ElHAB4wBGY2iy66aKOVQsTKejwbJ4Awy11ooYUqlhfaCEdbcaoOHTj1zwy6VsjaLSf4kPdKMAErOwy4WbNmOhtk1sNgg1lPJfG3dzXWVUTYDkkA/YOd+NJYeQnvTY9AYHQeo0sPW22EpFNGdJeWEEltuummaYPXa7gnnnhCmUmal9DpIN6pNarl+jGsmQEye+ScRiObKSNRQLIQKCDQ2AgERteEGR1nbP7tb39L3cZkV6mKT1NHqMeArF364uF8ryp09mO+uI3pV8v1Y7jJTkpdg2UGxwyHGRwiSyjX+ZjqGf4CAg2IQGB0wuhYnLeNCA2Ifb2/CjELB/SmJcR8bLaoBpIjrVQMmiYviOH8zRdp4lRDmFquH8OPtb/rrrsua1DCxotTTz01GAI2kMK10RFYoBldo6MfMhAQaCIIyFFwOjBhBzFro4ECAtWEQGB01VQbIS8BgYBAQCAgUHEEAqOrOKQhwYBAQCAgEBCoJgQCo6um2gh5CQgEBAICAYGKIxAYXcUhDQkGBAICAYGAQDUhEBhdNdVGyEtAICAQEAgIVByBwOgqDmlIMCAQEAgIBASqCYHA6KqpNkJeAgIBgYBAQKDiCARGV3FIQ4IBgYBAQCAgUE0IBEZXTbUR8hIQCAgEBAICFUdggWZ0YpVaz3bkCClM6hRLmB3BvM7pp5+ux4gVGz+EbxgEzN4X9s6OOuqonC/FfAwHLYvh0JxhFjSPSrZxzAfdc8897uijj3ZmY7EW8cRKB8e3Yb1imWWWKbsImP6iL0qiVVddtY7JpaRwwS0/Ags0o6OxYgOLBovdrGLJ7E1V8vBaOtoLLrhADXvCQAOVj8CLL77ounfvXsceXTxl63yxm1cpwrArBx0fdthhNXn2YyXbeC57dIWwrhYMsZeI7T2z+8j36RsgLlSOXP77779/HTuBFva8887LMtRs7uFaHAKB0ZXB6DA2+e6776o1bGzYVYKwc4ZhS9LDRl6g8hFIy+gGDRrksKkGU6wUYZEdC9/9+/fXQVWl0m2odCrZxktldI2NIYaFaRMYiPWp0oyubdu2dc4JpS9o0aKF/9pwXwoCYjCzLBKxUOaTTz4pK43GiiwH0WZ23HHHzH777ddYWajzXrGQrHk65JBD6vgFh9IQGD9+vGJ66aWXlpZAGbEGDx6s737yySfLSKVpRBWTPorFAw88UFSBGhtDMRel+W7fvn2GehSJiz6PGTOmqHLkCkz/Qz8kEqZcQYJ7mQiEGd2vMzpMjfhiCcRYnTp1UovJ/gCCNbmxY8f6Tu7EE090yNKTCHHHqFGj3JQpU3S2sOKKK6oI69BDD80aqQ0YMMBhn4xT4F955RVNShp/lOQ666yj74kc5Aajl8OGDXOsQWHZG3NDiGIPOuigOladSRfbYYjlGKFuueWWulYyYsQIR55OOeUUP2n38ccfO2Y4G220kUO0Ih91FBczLF26dInWJZkxYa5l4sSJmicMoW644YZOPmC33XbbRem+9957bvjw4Zom4jzyfPDBB2s6V199teaL9RtGtqXSF1984YYMGaLiJaycb7/99m6LLbZwvXv3ThRdUpfUqdHvfvc7h7guiVhHefDBB/X36aefapAVVlhBy3jkkUc6Tu6HSO/222/X+0mTJqlYCvNHK6+8srrx17Fjx6z6jzzy3HzwwQdu6NChbptttsmLkTASFZdi04+yQ1hFv+mmm3RWgpXxNddcU0ViBxxwQJ22UmwbR+zP+htrTZtttpmKaRHv8c4zzjgjWsfyZ3S0R2EaaruuefPm2rY333zzqPSlYjh37lydPVtCffr0qfMNm1/aK9/LO++8o20Ja+l8q8x0Kz2j4xuizQaqPAKB0QljgBAVzpo1yy299NLaWeNGh3vaaadxGxH23eiUIevscq3RYYCyXbt2GpZ1QEQQMvvVeCeffLLD0KkRGyEwNEpnagZHYVxGMJdzzjnHHt306dOVEc+ZM0fXGMk/HyPUunVrxwduJIMhLcerr76qTnRGdEoQ8ZPEpDCl4447Thki64Zxsc2ZZ54ZGXWljJSVMtKBvv/++5ou6WOXDKYOwWR79eql94T95ptv9J4//xnms9JKK0V+aW9g/Mcff7ymS3oMPvx8H3jggXXEkjBFOlzI6jPXGh1M7qKLLtKw1A0DBNIHQxgQdQQxuLnyyiv1njxZHRkjxANmuskmm2iYtH+kxcCgkKFZBi0wGmwsks/XXntNcbe6xoyOtTEGI1Ynlo9i2rgxL+LCzBlo+PV69913q0FW/C0s7Q2ssX9o+cDfD1sqhjClfffdl+SUxo0b55ZYYgl7rMi1vhgd63EM/jBgSx2vttpqFclvSEQQKHNGmGkKokvEBtJxZ2R9JjN//vyMLH6rKAF3xJu5SJiThhMGkxhEZhHqLzPFLH9Z18tIB5nlZg9pRZfC9DRtxCjz5s3T6ML8MsLk1P2tt96yJDPScambzPQyM2fOVHdh6hlhtOqeJCaVGaj6gQH+fn5ltJ3hZ0T5fH8wlBlbFF8+Xg1qbuBGmGuvvVbDdOvWLSMMPmOiraeeesqSLup61VVXaXqkb2IgcKAM/AqJLi1c0kvB2ERMb775ZhSEfD///PMZmY1Hbv5NpcVu1CH5FKblvya6J5/40w7AmDZtcWStUN0IDC7mLkwlih+/ydfGhalF2Apj1ai8v2/fvpG7tTc8rX7Jn4UHN5GIaHhhzPHX63MxGNKurR7z4ZT4opSOl1xyib6j0qJLP9/ci0RF6y9ltkKwPAgERicNikZFZ2VknQXu/odq/nbN1wkQRmaDmnYxHXcaRmdhyF+8g7XOxO/ULZ/33nuvZV2vjzzyiOavEKPzmWZWAnke6GRJlzyKyE1DGqO75ZZb9FlG2+pPnqFnnnlGn+P5VM8Uf7yL33Rh+D7169dP3X1MfH+7t/j27F9hGOYfx9wPF78vppOOx016tvUhY7YwDNzEIrsGB2vyKbM0fbZBG4MamLJPd911l4al485F1naSBnMWX6QHWdFF7B1h5X8/1jZZ6/JJRPsaPlf9FIMh3wYM3H4iyvRfVZH7SjM6EXtnGKSxdiki0Yy1V+pRliYqkucFPZHA6H7tHGW3Y1ZbENGifnwihsty9x/ydQKEk7ULTYPRNbMXmCkjznxkTCyJ+Vg868z4QOLE6JwPBCZrRDjcjOGYu4gb1T3pXTajYxZTiBgYwLQYyTM653384rNLY3R33nmnJmkzTWYakG0asWd1TPlnI3neGScYJ+XP1ZFaeMLwy0XWAcE0ZG1TZ7WFOtJiOulc7/XdrU3BHCARpWqekR5AdJaUQdYI9VnE6vqMGwzG/9mMrkOHDho26S9fG7cZtIgc60S1uk9idHwLPsGsyR/vSqJKY5j0jmLcKs3okt5t9QguIo5NChLcikAgMDppSEmdOeI0Ghkdfi7K1wkQZ/bs2ZmBAwdGHQ3p8aODkHWMxGTTMDpG76Qj61910jAmSGdsZJ0OoiafTPSUj9HJphM/SuK9iWjJE1giBmZGYaI+2Vyj8YzRWccI4yeOqFGoP+F4hokUS9OmTdO4SWWRRX71K5fRzZgxI3PsscdqWuTTygvjNlFpPN+V7qRlbVXfC+bMmg1j6pgBh3XCNgs3MSIDD+ol6ZcPl3xt3Oo9aUepicWTGB2duE+yiUnLFBjdb6j4dWt1+ZtvuCsWgcDofu2c48BVgtFZmoi6EF8i4rEOEvl7EqVhdIiRSIdON058FPgxszKyTicu0pONABo2iTnYjA4c8pFsdNA06GhJzyfZcad+DcHojGknDVpkE4nmI1+HTr6tbvwyJN3D8JhZMQiwODDxJKo0o0P8CNaU0wY1t956q+aDurfZO6JWyGZdo0ePTspeQbd8jE5OkNH3JomajQEvyIwOZuX/CoIdC3DCCScovkkDiVjQ8FgAgcDoGoDR+XVgYho6Aj6COLFxg86TzizJn/DWqRPGOjRLx8R0iNmMevTooWmyJucTHxDvKofRWUdq62yWPpt4rLNrCEYHAzCmExcPi8Kx+lWK0VkZudq6k4+3728bbpKYgR+umHurT5MW0AbA2hiPPwtn9gwuiDhLoXyMztbW4mlb++S9lWB0xWDIJh1mtfzkWL+cM+1SsLA4NmsutBnFNoyBQz7xsKXrX/l++L6Jy+a1QOUhEBidNCQ6iThVYkbHTkTEST6xW5HGSyPORfjzQ0yVRDBAG7nL2YFRENaLWIMhLrMYI9uQQBxbiyQsHx9hy2F0opulaSAi84l1NitHQzA63o24lHfaZhfcYHrWYZTD6BBNJomxc5Wfd0N0huTJ1tB+cS3v38fW0rXOl3eJqkP0AtFli+ohab2ZWWG+Ax/yMTriWR3767/GcPGrBKMrBkNbq7V85dqdGgFUwo1hXYjRGXbkJRejAzc27/jEoM2YO21X1Ht873BfAgJBjy7HEWAc+YMitIzYVT8IXRT0yVAqF5xVNQX9K/SB2rRpEykDr7/++m733XdXfxR20YvhGaVYdIaIg56RjModyrpJJEzDPf744+rFQcTog6FzJJsHouAiKnPyIekz+mGEIW3039BTks4wUj4VZqv6ZejOoaODsjhK5qY3lk+PrlWrVnkPvOYINPmINR/yQWvaKEmTFyN0ylq2bBnp0ckgQsvywgsvKA5du3Z1wmxV/wy9RRTwTf/Q0khzRY8QJX8IbFdZZRUns9hIVyuuRyeiXCeDgChp9M4g/90777yz6sd9+eWXqnCOrhhK8CiKU07ZhKNxhLm6ddddV+/9P1k7dDL4UCfqEBwWW2wxLW+pelLUXefOnTXNc8891+21116qIG7tgQPKqTcj2gLHaEHggm4dSuOyc1PbAe1tjz32UP9i2zh1Kx2+xt1tt91Uj478Gfm6cTfKIegcGEA+fV03qzfa+oUXXmhRo2sxGNaXHh3lePjhhzVPIrpW3Ui+JXQpIdoddeuTnROKGzqW6FrGif4Ed3RbORQCHUeR+qheKmH9uonHDc/pEQiMLgej69mzp5PNEsrYUN6ETGE3H7ycTWeK3XQ48VNUiMsBv5wsQqNOIhmVOllTcbJoHynf8iHIKC8ruKz7qQIzisBGnJpB52cfoLnLxhh3xRVXaIdIeJjdMccc42AydHzWyVt4mCKnlBRidIT3FaktPgrxdFCcmFGI0XF6BorQKAmXw+h4N8yTzsEwQXFcZrKq5B9ndAwmCJuP6Kz22WcfHbDQJmAOPi255JKKod9x+/7ckydOSqEDMxKxo9t6663tsairiCqjwZQp11O/DLggMF922WWz0uTUjcsvvzxqT+YJ06YtltrGGfTRWXNSCN8H6dCuYGgcIsCpKdQBlIvRieRDT4rhVB/OBE2itBjKGrfWl6XBQKQSCuMcLBD/RuwdXJPOMk3D6B577DEdSFp7tTQZfPIt7LDDDuYUrmUgsEAzujJwSx2V2RRHITGL49QVZl6V+PAsA3Q0mA2BOa611loOk0P5iPDkiVmFMbOddtopOvEjX9x8fswEODYM5k0+Fl544XzB69VPRLuOUTd5YRbFsU2VIspJfXL4Nh04s0awrBViJkd7oZ2Q90q2RRhws2bNVOIB06XzRvJQSfxrBedi8kl7tW+YeMz0kRgEqhwCgdFVDsuqTgkmxCjRGJCsAzjZSOJE6dfJ7q5IvFYthXjiiSeUmaTJD2dr7rLLLmmCVlUYmCai1bSEWHzTTTdNG7xBwjGLY/a4+OKLR++zmTIzVmaugQICjY1AYHSNXQMN9H7WdGB2MAQOLkZkwiyTWQmHTheaCTZQNqPXsL7pn4MYeSTcIC5DfFZrJGon0XmhafIuaiJqKDhN2IYKwxo2P2ZwrFkxg0NkCeU6A1Y9w19AoAERCIyuAcFuzFfR6bBeAnMzYvGfdQA6qGojUYrXdbE0+YJJ+5sv0sSphjCyk9NxgHJaQgzLZphqItb+sPzhD0rYeMFh3qwrBwoIVAMCgdFVQy00YB5ErUB3jyLuC2snDQh8E38VZnfYYYyFhlybrJo4BKF4VYxAYHRVXDkhawGBgEBAICBQPgKB0ZWPYUghIBAQCAgEBKoYgcDoqrhyQtYCAgGBgEBAoHwEAqMrH8OQQkAgIBAQCAhUMQKB0VVx5YSsBQQCAgGBgED5CARGVz6GIYWAQEAgIBAQqGIEAqOr4soJWQsIBAQCAgGB8hEIjK58DEMKAYGAQEAgIFDFCARGV8WVUy1Zw6wK5zKKnbGisnTBBRfocVBiv6tBDqnl1H6xz6dWF/7yl78UlVcCF1NODnbm6DRM/djJ81hpaMyj1DCPw/mlnHhz1FFHJZafw4MvvvhiNRuDOaRAvyBQTN0Xwqzcdlgo/YbwF1uDTuwX6jmmG220kcNKRy1TYHRVVnswFBgEp5effvrpVZE7YxrPPfdcUfk57rjj1D6eb5OsqASKDJzLDEzaZNKWk9NlDj300Og4NcwccRoIR2H5hxvzXuzdcf4jppnq+0gs7CdiRzFujsgvvxj6dMeIGZ005pf8eIXuMWPDWarYWYybCCoUtxr809Z9mryW2g6rAUP6H8x80ZZ8ok/CNmPNkphtKYtkFJnXQnFZiS+AkcWellptTrL63VhwyCwhU8g6d1Lejj32WC2Lb2U6KVyl3ORwYX2f2PErKcm05ZTzKfU9Ysctg6X2fDR48GANK4Zo8wWriN/48eP1Xfnq6osvvshgIfuOO+6oyDstEbNsT/q1SGnrPk3ZSm2H1YCh2NLUNiQ2HDMyQI0snWMl/Y033khT/KoMg+2osigwurLgqxO5GhldnUymdKg1RpeyWBkxbaSdgVhMKBil2hhdwQyXGKAaOukSs17xaLXK6ESsre0apsa9Ue/evdWda61SEF3+OhfHuvW9997rEO1gPqV58+YOi8cHHXSQGky1KbtUtFrU5tT2KVOmqOFKRFIdO3ZUo6oWDntvffr0UX/p8NWMjFmYRkzSqVMnNVJp4QcMGKDv5XDcV155RZ2lwZm3W2eddVx8TQVR0aBBgxwy9P3339+NGTPGIV789ttvdQ0Gy9GI1YywWI7FZSx/YwR2k002cYgX11hjDQsSXbFcLSO46BnTPlhMzkWkjaVxjLliMw1RHRYT3nvvPVeu6JK6YT0MvDHuifV0MEd8+P/snQfYFEXSx9uc0xlQzyzmM2fUMyKKGI4PE+YzY0AxYeZExTOdnIoB8FQUxXDmdJxy5oQBA5hz1sNwgmJgv/qV1tg7zO47G96wvFXPszszPR3/3dPVXd3V1bFjxyRLscgIHGUWpWuE1CXYrbrqqolfu8lbTspFeaD33ntPT+vHmsBiiy1mUam1cgyZghsWxaGxY8eqiBOrA/PPP3/il/YS5z15kfNGZk4BURdtavrppw/rr79+WG211YJ0RpmiS9ZXaRdGtBnM/mQRRmXB+8EHH1Sr4RhTBUPaLdbajahXrExAjz76qF6xcE9bMULkRf4qIUxIYY+Q+i1nhZ01UdYcWV/jkHII7LGx+PLLL+szGGPyafXVV9fn+C9v3ROG9oQ5Ivu+iG+vvfYKw4YN0/Z42GGHJVFX0g6rxfCVV14JV199taZJO8QMV6107bXXhksuuUT7PbP0Tlvv2bNnEvU999wT5phjjuS5UW6c0UlN0WFcc801WmcYJ6UjpWNjk8F5550X1l13XX0H80J+zZoLRIduHxSLtTQSbKNBmGCBUULEiQVwmAuGKqEePXqoiRx9kD8+VkydkIaZPImZFKZPRKxg3vUKE4FR8dEhWx83blzR+2OOOSaxd0Y52KgBERfMnLyQb5jlcsstVxQWTGAU0EcffaTXUmt0dAD8IOI2i+rqIH+1MDpsm+2+++4aFbbz6LhYKCdPhx56aFFnbR0MePOeDsCwJIKsfOQtJ1ifdtppmg9wo22QH07rN2KNjs0oMGY6YaiUXwYNDDSqIeLcd999E3uCWK2P6z5rjY6OkDpnfRFTTeXW6OjkWFuEGFBgAdvaedwG+GbMcCz1BIF5bL2AOqnUArsZbqWDZbCWRQx4Nt98c22/5BVLHDDniy66SL0zsGAwYGapGABgMy+mvHXP4BZzVs8884wGBxP6B4h2QHsTUbA+81dJO6wWQ+qhb9++mibf3ODBg5P0q70588wzAxtp+vTpE7p3766W4jG3ZAN04uU7b2umonKVt9apaKOLLl944QWdlnfu3Lkgo9MEjp9++qkgo/KCfOCJm9hzU78yEi5IZ67uiBrlg1F31myMZASobogBhOEU5MMsSIdRkI8yccdPmioRXcoMJ4mLNT3p7JLokKfzg2SWmvgjDEReZJSv7vIRq1upP8rAL4tYk7H3YAkJky8I407ca1mjM7FJWkwoI9qi8pKufIRJmvJx4lSQzr0gszl1l05F3Ur9WTlKvTd36VA1vhtvvNGcSl6bQ3TJehJ5BWOwhqwd415ujU520mnYo446KjPP0oHre74HmdklfqRDLwhTS57TN/UUXcogRfMglu/TySTPfJeUVQae6ia7X/UZtzFjxqgb3xdro7hRHhlsJuHTN/jhl0W2JivSnYK1ZeKiHyBMej292nZYCYYy2E7Ku99++2Vlu2I32gTlGTVqlIYVCY0+Ux7S4F3cR1acQCsGaPdrdDIq0goUEUST1UBDp7JF/Ffklw+KD4l3xgBjRidincQ/DBR//OyjSV7KTbWMzphMHJfdy0xT06ODjEnsh5XNi/m1/NpzfLX1qn79+sXOhXfffTdX3EWBMh5gwqRvH1+Gl8TJOhg6jJiMMZVjAPgvV86s+FqL0Vk+6dxjkhmnlqFcOZtidMYw6cQroUo66TzxduvWTctig0ERMxZEDJqsHVm7s001bLABl6yy26Ar/d3G+TBMYze7t/CytGFOeoXxE64Uo6u0HVaCIQyH/ogffVg9yNKXpZPC+PHjtU+jHVAHxgTLDXbqkYfmiqPdMzoaKY2VjrkcMaK1j4HKp1HEP3tnI56Y0cUjY9IQkZvGRaeTpmoYHZ1COWLUS/4YmabJZjvlGKWVLR2WZxF7atwiFpzitTH/LIY+hecSDjaLJi4YNoOGUiNzY3T4i4nZHWWgwypH5coZhzPG2RqMjrKTT/BIEx0x77I6e/PbFKNjIGZMhkEGDAYpABKAcmSdZL12XRrTNimFDTJF/K7ZsPcmcWH2Z7jE3yX31g5FtFyyCOXqnh2IvEcyEpOIa9W9FKOrtB3WG8M4r3nubfOYqBYUTj/9dC2b9QsiztTncoOFPGm0lp92zehkPUwrj0Y8YcKEsnUQi0YQRZb6xWIT4s1iQjY6MjFinHA1jC4WmcZx2b2JHSxv5s7VmGC57e/lOgETLWZ9ACbaqYXRUS8DBw5M6snywuxU1l/ioiSiy7R6wUsvvaThpwZGJxuJtCzpzhUgZIOUvquF0REPgwljdoY3nXAsmcBfTPXupGFopM01lg7Y7MUYn834jJnxLZT6NrMGY1YGK6c9x1eLO83ETWyfrgsbcFXaDuuNYVyGPPfgBg42iDj//POTYNaHMNtrRGrXjI4Ks0bcVGdMp1ruY0hXvs3oWoLRlVpvsTxZA0bPKk0mGizXgMuVm4+B9+mPmnSss2wK23Sesp5Za0N8KTtZk3pgNhlTtR2MxVGunOaHa2vO6KxzzWpXtqZSK6OjjAwCmS0h0jepB/gg0sqienfSNvNEXGliyiuvvFLrnuUB8iIbJZKs2KyLtdtqqFzd24AtLSqWjU6aj6mF0Zn4FyxoXyxtGNm3nJ7V2vu2fm33jM7EiOVmNFaJxhRZLG+KqmV0tm5GWk2Ji2wzSlOMzpjR8OHDi7Idi6nKiW7LdQJs8OB9munIVnZ15109GF2ccRNF8vHFGLVFRmfro+n1nbg8ldzHUoi0CHfQoEGKeT0YXZwnMLbvBFFyFpnYK80MsvzmcbO1bJiInLaiszQTFdpmHOrbyCQT1a4hlWvjpM/7dNy20aVejK4SDPn2YUz80t+1YVLp1QYUlFV2dSbBY2lWUwckJIHa2E27Z3S2rsGoLT1apYJFVy2pMtulyNSeDzEmGoCtz+FeLaMjrH107IArR3kZnehDaZx8kPEoDXEjaSEGst17WelZfrLeWR5gzDA3I3ZJWrhaGB1rNGms2U1K3KQZU1tkdKLbqHlFxFsvsg1UokeVRAnTs4FYLYyOGaNtqEoilxtmT2BeimHbhg1bQ4vDVntvIn7StXhNZIlbLIUwsS3fMeL/mGDU+BUVnNi56J74+GWR7ZRm1mjr7XzvJs6rF6OrBMPm2HUZS60Q9xsNGDBAsYGpNiq1ez069NZQJkYPCb2orl276hWlanRKYj06FGnR7UE3B12SjTbaSJW+ZTYURKymenLoakGmR0ecMgouUvXgPELOkpOOOVMnRXYwBnSJIA7oRU8K/ST5yIviMT26cjpRBJDGqecbovuDbt6WW24ZhKmrgjnvZTQcttpqK26VhMEnelQ4oOsDmT4b95x7h/4OZOUhj1tvvbXqsKFAbpSlv2bvmrqi7CvMWXWmUFpGL05G0loHnKu43XbbJVH8Q3S2hg4dqjqJ22yzTeIuIjhV0AdLdIWMKi2nhRsxYoTqHorYV/UhzT3rSjsSsZ6+Ap+11lpL9cqkcwwLLbRQVpAm3aw8eKT8HTp0UH020xlM69E99thjQTYVaLzUO+16gQUW0HZgiYEzOoG0Y3TOOnXqpHp+6MA9++yzqhhOGJk9THGeJ3HcfvvtgUMPIBTzl1lmGVUURw9u2mmnVfdK/2h36LpBYM7BBuh8cg/JDKvoMAdrh3xz1D/nxaJPSfm5yoxFsSJsJXUvAy3VW+T7AQP0VjlAmzihUnp0wrg0H+pJ/qze0u3Q3leCYXPo0ZEPmS2rTiD6tegdfvHFF4nesAxeEz1hy3OjXNs9o6OiULYeMmSIKpzGFUdHLmtCeiqEucvIWZWBjRGZOx8XjAgFbqgcozvuuOP0JIlSDYc0+JhhFjBVCCVVEYPpvf3x4e0lpzM0xejwz6kYnFpvyu4WB4rLMPeYTGE3dkvfx+FQmkXJOI5bRtZBNr/oAKIWRnfuuecGTrBIEyev0ImmlZOzGB2DGE4iQYHfTnwgvkrLaXngBBoUwk2x1txLXeloOSklVryVDTZlT/0oFZe5EycDIrCHaH+cWoLCdJrRlcLQ4uIq647azumMZQQfREwYv9YODkZCO8wiBowy2wuyE7VISZ9BSXxSSlbYUm6ccsKhAAwQ7KSZp556SnHnYAa+n5j45mCOtIGY6LQZlFJfZl2i0rqXTVFBlgC0jYM5zI7DsXv37q2DRxsMkm6pAVepdmh5rQRD2RgU6EegeimMExeDYtqQDSZwg7nLLsyqDzggjtYmZ3RRDdDQOFIIpsAoeb755oveFt/yUXEEFydN4I/jnTidoa0THykzUI7xYSRa7Wg7q5wiMlJMmDXSudSLGFGLOE2ZPqfLMMPlqK32TiKS07qE2cMM6tn++AZEjKlHrtG2G6V90ybARcTlOhthVkdHXenpLKXaFoyA9kh8NtCEiTI4mJqI/o1ZL0ergV+jkzO6Rq/BBsk/x3bJOknu3HJ2I4ONqZmQJCB+y0uIAzl2rtFoaqh7BrXxwJBBMWI+xKGiw5eIpxutbtpLfp3RtZeabuVyymYBXQvMmw3ErGYjLG+YRvPH2ZPbb7997mwjDkaU12g0NdQ9Z4XC7DbZZBMVxXLwNMsKiIwR+5pItNHqpr3k1xlde6npVi4nYjDbEJEnK6wFTQ0ik3JlRTwkp9WU81L0DvFkIx6oOzXUPZYr2FRma+ZUDJtK2JA0tbfTokbYoA/O6Bq04jzbjoAj0PIIsCaPyJm1q3quibZ8SdpXis7o2ld9e2kdAUfAEWh3CDija3dV7gV2BBwBR6B9IeCMrn3Vt5fWEXAEHIF2h4AzunZX5V5gR8ARcATaFwLO6NpXfXtpHQFHwBFodwg4o2t3Ve4FdgQcAUegfSHgjK591beX1hFwBByBdoeAM7p2V+VeYEfAEXAE2hcCzujaV317aR0BR8ARaHeEcTxVAABAAElEQVQItGtGxxFMYlAyzDnnnEGMCjZZ+ZjNwRSJWAJWe11NBmijHrBlhTkVbJltvvnmbTSX5bN1xhlnqCkZ6o0T6rMIcymYejnyyCPVlEqWn/bmhnUOzhHFtAt2GGshDjbm7E3OecQUUCMSp5y88sorerQXh2Zj885PPGnEmmwiz7VajBUDhAU5nbzWaFolPFaCsSqM1eI8JOfdqX85cT6P9zbrR05c13KIEc02m8emMiaDDS1DOevlZrFZbKw1FV3u97QZMVRbENtkucO0JY+vv/664ob17lrphx9+0Li6detWUVRYpT/xxBNLWiuvKLIaPD/++OOaf7MuzlUYd0Fsz9UQqwdtiwi06xkdo7kttthCD2U1y+DlxgWDBw9WY49YYMb6bqMSBkBHjhypVsLXXXfdhiwGBm6xsF7OqCsWmxmtYxkdEyv1IKzMY0U9bVW6HnG3RBxYjMay/ZJLLhmwcl4LIRHBmC0n+HPgcV7CaCzW4TFULAw3b7C6+hNmq1bDiRQjvosvvrga+KVNrb322uFvf/tbXdPzyFoZgVq5r8/oakXQw1eDQJ4ZXTXxNhVGjMvqLECYRFNep/r31c7oxDq2YijizlbDSETemgexKZfkQQyNJjM8MaqauPtN4yPgM7pfZ3T9+vUL11xzja7pMLpj7YqRXiyvtxld37591TbVgw8+GL799tuw2mqrhf333z8stthiUwxbME1z3XXXBUaQEOsAjKTXWmutIr+scWDOpGfPnmHVVVdN3kkTU9P22MLCdlmnTp2Sd5XcjB8/Xg1FxmGYmZSa0X322WdhyJAhQQYyWkashjN6ZxQeY4K1ZbDD8je4xHTVVVcFEZWFXr161TSjYm30rrvuUovOGB6lXjCbkjWjY03u1ltvjbOha1FYJc+i9957LwwbNiyMGTMmfPXVV1oO6kjEcQHL0UZnn312wH6cdO6JAVkRddlrnSFVuubFjOiUU04Jc8011xTYJRHLjYhew9VXX6111b17d31FuwATbL3RtrC4jmkj2mFWWZmhYDXcaPnllw/Yt8si2uGll14annrqKY0XI7h8D8yeme1ss802Giye0V122WUq7UBaAGFL8MADDwwzzTSTPoOtWeHGWjzWuTFvA9ZGpLHlllvaY3K9++67A+vK0MYbb1yzNGXSpEnJ2jRtdOmll9a4zzzzzEBa0J577qkGVfXB/xoeAWd0wuiMZp11Vu2w6FigHXbYIRx99NH2OhijMwdsg/EBwxQIS+cLQzD697//rUyAZ2yJTTfddLqBgmdEN2wGMRo9erTatkIMBMOl84OwYEwnxeaBQYMGhRlmmMGCVHQlj2a0kzxPnDgxHHLIIWHXXXedIh4Z2WonhR/yg5jOMOncuXM49dRTkzBxZ5cWX4HdE088oaKyau2oIWbjB4EBnWRsEywtusS+20UXXaT+P/roI71SLyuuuKLex38wLTp7qz/iBxs6YQYUMDcjWe8L77//fmADBlcormvCyrqTec993WmnnQL5pINlU1QW0RnT9qzNkAdZJwwPP/yweof5W/3QDi+55JKk87b4MBwKo8bMDPitt956mRtIYHKIhc2oKExz3Lhx2r5pD/E3YXVPGrQRsGPAA55Qjx49tE1zD5Nl4xd5Jx7DPLblBhM3Rk4YI+oT46ZQPRgQFs8ZLIHVfffdpwO3Z599VvNnaWJrDsbnNJUgUOukdGoQXbIILR9hgY0G0BtvvFGQDl3FGIgzjGwzCv5ZyIYmT55ckJGq+pWZjXktyPpfgUV6/AoDSNwfeOABdSN+mQ0m7twMHTpU30mHpvGyaE94/EpnWOS3loemNqOwUYB0ZWdjQWZsmhQ4GCYyS02SLye+YsMD8VCOakg6XQ1PHJamdK4F22SCey2bUWTmp/H36dNH8bY8EifitSyqt+jS2s7TTz+dlZy6HXPMMZpP2iVEe6LswqQLwvjVjXzJLEzdZQatbll/TW1GQZRH3LRB6hYSRqduuJ9zzjlJtFb3uJNHmSkpjsI8Ev8WRxJIbioVXV544YVJfDJzjKOq6v6ll17S+MAP4ltFFE37ZqMZ5TnggAOqitsDtU0EQq3ZmloYnXWkhofMorTBw3yMjNHRMcYkC/zJh2jM0j7m3XbbLfaq93REfEyyIaToHUyFXV+8u/LKK7Uj415EpEX+an0ox+isIyddmQEUJSUzK81bVmeXtfOuVkZn+YwHEGTo3XffTfCuhdGJOFDjoa7zkuFTrzU6ET9qHmTWplmgLTHAEPUPfWYgZQMMG3SwSzir/cBUzK8xwHS5yjE60iJefgxsYpLZjbpn1T3+44EB+bR4surHvo28a3SiJqI7oym3SDvibFV1L2JQzZ8xMxtgwqBlZqzvSMtp6kHAGd2vH7Z1Ila1NvM67bTTzKlgjM46peSF3NDx8XGLWEudrZOOF7vNv31YdLRpYhZjnRXxDRw4MO2l5mfLW5Z6AbMG0s1i0CJe1XdHHHFEkgcb1TcHo7ORvIgnk/TsxjDK6kjNj8386LyyKGaYMBcGHk2pytSb0VkemEFBNqOgfCLmS5g6MyZIxH5aB9QRMxIR5RX9cOf35JNPqv/0XzlGJ6JHDUvaaZIdrPquFKOT3ahFQWzARnppqpTRpcPX+mzp77fffsrQwcvULWy2V6+BTK159fD1QcAZnTTyrA+bjoIPAJGmkTE6URo3p+TK6BD/shlC3RCx8JzFFI3RlNLFMhEU4WF89SZLP4vRZZXb0jcmaCIf3JuT0Ykah2KYnvmSLnkAn1oYHfHcdNNNRQML4pRNNSq+5n2a6s3obMZGG+SegRV54IfIl7JzLxtmNCvMtOw9zK/UTzbXpLOuz+UY3VtvvaVxZ3XyNvDLYnSVDnKM0eSd0WUWpAbHsWPHajmZtZl0xZYGZE1Z38nGohpS8KBtDQFndL92KnQyMcmmBm3wdLZGxuhkF6U5JVdmQHRAti0ZPzzLxoDEj93QafFOdjWaU3I1ZmKdma3XJR7qcFOO0Znohu37aUK8S77iTqAcozMVgGrX6BgIkJ7sukxnJVn/rJXRETHiZtbImH3DcEiTmVIW1ZvRkYbNPJndkT7tgivthBk9+bEBlGwS0WfcqqFyjA5RNfGSdpqoA95NDYxOTodJMKRMI0aMSIpr5eRQAKepBwFndNLQaexpkZUxI9npmNS2MTrWK2JiMZs4+NERQjYCNpFI7J81J/zGm1R4z+YUE4EiwoKh4C9r5hXHV+l9OUZnG0Do7NhcEBMzWfITi3PjdR3ZWZd45x6//KpldKzHEB4RZkxx3PVgdOm4KTvpwnjSRB3xDj/pwVHab95nOlriNKbGjIM2wmwD8RrvbO2XOC1/NgvJmw7+yjG6uC7Tcdugox6Mzk4kSa+9liqH7F4uoPfGj9lgrcSGJsMQfONlC/s2s5YVak3Xw7ceAs7opBOhI4k7U9ZBjOHEu+GM0eFftkcntWYMwBa3ecF7/PGz3XK4iz5c4m7rebhD9pGxEw+is7EPMr1ZRj1U+VeO0dHZ2ez0lltuSVKgo2WWQ3nYQBGTYSXb3RNnE7nhv1pGRzjCg0HMRBEH486vFkaHGDC985Vnw5z3WWRp2+w9y08lbjaLtrKyNhfvXIzbFfHaRikGHHEnzTvqqdT6HO/LMTremyI1a5bGyGmzhkk9GF1cr+n8k4c02Vot+NRj1yXxX3zxxdp+4h2377zzTtKumPU5TT0ITENRatGUkMVbPVS3Xkcs1ZKXSsPaEWAWTj5m1T+S2ZgqI6MbJcwtUZCO9ejQ/0EPDt0hWefRKFD6Rj/JSD7QIKN11ddBpwg9OpSZ0VHq2rVrOOGEE8xr4Lgq9LbQt5NdZmHmmWfWdygEozOV1q9LAua84RBn9Kgg9KKeeeaZsPrqqwd0sCB0itBRgtDPEnGa3qM3hS6VYUI9ywwzTD/99PqeP5SL0f2DKBfKy8JM9Zk/9OCq1aMzXTxwQcFdmH9Agdwo1qOjPoUJMnjT1+QZ/xzXNv/886sbCsooJkPoJ5JP4l1qqaVUMZ5DAKTDC7SFWF9QA/z6JwOSgI4khL4V+JA/WfP51Udll1gfzdoFbWTbbbfViDjCLFZG5xgyDhbAD7ii2I5itsxAw6hRo1SXDVyMOHJLBkr6yMEB6OzRfmPlbPQp0d3kYAL06NB1I24OT5BZlD4TQZYeXdYRYFZvWXUv4u5Ef5GwKKSjf4fuYvogBdKstx4dccblXHPNNVV/9v7778/8NvHv1NgIOKP79WQUTh2BkRnR+GXEnChu426MjtMnRLSYKA7zjhMu4o4DN5Rj+dDpfGNCWZWOy5S/6VjpzCBRKwgdO3aMvatiLwySDs1OlyjykOPBFJNLeU13VnSYpEWHZ8SpGDDdeeed15z0KrMtZdqcLmKEcjqnZNBJUn47fcLe572Sfv/+/RPlaMLJRhQ9yQSGHTM6lJCzFI7jtGBqptiNgjsDGRhGTDJzCLLJI8w333yxc3LP4IYBDAzXwnIqCYra1dJhhx2meJ1++ulhk0020Wg4WURmezoASp+IQx4uuOCChOFautQjDBdmZcQALH1ajL2zKwrZiyyyiD7SHs877zzNDwMgBm+kT95oRyh+Q8ag022Hd8cdd1zZuhcph2JPHRqG5DnON/FAzcHoiJeDARjQMRgygpFj7YJBqdPUg0C7ZnTpamRGIOIqHaHz8TZFnLBAGE7IKPdh0CFw1BTEyH/GGWdsKuo28Z6ZEWZd6FQZ2WOOpRSZXxH96ewonvGVClOJu6x96igcrOl860XkW9YldbZLHXbo0KFocFOvdJorHtoWsxMRWSpjZuYaH9FWS7oiVgzTTjut/hhQyDpd6N27d82HQdeSp+YIy0HXSDs46LpRvs3mwGFqjtMZXYPVLiIo2QaeK9d0eJxLWG+mkyvxlCcGBbLemXIt/Yg4C6bTaNSo9WM4w/gZlDGwMRKzNYEZJ2eLcgzdKqusYq/86gg0BALO6Bqimn7LpK0r/eZS/o6Df+3czPI+m/etrTXmTQXjoBwM3GjUqPVjOLN+ttlmm+n63BprrKFnVN5zzz36On3+p4XxqyPQ1hFwRtfWayiVP0bVdqhw6lXmI5slbC0w00MLOSIetA0ReZJkzSs+8DdPmLbgp1Hrx7BjXZn1NQ7jNkJUzLqf6EUmm6TsnV8dgUZAwBldI9SS59ERaGEEEGGy3grNMcccLZy6J+cI1BcBZ3T1xdNjcwQcAUfAEWhjCDija2MV4tlxBBwBR8ARqC8Czujqi6fH5gg4Ao6AI9DGEHBG18YqxLPjCDgCjoAjUF8EamZ09c2Ox+YIOAKOgCPgCNQXAWd09cXTY3MEHAFHwBFoYwg4o2tjFeLZcQQcAUfAEagvAs7o6ounx+YIOAKOgCPQxhCoC6ObMLEQVur8v9Bh/mnCogtNG3boMkPYfYfGOLi4jdWHZ8cRcAQcAUegzgjUhdFN+iGE48/+Lnz82eQw8uGfNIsjLp4tbN7pN5tldc63R+cIOAKOgCPgCORCoC6MLk7poqsmhX4XfB8O32emcMrhvxgPjd/7vSPgCDgCjoAj0JII1J3RMaPb9fAJYaduM4ZB/WdpybJ4Wo6AI+AIOAKOwBQI1J3RPfTUT6H7gRPC/209Q7jszPoZyJwi5+7gCDgCjoAj4AjkQKDZGN2fZEPK4LOc0eWoA/fiCDgCjoAj0IwI1J3RPfHcz6Hbn78NKy0zXXjwhtmbMesetSPgCDgCjoAj0DQCdWd0H306Oayy1f805WfunCMs/vtpm86F+3AEHAFHwBFwBJoJgbozOvI58B+TQv+/fx9mn3WasP2WM4R555kmHLbXTGGeuaZppmJ4tI6AI+AIOAKOQDYCzcLoPvm8EIaOmBT+NnRSkuojN80Rll/aZ3cJIH7jCDgCjoAj0CII1J3RfS+8bbWu34Qvxhd05+Whe84UVl5+uhYpjCfiCDgCjoAj4AikEag7oxsz7uewec9vNZ33H58rzOI642nM/dkRcAQcAUegBRGoO6MzPbouf5w+XDtwthYsiiflCDgCjoAj4AhMiUCzMTpXGJ8SbHdxBBwBR8ARaHkE6s7o/vXQT6Fnbz8ZpeWr0lN0BBwBR8ARyEKg7oxuwKDvw3mDJ4XecqjzyX6ocxbm7uYIOAKOgCPQggjUhdF9930Iex01IXz4yeTw6luTNft3DJ0trL+Gm+lpwbr0pBwBR8ARcAQyEKgLo8MeHcd+zT7bNGGRBacNPbrOEDZe15lcBt7u5Ag4Ao6AI9DCCNSF0bVwnj05R8ARcAQcAUcgNwLO6HJD5R4dAUfAEXAEGhEBZ3SNWGueZ0fAEXAEHIHcCDijyw2Ve3QEHAFHwBFoRASc0TVirXmeHQFHwBFwBHIj4IwuN1Tu0RFwBBwBR6AREXBG14i15nl2BBwBR8ARyI2AM7rcULlHR8ARcAQcgUZEwBldI9aa59kRcAQcAUcgNwLO6HJD5R4dAUfAEXAEGhEBZ3SNWGueZ0fAEXAEHIHcCDijyw2Ve3QEHAFHwBFoRASc0TVirXmeHQFHwBFwBHIj4IwuN1Tu0RFwBBwBR6AREXBG14i15nl2BBwBR8ARyI2AM7rcULlHR8ARcAQcgUZEwBldI9aa59kRcAQcAUcgNwLO6HJD5R4dAUfAEXAEGhEBZ3SNWGueZ0fAEXAEHIHcCDijyw2Ve3QEHAFHwBFoRASc0TVirXmeHQFHwBFwBHIj4IwuN1Tu0RFwBBwBR6AREXBG14i15nl2BBwBR8ARyI2AM7rcULlHR8ARcAQcgUZEwBldI9aa59kRcAQcAUcgNwLO6HJD5R4dAUfAEXAEGhEBZ3SNWGueZ0fAEXAEHIHcCDijyw2Ve3QEHAFHwBFoRASc0TVirXmeHQFHwBFwBHIj4IwuN1Tu0RFwBBwBR6AREXBG14i15nl2BBwBR8ARyI2AM7rcULlHR8ARcAQcgUZEwBldI9aa59kRcAQcAUcgNwLO6HJD5R4dAUfAEXAEGhEBZ3SNWGueZ0fAEXAEHIHcCDijyw2Ve3QEHAFHwBFoRASc0TVirXmeHQFHwBFwBHIj4IwuN1Tu0RFwBBwBR6AREXBG14i15nl2BBwBR8ARyI2AM7rcULlHR8ARcAQcgUZEwBldI9ZaRp4fHf1TuPTaH8Jb7/0cPvykEK67cNaw/hrTZ/h0J0fAEXAE2hcCDcfoHnnkkXDjjTeG7bbbLmy++eY11dbPP/8cDj300DDbbLOFc889t6a4WjPwx59NDit3+Z9mYd3Vpg/LLDFt6LXnTGHZJadtzWx52o6AI+AItAkEGo7R/fOf/wznn39+OOSQQ8Kuu+5aE4g//vhj2HTTTcM888wT7rjjjtxxvfbaa+Hqq68O66yzjjLc3AGbyeMd9/8Y9jl6Yujyx+nDtQNna6ZUPFpHwBFwBBoTgYZjdM8991wYOXJk2HjjjcO6665bE+rVMrrHHnssHHvsseFPf/pTOOqoo2rKQz0CX3HDD+HYAd+Fo/efKfTtNXM9ovQ4HAFHwBGYahBoOEZXT+SnFkY3dMQP4bizvgvHC5M7SpidkyPgCDgCjsBvCNTM6I4//vgw11xzhb59+/4Wa+ru5ZdfVlEfM7Du3bvr2++//z5cc8014ZlnngkffPBBmH/++VUUuPfee4eZZy6elYwfPz78/e9/L4p16623Ljmj+/zzz8Oll14annrqqTDLLLOE9ddfX9fzEHuuvfbaYZttttG4YkZ32WWXhauuuiowY4Q23HDDcOCBB4aZZvqFcXz11VdhwIAB+u6TTz4Jb775ZlhggQXCMssso278sWa45ZZbJs/cjB49Olx//fXh1VdfDZMmTQrzzjtvWHnllcNOO+0UOnbsWOS32gdndNUi5+EcAUegPSBQM6Ojw/7oo4/C3XffHeacc85MzGAggwcPVnEfm0hgRIcffnh4//33w6yzzhoWX3zxMG7cOA27xBJLhCFDhhQxu88++0w3jeABhjNx4sSSa3TE/ec//zl8+eWXuva24IILatykQ7gddtghHH300ZqWMToeFl54YY179tlnD6QH9ejRIxxxxBF6//XXX2ue2cBCPPghTpidEUzcGDlu77zzTth99931NeuAMLYPP/xQ8WITzC677GJBa7r2/et3Ycj1P4STD5859N7HZ3Q1gemBHQFHYOpDoFAjySynsMEGGxSefvrpkjEdc8wx6ueNN95QP6eddpo+n3TSSYXvvvtO3YQBFMzf0KFDS8Z18803a9jhw4dn+pGZn76XNbTCDz/8oH6Eiaob+TznnHOScLzHjR9py4yrMHny5MJ9992XuFscSSC5efTRR/W97NSMnae4P/nkk9WfMPqid6+88kqBPNWDfvixUFi5yzeFeVf7qnDbyF/KW494PQ5HwBFwBKYWBEKtBbnrrruKOvMvvviicMYZZxREBUCjhnF07txZ/fz000+Fjz/+WO9hLtzH9Prrr+s72eQROxfdl2N0pGWM6+233y4Kd+aZZ+q7UowO5mVEPi2eTz/91JyTa15GJ7NBjWfUqFFJ2HrdnHnxd4VjzpxYWGf7X5hc734ThbHXK3aPxxFwBByBqQeBmkWX7733XujZs2cQxhD++te/BpkNhf79+6tY795779X1N9536tQpnH322bpu1qdPH50aL7300lNMkVn7gthZyfpamsqpFyBeZP0NkeK//vWvoqCoD5C/UqJL8orY0uiwww7T9borr7xyirW0vLsu77zzznDWWWdpfhBprrLKKmGllVbSNU1Lp9rrEht8E76dWNDgnTeaXjahzBzWWnm6aqPzcI6AI+AITLUI1MzohOeHLl26KEAwudNPP12ZHQ5XXHFFgBH269cvHHTQQbpedfvttyvDY81qhRVWKAmsiP3CHHPMMcX7coxOZnFhjz320PW2G264oSiszKoCcWYxuiw9OtbxnnjiCS3DsssuWxRXXkbHWh7rjem87LzzzprPueeeuyjeSh8+/GRyuPa2H8PZl36vQR/75xyuJF4piO7fEXAEpn4E6jE5lZ2XKqJ79913VUwpnbtehw0bVhg4cKC+e/755zWphx56SJ9ZQ6uGyoku//vf/2rciErTJLMrfZcluuzWrVvae0H049S/7Jac4l1e0aUFJF+IL0899VSNE7HohRdeaK9rvm6zz7e6RnfljZNqjssjcAQcAUdgakOg5jU6ABkxYoR24MbUxo4dW5BZXKFXr16F/fbbT9/ZphM2pNDR77jjjgXZwVgxnuUYXbxGJztBi+KW01Q03Xowuscff1zjooyVkqgvaFiYK/mtB1145ffK6M69/Pt6ROdxOAKOgCMwVSFQF0YnenLaecPAmE3BwOKdiwcccEACGhs99txzT/V/yy23JO52w2YW4itF5RgdYWQdTuNmQ4wxEtHTSzbE1IPRMcuzslKeUsTOyvR7ZrYWtlS4St2HXD/JGV2loLl/R8ARaDcI1LxGh3A31kfr2rVrOOGEE1SPbdttt1XZL7pkrNEZvfjii+Hggw/WR+n0dZMGcXCGpIg29fxIjtgy4hBnEf/pI/p2KJmvvvrqurEDRzafCPPU9yifo0fH+hhra+joiahRn/FQjzU6UTlQHTh06VjfQyGdjSxsuFlrrbU0H/xxFue3336riuSLLLKI6g0+8MADig3lQ6ewHnT1P38Iffp/F47cd6Zw4qHFyvb1iN/jcAQcAUegkRGoC6MDANulyGaUTTbZRDHhZBFORWG3JUwgJhFh6i5IGFdMMCeYlsXBO1NKj/3F9+nNJChqn3feebprEia43nrrafrkjbhQVoeMQafD8+64445TBomye9buUPJ/+eWXqzI6yukQDJafERYRbr31VntMrmxGEbFumG66+uySHPnwT2HXwyeEjdaZPtx0yWxhOjdakGDtN46AI+AI1I3RVQvlhAkTVAVhmmmmCR06dKjL1nvLi4gNw7TTTqs/263Zu3fvIOuD5qXZr+SBI8Nghsz6OKklS22ilox8+XUhrN71f6pusHCHacPSi08bTj965rDSMvVhpLXkzcM6Ao6AI9DaCLQ6o6s3ACJ0VpUGRJZGMFNmnIhGBw0apKJSeze1XMe+/nMYJiLMdz6cHD79ohDOPWGWsMYfnNFNLfXr5XAEHIHqEZjqGB3rZ5tttpmuz62xxhoBJfJ77rlHETKl9erh8pCOgCPgCDgCjYbAVMfoOHSZ9TWUvY1Yp8N23D777FN0WLS996sj4Ag4Ao7A1IvAVMforKoQYbLjEco6YcX8+dURcAQcAUdg6kZgqmV0U3e1eekcAUfAEXAE8iLgjC4vUu7PEXAEHAFHoCERcEbXkNXmmXYEHAFHwBHIi0DNjO6ll14Kv/vd79RiQN5E3Z8j4Ag4Ao6AI9BSCDijaymkPR1HwBFwBByBVkHAGV2rwO6JOgKOgCPgCLQUAs7oWgppT8cRcAQcAUegVRBwRtcqsHuijoAj4Ag4Ai2FgDO6lkLa03EEciLwyCOPBExTYcZp8803zxmq5b39KGfIjjyqtya8wfEnhbkWXyLEbhuedGqYc5FFWz5jkuL/Pvwg/CzHAc4y77xhpjnnyszDhE8/CV+MGxu+/fjjMOMcc4S5l1wqzL/SHzL94vjD//4XPnn+WYn7wzDDbLOGeZbqWNZ/yYjKvPhRzIu9cNUVms53v5omA9uF1ly7TKjmefXOA/8OYyQvK+3cM3Ts2q15EikR6yOn/yV888H7YYUeO4Ult9hSfT18er/wPzHDtuLOu4YlNq3su3BGVwJod3YEWgsBs7RxyCGHqE3D1spHU+nSEf+j05rqbcd/3iGd/sph4hdfhCs3+MUm447/vLMujOC1228Jb//7X2GVvfcNC63xm73HrPx98Ngj4ZlLLgofPvXLEYAbnfyXsPLuexV5/en778M9vfYP7z/6cJE7D79fZ72w2V/PC3Ms/Puid2/9695wf9+jlJHHLxbdYKOw5QUXlWSmsd889+Tr7ftHqte5l1gyTDP99GHT088KC67+C8554qiXnxevvTo8fNopodOxJ4TV9j2gXtHmiue6bTqHL994PWxwwilh1b1+MX02vMum4at33g4bitsqv7rlikw8OaPLi5T7cwRaCIHnnnsujBw5Mmy88cZh3XXXbaFUK0+mpRjd4+cMCM8NuSx0GXhxWHqrbTIz+v1XX4Y799s7fPbimKL3WYxu0jffhKFrr6KzvWW33SHMs3TH8MXYl8OrwlCZkS6w8qqh+3U3hWlnmEHj+vrdd8K1W26i90t17hKW6badzjZeHHZV+PaTj8Oy224ftjh3YFG61Tx8/+X4cMV6a2jQvR5+Msy2QIdqoqlbGAYLr995e6DMi220cd3izRNRvRldqNWWulgLL3z44Ye1RuPhHQFHoMEQkNlb4eJlF9ffZy+9oLmf8PnnkduLdSnRY2efqXG+cc+dJeOTkb76uX7bLgX8yexLn18YduUUYUSkWRh3840FmdkVvaMMVp6Pnx2dvHvh6n+o+xXrr1GY/PPPifub992T+P/5p58S92pvPh83VuO7fZ/dq41iqgk3vOsWisXzVw5NyiSDDXUbE7klL5u48RmdDC9Gjx4drr/++vDqq6+GSZMmhXlFrr/yyiurNfKOHTsWDUAEz3DXXXeF//znP+ofI6r43X///dWoqnnGisKpp56qRlaxmoClckbq0IYbbhiwvj7TTDOZd70Shrj5ffTRR+qGMj6j+t12220Ko7SfffZZGDJkSJDBhh5gvcQSS4RNN91ULTVgyDZN5GHs2LEBkdibb74Z7r///jBmzBg1CLvNNtuE3XffPR2kyedKyzl+/Hg1m4R1iXfEEjy0yCKLqI1ALMvPNtts6sbfRRddFCjjQgstFO6+++5A+Y455hjF8uGHHw7LLbecYjzffPMlYfLWTxIg5w24gR91Mb2Ik6ijt99+W/O9yy67hLXWKhapgS+zsmeeeSa8++67ivFSSy2llu6xpJGuH3D5+9//XpSbrbfeuuyM7uSTTw4Y9u3fv7+u6T322GPaJrHFuPfee4cNNtigKD7wtHbF+2WXXbbofaUPlc7oEGu+eutN4b0H/xPGv/m6Jjf34kuGBUUcuebBh4YZxTCx0UdPPRmev2KwPn76wnOBtFg/m22BBc1LWOeIo8J8y6+gz8zoPn3+ubD4xpuKnGqa8J9TTghjRwwPWTO6JIKMGxOPbTbg3LB89x7q4/mhlwdhtjqbZFZpxBrfVX9cTx/3f/ZlWbf7re2an6auwjjDyCMPlfXEH8Okr78KwmB1ptlhldWToGv2Oix0WGVVfX79rjvCW/fdHVbZc5+w0FrrJH6+evut8OTfzgnzr7xKWGP/gxN3bhDnPv+PIeHzl18MiG1nm38BwXxNEf/tm+BnAaijR8/8iz3qdbk/9Sg5o/v244/CU38/P3zy7DNh0v++Cb9bepmw1FZdw8o999B6sIj+++orkr9zw+/XXS/MK3X2kohFKevM8/xORct/2LW476n3jK7dMzo6W+vg55lnngBjkxmqdgiHHnpooBMzolM/6aSTAp0stNJKK4WXX35Z7zEFdMkll4Sll15an3/88UdlOjwsvPDC4auvvtLOjo4b6tGjRzjiiCP03v7oPAcMGKCPdOow3HHjxoWJskA9ePDgsMIKv3zUeKCThVnyjnyThuWlc+fOygAsXrsef/zxmveePXuG4cOHqzP5Jg6u//rXv8xr7mul5QQ78gGB1Ywzzqhl5HnRRRcNF198sZ60w/Nee+2lDJl7yyf3kD3DNI466ih1q6R+NEAFfzCRY489NkkXvMm7MWvqbaONNkpivPDCC8OIESPU/5JLLqkW5o3J/PGPfwxnnHFGEbOjXdDeINoKddLUGh0DJog2ykANMlywyXjaaaepm/3FeJ5//vlhnXV+6yjNTyXXShkd62z3HHKAJjHvcsuH6WacKRE1sh61w7U3hFnnm1/f0zk/fMYvHS6dKSJFNpbQMRptduY5ocOqq9lj0bVaRseaI+X60/Abkw0gX775Rriu6xbKyPZ9akyYVgY60Ku3/TPcf2yfsNgfNwndBl+pbpX+TZZ+YsQOXTUYokvShubpuIxe+dv41NPDwuv8IsIeffFAYSx/C5R9+f/bMfEDk7955z+pmHGriy5L3C3vOIDffMuvGL5+793wzfvvhQ36nhRW3We/xC83YH3rHr/0ed+N/6/iXmqNbvzrr2maVjdzLrqYDjaIJy3O/fDJx8Nte+4aZl9wIRX3coUxEhba6u+XhKW6bK33/NWb0bV70aWMigsy8i3IaL1o8vvKK68UhMkUud1xxx3qVzqWwieffKLvvvnmm8Kll16q7r169Ur8iwFYdSNumYUUZKZYmDx5cuG+++5L3PFjJCPzQrdu3fSdzLLMuSCdd+HRRx8t/Pe//03cuDnxxBPVr3SYBcJCwvwKwuTU/YUXfhEl6Ytf//r27ZukTZ6/++47fSPmjAo33HBD7DX3faXlFGZcuPXWWwti9T1JQzr2wuGHH655u+KKKxJ3meGpm8y0C2JAN8k7ZSM82FIXRpXUj4XJe6UOSI/f0KG/iVNuv/32JB/UlRH1LLsnk7rB/YMPPkjq59lnnzWvU1xvvvlmjVMGI1O8ix0sP1xl9qhthfcsJfCcJsMT/08++WT6dcXPiOs+feF5/f048Zf6/PnHH6dws4g/ef65wkvXXVv4Qdqb0Xdfji/cuueuKpJ6+qILzLnomkd0WRRAHkadfLzGmSW6TPu1Z9kEomEuX33Fwo/fTTRnvT546on6DtHo6EsuKjxwwrEF/CHO/Ojp2rEkkU9fHKNp3H3wfkVpxw9ghHh13E3F3+snzz2r7jKQiL0X7ut9iLqT55gQ05JeOXrhmqs0rKyPZnq797CD9D1iYhPdCvNTXMjjR888nYT74InH1C/uowddqO5g/HD/fup+x5/3SPxy88Wr47QdTfjs08T9i1emdEteNnHT7hmdzKq0Uxk1alQTUBUKMntQv+lOhM7eGIwxwJgB0EkawZSsg/r0098qEUZo7mmmZmHtCnMt5RdGwbtzzjnHvCdXY3SUuV5UaTlLpQum5FtmzIkX65iNgRj+pAmJOFdxtwD2Pk/9WJi8V2N01DN1ZcTgZccdd9S8y7mv5lzySr1QTtlZWdJPpYzu6quvLhlX/KJPnz7ahsFJxOjxq1a9f+3O27Wzu/fw3waKcYZagtFNlIEkjIuO+M1/3Rsnr/ffy0DrrgP3TTpr/PGj860XNQejY71Py3Tv3RVnsxyj+/7rrxIsJnz+WVHcxoz/c+oJiXvM6ETMnLhbmYdtvlHi1hw30xBpMl+s4qbRD3W+8847w1lnnaUin+7du+uaCyLJueYq1r2R2U9AJAghYkNsFRNrMpCJhGKR3r333qtiS/N/2GGH6XrdlVdeqaJSc2etRWYCGj9rZqz9sQ4188wzmxe9ktZeItZDvHnNNdcUvWNNqHfv3mHttdcOf/vb34remegS8etWW21V9K7ah2rKiWhYZkIqfhVmHxA5CvNScXGcb8pIWdErgxAxIyq0Z9ZFEe3yXGn9VFpeE12ut9564dxzzy0KTvuhHf3lL38p0nuTmWeg7imvDF40jMxMVYx50EEHJSLzosjkIa96gYkuEZH+/ve/T0fTJp8Rm40dcV0Y/8ZrKiZjjepnWRdHlMZW/W2vGDZFvvPsukwHqkR0ybrVHfvuGT4e/ZTobe0cNj3jr0XRsf73z52769Z2RKzLbreD7rp85Z83qb8/nto//IE1qRpJZlnhpv/bLiy5eeew9aBf1ifTUVYquhx304gw6sTjVOz6h557hoXXWlvFvbEIOJ2GPZdTL2DNbcR2W6mIdde7RloQvX74xGPhtr16FtWniS7Z0drjptsS/5N/+ilculJHfe716juJe71v2j2jYy2EDR0iuivCdueddw577LFHmHvuudWdDtbW8jp16lTkN37AzyqrrBKMAbB+JiK12Es4+uijA5sxZPZVtCHgvffeC/369QuvvfZa4p/wdPg77LCDboLgxVNPPRVkdB7WXHPNMHBg8bZmY4Iw4+uuuy6JhxtjdKwfrb76b4vdRZ4qfKi0nJY/S4Z1RzaTyCxVN8bA3FnrhCj3x6LMa2uHf/7znxUbY3QHH3ywbsThudL6sfTzXo3RsUFExMZFwQYNGqRrngxgaDeQiGeLGCJ1xfoZ+Xz//fcDZeGXRZUyOpFGhBl+3QqfFV9bcbPO0fJDpzfbAgsEmS0pk0FH7k+yrT9NzcnoYLT/6t0rvDXyPl1r63rJkGQNzvLxys03hgdOOEY3f/xJ1hGNPn1hTLh5x+1/Wbt78vlEHcHeV3ptDkbHGthTA89Txe84P6vuvW9Y48BDwiyy2a0UlWN07z/ykA4Ofr9ep7D9Vb+s91s8Vs8MCnreN0qdjdEtt333sPnZ55tXvQ5abgm9Nieja/eiS5smIy5EfCk7JVW0hHhJGIK9Lnz55ZeJe+JY5sZEeqy7pUk2T2hcrD1lkezSK7DexJof+eAnmzgSr6xz4Sa7ORM3u2H9incyYzCn5GqiS8LXiyopJ2I+2XCh+ZPBRbJGSF6y8o3oElGhEeWlbEaU0Z4rrR+LI+/VRJdgmCaZ4Wk+ZFanr1hzNFE24WwNlZfDhg1Tv/E6Xzq+SkWX6fBt8lnq/tbdd1Zx15MDzy/Ymh55ZSs/4rV/7vJ/mVlvLtElqgKmhnDTTjsU5SnOCGtm5I/1xSKSMiFy4x2iuVrJxHh51ujG3jSiKLl3Rt2v+Uiv0ZknxItvivjyX0ceqv7I8yMD+tvrzGs50eUnY57XeG740zZThM2qTxNd/vuYI6fwT174NSc5o8tAl/ULOlCYFJ2zkXVesnvOnEpeK2EAJSORF7bmJjvoEm+fi64S+SM/8XoRHm677TZ9F/u3gK3N6GJmJDNpy5ZeWbOiTDGDroTREUkl9VOUeI4HY3Ssx8VtgqA2IHn66V8W3x966CEtS7w5yZJgDZJytgajoy399a9/1R+DqZYk1sCsQ/sh2ohEHl4cPkzflWR055yl718eUX5zTlyePJtRHv51IwQbTFhzKkW8J++xThd+YZRsRuFdmvGUiqucex5GJyoXmt6jZ51eFNVjZw9Q91KMLvb84VNPql/yLo05flV0X47RffvpJxoH65ppfUTqCUxGHv3bXgBndEXQtvwDOyvjETc5eP7557UzouOMSda81B0mkg7DDsZ4J1uljE5EgIWsGZ6s42maItJMskJHy0YMOsxbbrklcScPtoFDVBUSd7tpbUZnmJDvt2WHqBEzINtIUgujq6R+LO28V2N05P3xxx9Pgr3xxhtaD7j/73//U3drPwyU4nbCZhX88WsNRmdtg/TjtpoUphlvfpINPMboxr/xepKSbGEviC6avivF6Ng5SVh2EOalphgds0riRAkZJfdydP9xfdQvsxfbXYj/D598Qt2J5/OXm96IVC4N3uVhdLZxB+ZrTAoFeFOmTs8GiTPOM+mwS5Q8w6TKUTlGB5M3pe6Xhl+TRMNOShsYoJRv1NqMbhoyUiQwrfCh0Tej7LrrrqpszeG5KC6zfvLAAw/ohgH0pjhY10g6soAOmsxMdG0NvSmUvlEIHiXrJLOLwivrK1Cla1dfiKIm63Ao8aKUjKI4Ssqyg1Djk511AYVjo1gfjXALLrig5pv1PXS80JNDsTkmW6O7/PLLw4orrhi/qvq+0nJaHhaQtZkuXbro2pIwa8WUTFS7RkfYSuoH/5WQrdFZGNZiWRdjIwjrvChg77fffvqaZ9bqaCesQaI3x328Dpxeo+MQZ9uwwgYbNhWxjsrGKIj1PWFUem9/thnF1izNvdTVNvfw3jZNlfLbHO52jiM6VMtu/yfRo5sxvDR8WKI7VmqNbvzrr4bru3XRLLHus0inDcN0gv3KojQdHxrNmtKrt9ys/r586w3V0SKtWUVBGlqvzzEaFuXq4Vttpm4oeRNnmlbeba9ET83WnPCDLhrHhnHm4rv/eUCDLbbhH8M2okc3zbTTpqOp6DnPGl18TBj5XnqrrnJm5yOJPmJ6IwsK8OirLdN1Ozl0e3HNt5wco5hv0n9AWHGnXYvyyIHSE7/4XN1Yg2RjCed/dljtlzX9GWabPax50CH6PtaLXGnX3eR80EXCm/feJYrpLwV06nre+0Cy3tnaa3TtntGxg46NA2mioxLRU5huuumKXqHMe8EFF4R///vfRe5sGpFZSbLBoBwDOO6444LMEPSkDVMwF122gDsnlcREB8cuSnZhpgnmiqIyHasRuxbZVYmyeZpw/89//hNaitFllZPOHEVmOnIjmLvo0anCdC2Mjvjy1o+lnfdqjA7mzM5JNhMZobDNxpi4raC8zy5MUxLHL2FXXXXVcPbZZ0+xGWWnnXYq8mtx2zVrU1OjMbqJn38WRJylnaeVi9NONuh7sigp76wHNmdtRsEvTIUTSuywZtzYBMFmCKPHz/1reG7wLxuZzC2+2lmZMaOL38f3ax96RFj7sN8OdKCjfkgOOOag4Zg4MHqd3n3qcqgz523KrDEsLYrTXUSBuhS9JmdyylpX8hrl+3UO76PK+JwFGp/e8mC/E8PL112b+LUbNqOsL4c1T5vq367Z4o+6A9b8pa8w+n0e++3bhbGJTmGi+I1/ds9uLgdj2wADt4+efircuvtOetoMp87ExGYUBhycLtNc1O4ZHcCKeCmI/puOupmVMTviaK9yBCMTBWDd1s6uwfnnn7/opItyYcu9+162OpMXZid0bh06dCi7o44JOTsT6eA5+ik+QqtcOq35jjzLOqP+2B0655xz1j079a4fY3TMntk1ywyNeuLUk7T6hxUGtQlUCxiI4C995Jv5a1dXqXsOQp4gaiVzg8lcv+xqbggMJO8T//uFmumZUTrmOUQCNP3M5fuJ5ioXuym/fPtNPfi5qcOf2cKP2SJOOplx9jnCHL9fJMwgA+h6kYhQf4lfvol5llxKTR7VK+56xeOMrl5ITgXxoPf11ltv5SoJZzUyy0yLR3MFbmVP1ZQTlQ5E2cboWrkInnwbRAAdwQ9EjJiXOJdzdllmcGp+BJzRNT/GDZMCCuaytT13fjmbM61YnztwK3qsppyIIp3RtWKlNUDSb8phy/cd3it3TtHZW2KzLXL7d4/VI+CMrnrsprqQbGRhM05eYpNFIygqp8tTTTlFdUAZHWtprCc6OQJpBLBm8PEzo9POJZ+xIMBmGafmR8AZXfNj7Ck4Ao6AI+AItCICzuhaEXxP2hFwBBwBR6D5EXBG1/wYewqOgCPgCDgCrYiAM7pWBN+TdgQcAUfAEWh+BJzRNT/GnoIj4Ag4Ao5AKyLgjK4VwfekHQFHwBFwBJofAWd0zY+xp+AIOAKOgCPQigg4o2tF8D1pR8ARcAQcgeZHwBld82PsKTgCjoAj4Ai0IgLO6FoRfE/aEXAEHAFHoPkRaPeM7pprrgmc2RjTpZde2pBnOMZlKHeP/TLsn2FrDzt8jUhnnHFGeOedd4JYzFbbfVll+Mc//hHECGo48sgjwxJLLJHlpd25YenirLPOUjt5YuS2pvJjneHQQw9VixmYu2pEwlrIK6+8otYolllmmfD73/++LlZIDIvPPvssiHFetXSBjck//OEPAWsnTi2LQLtndLfffnvgZHoIW20QbjTKRqD77rsvYIQV+3nYcstDGIfF8OYhhxwSMDzbiIThUs6spCwYcc2iE044ITz00EN1tb9HxwiTpX3AQBuN6HT3FiOx6623XqiVOZWzuVgOF+oNQ8LrrLNOkWHjcmGa4x02BTG5FBPGbhk8YQeyFgKbc845J9x9991TRMMgc6GF/IzLKYBpRod2z+hibLEazSyhkRjdoEGD1Jp4//79w6abbhoXp+T9c889p5bLN954Y7VmXtJjG36Rh9FRj4zWqVesrteDsBO49dZba3yxxfB6xN0ScWDJ/oorrlD7eDvuuGNNSVbL6My2H4aKjzrqqJryUG3gV199Ney7774anEEithwxwAwTxngxFi5qIRgojBSbkt26ddP4PxUbfPfee6/Gjc1LpxZEQIxg1kQvvvhiQYxL1hRHWwm82267FTbYYIOCWMFuK1lqMh8XX3yx5vmBBx5o0u/U5GGfffbRckvn0aLF+uabbzRdYRItmm5bTOyHH35QLKQjryh7jz76qIaTGWVF4erpWWZtmoe///3vSbRvv/22utEHvPnmm4l7pTcvvfSSxiOMvCAW5ouCT548uejZH1oGAZ/RRYOKPDM6RFeIXTDb8u6774ZFxMrwWmutFaTjLWmVfPTo0eG2225TWb0wUQ3D7IsRLRbNIaycM9qTTiDIR6YWwxFvLLfccmHPPffUMJZV1p2uu+46fRw7dqyuLyy77LJq5dz87L///qFjx472GMaPHx/ko06euWFmsu666xa52QNrC0OGDAkykAnffvutrnFZnjG6asQ6zamnnqplB4OrrroqMGOENtxww3DggQfWbFn7zjvv1HVUcFlppZVUTHv55Zdnii7BhpF5TKxFlRpBv/fee2HYsGFhzJgxijn1wVoNo/CNNtooiebss88O1J107lr3vJAOMXmPBfFK17yYEZ1yyim6Hty3b98krvQNtvBoc9RV9+7d9bV0D4oJ4nZmJ7PMMouKrqn3rLIyQ/n666+TqJdffvmwyy67JM/xDdbfWadGpE+866+/vq7lIiZmtoPBXSie0V122WVl6/6rr74KAwYM0HBYZqcuETmDtRHrxVtuuaU9JlfEf6wrQ0ghunTpkryr5mbSpEnJ2jTtdemll9ZozjzzzETUyDd3wAEHVBN9+Mtf/qISE2arfONOrY+AM7qoDppidHwgNH4+UmT4fCDcT5w4MSy66KLKGGabbbYoxqAdBhteIMRn8847bxLmvPPOSxgNHQGda+wPJmMkM7ew6qqr6iOM84ILLtB7GBLpIyKJjaCyPrXiiita8IA/Ng5ApEWYUmt0MrJVBmXxkm86W6hz587K2PRB/qyz4xl/xA2zID2oR48e4YgjjtD7av4Qs/GDVlhhBV3U//LLL5Oo0mt0rMlddNFF+l5G03qFKcZYWGCYFp09eaU+iZ/8U6edOnUKMDej448/Xm31wdjNZl+8wYWwJ554onnPfcW+HfmkM59zzjkzw9EZDx48WO3hsYGIPJx00km6NksAmL/VD+W45JJLks7bIjz44IOVUX/33Xc6MCq1RgeTQywMxrQpmOa4ceMUH9pDbGG9krqHyWLHj7wTj2Eer6/CxI2RW765Up/XX3+9OtXCgCxOkUDpYAmsWONm4Pbss88W2RnE1iKMrxpi3Zs2wiY3ysrAb8YZZ9SBZ9xmqonbw1SJQK0Tx/YkuhTr2yqSkI+tIB2iQieznYIwP3WXUXcRnC+88IK6C3MoPPnkk8k7mb0VZEZWkM4pcSOeoUOHFmJRnMweCzKy1jh69eqV+I1vqhFdWjmGDx8eR5XcS4etacqmiwJ5hRDrUA7EOpTLyMRXuB9zzDEFGQwUEM9IB6J+ccdPNSSdbhKHpSmda0GYTuIe45VOw/zFOMd+ZOan8fTp00fzbO+IE/FaFtVbdCmzHM2DSAiyklM3cAVH2Uiiz3fccYc+C5MuyOxI3chXU20Fj6+//rqGldmGhkv/IcojLbGmntSbMDp1w102WCRBqq37SkWXF154YZK+zByT9Ku9MdEi+EF8Z4iiad8iVdG0+KarJXDix/ds93YFv2q/h2rz4+FE/FErCO2J0dm6kMwaimB75plntEGn121EHKXuIhor8l/JA50uHwkfYRbVm9FZR06a6bVKmVlpXkp1djFzgEHax12OGWWVydyMIffr18+c9Coi41xxN8XoGJiQRxHrFcVf7sHwSdd1uTDl3smoX/Mgszb1JptFCgwwZGeePjNosAGGDTpY+yHfI0eOLIqaDtT8GgMs8iAP5RgdaVmdMbCJSWY3+q4edV8poxM1kQJl5ifSkThbVd2LGFTLYszMGBKDMwZFYEBa1ZC1D8MRvB5//PECgyqrG9nEVE3UHqYGBJzRReA1tRnFGqqIdaJQBZ3FWMO2zggPdIa40zHnIT4SZll00DBV8mN5Ip6shex6MzpmDaRFumkSkam+E1Fk8ioe1cuOxMSdGxGVqn8612rIRvIinpwiuNVFOSbaFKOLGSbMBcbR1MYq68jqxegsD8ygIJtRUD4R82nboT6Y1UEiClNMcWNGgnQh/uHOL5YgaMBf/8oxOqQUhCXtNMkOVn1XitFVUveVMrp0Xmp9tvT322+/AgydMtsM12Z71dYvOFgdiKi2KKsMkHlX6eadokj8oSoEnNFFsBlTSc9k8BJ3MHRAabKOF3EbhB9r8BMmTEh7n+JZ1k50FGlh6MTo/GxWiDsiljTVm9HRQZJW+iMlXWOCJvLBzRhd1sdL50FcslkCrxXTySefrOHTMxciIg/EXQujI56bbropGWkTHz8wNzEhfmKqN6OzGRvth/vTTjtN82C4UXbuTSpgHTNuML9SP9lcE2c7uS/H6N566y1NK6uTZ1cvaWYxukrr3hhNa+26lA1cWhZmbSwJUC7bHSkqAfosG4sSzCq5iWfF6ZmbfSukx1KFU8sh4Iwuwroco4sbcLqRxmI6GJaRMb9ynbH5NbEg60WyQ9KcdY2MD4NfSzA6E90wo0yTrTnGnYB9vJV2dum4s55FqV3LLbsup3hNemBSDtumZnQWKXXGGhnrU1ZnzJKyqN6MjjQsn8zuSF92u+oV5jZw4EAtp+wm1ewgTbD2kJW/ptzKMToGeMRNHtJEHfBuamB0cjpMgiFlGjFiRFJcK6ds9knc4hv6AfvF7vG9tc30umvcTzQlOYjj8/vaEXBGF2Fom0pYfM8im0WkNzfYKDvdQZjoLo+OmzFZ2f1VlLTNovggsxid7LDTj1bU+rhy3QAAJcdJREFUF4rClXuwta+szSi2AYSysLEkJtIgH8w6jJqT0bEeQ3qIMGOSHXxJR1UPRpeOm7KTbpbImUEO7/BDh1cPoqMlTmNqzDhYl2S2gXiNd1kDKJuFVJKHcowuHsyl47ZBRz0YHWtWlCm99lqqHP/+978L6L3xYzZYK7GhyeoYfOPlBvJE3tIby0jTvhve8yslqbHNQwxeY4o39aS/rdif39cfAWd0EaYmNmJxOousIxK9saJOjo+fhn/66acXBTPGAIOMZ2l4gjl+8MEHiX9EhcTBWogRH2BToktEb4RDzJeX7IPNYnR0dsZ0b7nlliRKOlpmOaTFBgqj5mR0iDxJj04J5mbExg3c+dXC6KiD9OycZ+sEeZ9FlraoIWS9rtjNZtFWVsTe8a5V2zRhEbN5Br+017iT5j31VGp9jvflGB3vTZGaNUtj5LRTw6QejC6u13T+yUOabK2WMtdj1yXxm8g/3nErpyIl7YpZX5rsW7P6Zzkji0zMy/cCUzViUw1h+b6cWhYB16OL1DJQGka3DEIBm2OBUAi3o4LQ/TE9H/SQOBdPFq8TfSZhHGGxxRZLYpQOS5WI0UNCJ6lr1656lbUQ1ZuK9eg4/04YqeorbbHFFnq4LDph0gkm8d1///1TKF8Tl3xQ6gddPpTXZ5hhhiDrLEXn6RE/Cs8Q+ZGdopp/dLAgdIosHs7OFHGauqM3hS6VfLyqoI2uHOWcfvrp9b3pUlE+2faubvZnxyChBwee1ZDFQdlQcEfnDAVyo1iPTma8qrQsn5C+Js/4R8F4/vnnVzcUlO0ga5SohelrvEsttZQqxj/44IN6DJx07EX6gpYeVxn1B5llqBP6VuBD/mTNJ/aW+94wJABtBB1I9Ni23XZbjQP9zlgZnWPIevbsmRwUgGL7TDPNpAcYjBo1SvUYwcWII7dE7KyPHByAzh76a7FyNrpf6GEKU1M9OvS/7BuQWZTqgxFBlh5dpXUvg6NEf5GwKKSje4nuIu03TfXWoyP+uJxrrrmmHonG9wXuVgfpfNBWaDNGsn6aeUgE+racJ4ouHfqV1E/cbtHPpKxOLYeAM7oU1jR2TqFAaRiioaKsa4Q7yrqmNIw7nT+dX5ZSMp0vJ4yYwqvFQ7wyM0xOPIEpcnIJH5MRnQBnWMpsTT/ALEaHXzoyTkqxE0lwg2nyARuZYrI9p6/pzooOk5Ms6PCMOBWDsqP0bmSddDo874877jg96SU+fcLC5b2SPhjAfI1khqwnmcCwY0YXD0TMb/oKszTFbhgzyuR0bjHJqDuI+KnkKfMolYu4URmuheVAbRS1q6XDDjtM60+kAmGTTTbRaDhVhoFOVsdIHjg0wBiupUs9wHBR+jbi8Ob0aTH2zq60TwZ1kMxsAoMw2hMDIAZ1dMzkjXaE4jdUS92LSF6xpw4NQ/Ic51sTkb/mYHTEzbfMgA4mZAQj57Du6aabzpySK22Nw9CNSjE63qMgT5/ACUpGYCkbzAIDWaeWRcAZXZV4MzLG5EmHDh1Kdohx1DAy/PMBlAvDe05ugJngrzWJmRF5plNldps+9aUl8yabQHQUzskSdBj1IsrIaSDMduncwDw+YaZe6TRXPDAbZicistR2yMw1PqKtlnRFrBimnXZa/Vkn37t3b5UW1BJvWwvLQdfUP8e4cYJJPYmBrojA9dQbjvQDT6eWR8AZXctj3i5ThHnHo9umQECc1dqMvqk8Zr1HRIg4OQ/BkDg30sTAecI0tx8YP+d/MrAxkk0XgRknJ/tjLWOVVVaxV351BBoCAWd0DVFNjZ9JDh9G7JmXMA7KodCNRrbulzffnIfYlmaQrJ9tttlmuj63xhprqATinnvu0eKkz//MW0b35wi0NgLO6Fq7BtpJ+ogHbUNEniKz5hUf+JsnTFvww6wnXr9tKk9sZmHzUFshROysrWJLzQhRMet+WKeYeeaZzdmvjkDDIOCMrmGqyjPqCLQcAogwRdVCE5xjjjlaLmFPyRFoBgSc0TUDqB6lI+AIOAKOQNtBwBld26kLz4kj4Ag4Ao5AMyDgjK4ZQPUoHQFHwBFwBNoOAs7o2k5deE4cAUfAEXAEmgEBZ3TNAKpH6Qg4Ao6AI9B2EHBG13bqwnPiCDgCjoAj0AwIOKNrBlA9SkfAEXAEHIG2g4AzurZTF54TR8ARcAQcgWZAwBldM4DqUToCjoAj4Ai0HQSc0ZWoCzE8qeZKxBBl+N3vfpfpSwwphueff17NenCq/tRKmDLhFPbYFlcjlfXFF19UE0gct7XHHnuUzHqjl7NkwWp4Uc82jh08MeYb9tprr4Y8xxQYOZxcjNeqNYLll1++rpY0rJqwN4jVEAiLCm3piDjLY8Nd5aifmkg6kYJUfk1xtMXAcq5fzRas21q5sD4tBysXxKZWRVkzi8oVBWpDnh9//HGty9g6dlb2mqOc9957b0Hs3xXknM+sJNu8mzB/xQ4r6LWSGODVuMRwbkVRtQUM+XaOOuoozb+1E65yWHlFZcnjWWwhJukIw8sTxP00gUBo4n2Tr9szo7vtttsKMuNrGEYvNt30AxLr403Wa+xBDMIWmmISsf+2dp+X0TVHOS+++GLFXKydtzVYcuWnnm28WkbXFjBksAJj22233Qpim68gRnYTZiRSnVxY5vEkhnSTeEnPGV0e1Jr244yuBEZ5ZnQlgrZZ52oZXZstUM6M5WV0OaOryFtb6KQrynAzem5URgezsVlczHhOPvlkdedaDxKjy4XOnTsXevXqlaT3ySef1CPqdh+Hr9GJsFlEKQG7YG+++WZYaaWVws477xwuv/xyNTSJZeXYXAxrcrfeemuRiPqggw4KCy64YJGbPTzyyCPhjjvuCF27dg1Yfyat0aNHq0XojTbaKBxyyCFFlruJ/+abbw4iKtIoOnbsGHbdddew+uqrW5RFV9YMhg0bpnnF0jSWyddZZx21Ar3IIouo37PPPlstKGNrzIyfyoebxMM6AGWIiTKSFyMsL59wwgn2OMUVEzzXXXddePXVV/XdMssso3lYa621ivxilw77ZjKrVHM2MtPRtVDySh5WXXXVIv+VPmAO6NJLLw3PPfecGjTFgOtqq60WpDMKO+ywQzj66KOLoqyknJiwoZ3w++ijjzQe1m/XXXfdICP9xK4cuIEFNHbs2PDll1+qfTfq32j//fcP1G0l9MYbb4TBgweHtddeO/To0aNkUNrYww8/rO2GskPSYYYrr7wyjBs3LowfPz4stthiYcsttwzbbbfdFBbJK23jtG/W3/h+MK/E9wP+pNmnT59g1g9Y7xs6dGhgLZS2WK7uq8UQS+v9+/dPsDn11FPDTDPNlDxXc3PttdcGmcGFTTfdNIkb47Q9e/ZMoqNNWzkTxwpv+E5vv/32cNVVV+k6JsHpCxrRAHGFRW927+2e0ckoM/CDVlhhBf046ZiM0ozuoYceChdddJG+ts4OprjiiitakKLrTTfdFC644ALtUEQsESZOnKgL2FwhmBSMBrr++uuTuJdddtlAp215oaPu0qWL+rM/OjM6DWieeeYJbIh55513NAybLg488EB9hx9spNFRm620ePMM5RbRjPq1P5gFHRFk5YRpZxHl6tevn75adNFFw3TTTaf5wOHYY4/VsutL+bPObuGFF9Z48W95wk8abwuX5/rZZ5+FfffdV8sPHgw+6NiNshhdJeWEwQ0YMECjAz8GFcRPXcKAwBFiIEOdQ+SJ9+QnNrDKoKFUm9GAGX/E1b1797D00ktrZ5jhRZ2wBg6jueaaa7RNPPvss6Fv376aD3Cnfgzzbt266bs4rkrauNUn4dNtFre4Ps1vnrqvFkOZFanVdtKGRo4cGWaZZZZfHqr8P/PMM5WRw7TBX6ZH4fDDD1eMLUr6EMpfLcHYDz30UB0kUH9mdNgZXbWIpsLVOqdt5DU6YSSJiMA2C/z4448FW4BHXPHpp5+WhMj8lVuov/HGG5M0WMwmTeinn34qyCgweX777bcTf2PGjFE/MuotsLZDPhBpfPXVV+rOH2JI3HgnI87C5MmTk3ePPvpoIWvBv1rRJWnwyyLZjVmQzlLfy8g+8RLnW+yaJe4mviI+6YzV/b///W9BZnMah3TOid9Kb1hjI17qhXqEqFfLf1PrjOYvK13qy8pp9YM/GTwUwJsyZFG9RZdiAFXLI8wzKzltV5SDtkGbmDRpUsHCDB8+PGkn4GLuwlQy48KxXBuPvx+rS3CSQU+Cefz9VFv3lWDIN2L1yLUUTiULnPHCNqGMGjVK38qAR9OgPPvtt5/eP/nkkxkh8znxDbFuTp3xjUJWBhdd5sOwKV/teo1ORkvaoPgwY3r33XeThhZ/qLEf7st1AubXGB2NOO7w7b1d2dRC487qjC0dGZ2a98INN9yg/mWUmbg1ddMcjI5OnnyzSJ8mW2uI822d3Z577lnkXWazJctf5LHMg3UODBpiOu2003LFbeHjsHYPw7D3pZia+Y2vlXTScbhS96L2ovkwZguDwc06WhFv6nuZwWkU9913nz7vsssuypTjeK390/ZKkbW9rMGchRfxYFFwEaEnWMXfT7V1XwmGtHEYuP3YLVkr0VapexH7F0TsqwwJPBmIGhNkZ2i1JOJcjZ+Br5G1NWd0hkht13bN6C688EJtYCJemQJFmy3FH2raU7lOwPwao6MzKkcHHHCA5oV0+bDin+XlsssuS6KAIfIxZM3cEk+pm+ZgdNbZMZtKk33AV199dfLKOjt2rcVEh015wLQaspE8WKWJnYPEnTWIiP1a5xK7xffGMOnkRORcEHFToamOtJJOOk6r1D2zZvLJwAASUao+24YI2gPvZY1Q34tYXZ9xi9sU9zajY1ZSisq1cZtB5/1+qq37emNYqqyl3G1j2hNPPFE4/fTTFU+TADHQBNt4MFcqnix3WdfU8Hz/sVSGOPk5o8tCrXK3ds3o6BxKNVI6M97Vi9HxkZcjY2bMgtCjyfrFHcoRRxyh+ePjy0vNwehgvuAkC+hTZMOYYKy3Z51dmkG/9NJLGk+1jO6tt97S8FmqE+g6kcdaGR0zfev0iI8f4kwGMyYqTYNQ707aOkbaLh2jiVNpP4gNTTJgHbGJEZlxZ7Up3MrhUo7R2feDmDpNWd9PtXVfbwzTeW3qGYyoaxvoxO3ZRJfM9qohWZfTuNkZzGzRfta+ZHOXulUTt4f5DYF2zehosDSodKcLPNaB1IvRsT5SjuiIyMsrr7xSzlvyzj66SkaSzcHomDmQ7/QMjYwy6+HdkCFDknxX29klEZS4sfUi6i1NtqZSrkMnDHnl1xTB8JhZmWiWMLIxKDNYvTtp1gRhapTTxJSs0ZIHmJu1I0StkM26RowYkZm/phzLMTo5KUfTZcacpqzvp9q6rzeG6bw29WyDBzCmXPEShJWTukgTA5H4l37Ps4Un7nK/rLDulh+Bds3o2PhA40KEGRP6LNboWorRcWIJaeaV9f/jH/9Q//HoMi5D1j0fKGnQUcZikiy/sZthEbvZvW06Ya0iTTabiDepVNvZpeNOP8MALJ/xph38DRo0SN/Vi9HFaVt5GHhkkSkWZzGDLP953GQnq5Zn4MCBeoWp0WEa44EBGyEFABdEnNVQOUZn66rpuG3QQbrx92NYpQeWTc3mK8GQzScwJn7nnntuyZl2JViYZILyyM7jJChrwdbmskTYpmSOn1LiYdom4tD0z+IFf9451YZAu2Z0iAVoUHT8MDcjxHDW0OIP1d7btVwnYH5sja6pGZ2J1xD5MPOKCaaEaITdWUYmwiKfssXdnPVKWUx0VfRCHqxchM9LFibLv2x5T+KMR7XxhgTZyp4ErbazSyIoc8MGDPIarwnC9Khf3GthdIgmaS9pEt00jTu9ocn8iXqJvrc1NHOv5UpbsjqxeONZh6g6JNGzxmN+5YzGxN1uqLNyR/iVa+OEs7jjujeGy7v4+6m27ivB0NZqLV/12HUpKj5JOWHKRrY+CvZZZNiRl1KMLiscbpZ/X6MrhVBl7u1ejw4FYlnnCuhzbb311qrbJSPORAlDRsSJwjgHG6PMKRDre5nNqH/020wZGEXpzTffPAlvenQohqP4XY4sL+hcbbPNNnqYNDpsjz32mKYjI8si5VEZ6QaUWSF0xCiDnNwQ7r///iAj/ESPLk5TOuSA3hvEIcfomhFONiYk3mSkGmS3XvKMPha0++67J24bb7xxojcmM+IgojHVD0SRGT0tFLHRAURRPlY0l5loojRMGY1QkEfvjzyht1QNWRyERREaRVuZISc6Y2k9ukrK+cUXXyjG6EqhII6iOMrgIjrWrApzDUsttdQU2Za1wyAbP9QdnFGg55BeFOYXWmihKfznceCQ6oMPPli9iiQgbLXVVqogLh2ruslMJqy33npJVMIYg8wc9Blc0AFEaVx2bgbiok1sscUW+r7SNo6+IG0c2myzzVT3kziN4u+n2rqvBMPm0KOjLCICDrLTWds43zvtAT1WiD4B3cY00e7RSYTQsUTXMi+5Hl1epPL5a/eMTkZ8etqBNVpgk1mVdgIoA8cfqinsloMWZhkrXxNexIt6AkpTjE5mDarky+kRMc0666yBU1RQWJ1tttmSVzBcTqQQEZYqA9sLTnKBaXbq1MmckquMeJUpwcxNGZ3TLGCaRrECuLmlr3zEMDEIRXQZrU+hxMwJGZx2Ep++XqqzA2tOC4lPn0inmeeZQQEdN/UKMWiQdStVxE8zukrKKWLfcNxxx2m7iPNB3fTu3btISTl+zz154qQU2VmavKLO1lxzzeS5khsRVSaDKQYU8803X5gwYUJyoABtYs455yyKkhNpzjvvvKTO7SVMW0SdSUddaRunDdLRc6IHYenw9957bx3McHiBiK21DkivlrrPi6FIQ5J2SZoMRGpVGCceyslBEQzojPjORKxYUvG/HowOaw82iLZ0/Vo5Au2e0RlkfCAcocVol86rNUlElUFEPjpqZObABxUzi3Te+AhFt0vDzD333DpLY1bV0gSj5mgkiNkLx4a1BoGfbBjRmSX5mGaaaeqWDWY8Ik4KmFKBiTJrLFc3dUu4ThExk2PWz4CJvNeDCVjWYMAct0V7ZNbDYIMBZD3xt7Ra60obRxLAdxYfDdha+fF08yHgjC4fTu6rhRFA/AozyUN0Optsskker23KD0wT0WpeQizOWaxtiZjFMXuceeaZk2zZTJkZKzNXJ0egtRFwRtfaNeDpZyKAmNfOY8z0EDk2dfZj5LVN3TIL33777XPnCZE65yG2JUJkzY8ZHDMcZnCILKFyZ8CqB/9zBFoIAWd0LQS0J1MZAnKkVWBdLA8hhos3X+QJ0xb8IAazzQp58oMYtpaDg/OkUakf1v7k0ICiQQkbLzj0mLVfJ0egLSDgjK4t1ILnwRFocAQwu8PABAsNrbE+3ODwefabGQFndM0MsEfvCDgCjoAj0LoIOKNrXfw9dUfAEXAEHIFmRsAZXTMD7NE7Ao6AI+AItC4CzuhaF39P3RFwBBwBR6CZEXBG18wAe/SOgCPgCDgCrYuAM7rWxd9TdwQcAUfAEWhmBJzRNTPAHr0j4Ag4Ao5A6yLgjK518ffUHQFHwBFwBJoZAWd0zQywR+8IOAKOgCPQugi0a0bHEUwcVcShtGI8scmawLSNWIoO++yzT6YJnCYjaFAP2DnjAGIxqNmQJcA+GvbEsHW3xx57lCxDo5ezZMFqeIFpneeffz4ceeSRatmjhqjUpBRmZ/baa69g9tZqia81woqx2SAGbLXPWH755etu6QTTWRxmjlUJN89TxxoWkxo1kXQiZS0U1xR5Mwf+7rvv1JKvGB3NlZIcUqv+5cT5XP6nFk9m7bhRy/P4449rvdViYbzastNWxD5hSYvv1cbbUuHMSrYYta05yVIWxpuKuC1gSF9x1FFHJZa/7ZuQsz6byn6u92L6pyAGh5P4wd2pfghgO6omckZXE3wNEVhmQ4WmmERbLkheRtcc5bz44ou18xJr9G0ZopJ5EwlGQaQddRnMVsvo2gKGDFZgbmLEtyDGlAtiqDhhSjLjLYlfnhdnnHFGEpcxUGd0eZDL78cZnTRen9HlbzCN6DMvo2uOsrWFTro5ylVNnI3K6MRQbcKIuDc6+eST1Z1rLdStW7cCP7FCr0wUZueMrhZEpwzbrtfoWHfaYost1I5Wv379wjXXXKPrEYsvvnjYfPPNw84771xkHXnw4MHhqquuCn379lVr5A8++KCe2L7aaquF/fffPyy22GJTCJVfeOGFIA04vPrqq/oO45k77rhjWGuttYr8nnvuueHzzz8PPXv2DKuuumryTqosXHTRRZoetss6deqUvKvk5ueffw533XWX/j766CMNivXyddddN8goVU+dj+O79dZbFQtzw1r4CSecYI9FV9ZxRLRV5BY/nHLKKbqmYW6Uibxg4gVcWI/ApAsYLrjgguatqisYXnrppeG5554L008/fVh//fUD9SOdUdhhhx3C0UcfXRRvJeXMiyFrWtQ5NHbs2MC6C+Z14jUXytqxY8eivDT18MYbbwTa4Nprrx169OhR0jtrydiFw6YfZYewin7llVeGcePGBayM01a33HLLsN122xW1cfySf3CJ6aCDDipZN3fccYeuv7355ptaj3w34E+affr0CXPMMYdGRTsZOnRokE48YO1AZrlqu26RRRYJxB+3+2oxFBFj6N+/f5L1U089Va2eJw5V3Fx77bVBZnBh0003TeJ+77339Fu16O65556knOaW94qhWtYsMV5rRmtZTxZRZt4o3F8TCDijE0ZnNOuss4Yll1wy6bTTHaMxOvNP5/XVV18FrCwTFkOTSyyxhL1OGi0O2BLDfIkZpTz22GO1kzHPo0ePDkcccUSYZ555lOFi7gS6+eabdRMINr4GDRoUZphhBgtS0RXGMmDAAA1DHuedd17t9CZOnKidJ/HHBLOgI4KMMT7yyCOxl+T+vPPOC+Q/pkmTJikuuLGBh/QgmMVJJ52kHTHPWMw2JgmGdCgYUq2GqId9991XGQs4wjTp2I3S9Yl7JeXMiyFYXHDBBZoseQJj8mN1ygsGDSuuuKL6yftHXN27d1d8GHCVosMOO0wZDQM36vrZZ5/VwRn5WHjhhbUdmlFbmUnouzgubOQxuIKs7ksZUTXmhV++BwYaMHYjEfPpQJJn80seiJdvwvLB+9hvtRh+/fXXYZtttiE6pZEjR+pAyp6rucJw7r77bmXa4M9AjU1sMHMjjM/Ww1agMzpDtM7XKSd5lblMDWt0iAqk4RZYcIZk5Fzo3LmziiVYJDayzSj4RxwGTZ48uSAMRP3KrNC8FmS2qOII/MqIN3FnrQY34hf7XYk7NzLa1XfCBDVeme0kfqVjKPJbycNPP/2U5GXMmDFJUGE6hUcffbQglq4Tt6wb8suvEpIZqoZhAZ90jMCCuMRadkFG/Or8zTffFIThqHuvXr3Ma8VX1tiIG7GP7KjV8DKjVjfcm1pnxA+/LKoWw3qLLhGzk0dhWlnZLJBP3tO+aJsy4FDRPG7Dhw9XNwKCi8UlTCUzLhzBkrBZm1GEqek73kunr3GQPt8Bbvw+/fTTJG4TXcb+aXsym1O/wpgTv/FNJRjKwDNJm3RK4RTH39S9bUIZNWqUepUBj6ZBefbbbz+9F0PBTUWT670wZo3PRZe54Mrtydfofv0g+fBjkq302uBgPkbG6EQcY056/eKLL9QvH5YxSxgIzyxep4nOnHc06pjoJA499FB9J2ImZQb4ExFp7K3iezo74uHXFFPLitzCZr3LchPRmaYlItoCTCwm61zTZRdRVjK4MAYYh8tzb/mMByeEO+200zQ/tTC6ajGspJPOU0bbuGADFhgMbtbRMkgDBxGva3T33XefPjOwiAccvBRpgb5js0kpKsfoLLyIB4uCf/DBBxov+chidHvuuWeR/+uvv179l6qfSjCkvdHG7GffY1GCFT6QX8ry9NNPF0Tsq+0UPGmzxgTrtROb74K0nNFVWElNeHdGJ42KhgWTiclmXnSSRsboRGxkTsmVTp14RBSjbtYJMMtIk83crr766vSrAqNkm00S38CBA6fwU42DdfZ8oMOGDSuwUyxvJ0A++OUhRv7mX9ZsioIwurZ35IMOJP7ZO+u0iwI38WAjebBLEzsHibtUR2r+LX17Tl+rwbCSTjqdXtazzYhhDpBJE2xDhA0y2NgAWZulbDHW3Nugg1lJKSrH6GwGzS7ENFkbzmJ07FiMCWZN/kp17vXGME47z73ozWr+nnjiicLpp5+u9zYwZtBL3tMDtzzxZvlxRpeFSu1uzuikkWZ1jnS2NGBEmkbWadBxpumAAw5Q/zAQ6LLLLtPnLKZoTPD8889PR6PPJsYjfRhfPejdd98t2AdLvPzY6XXjjTcmYr5S6Zj/Uu/NndkiceLfxDz2jiszLYvrmGOOKZT62WwlDtvU/VtvvaVxM+BIE7pOpFsro6sGw3p30gweKAuMDdGk4U0bZrDG7Iz31hGbGBHJQim8y+FSjtGRB9JiUJgmBjK8y2J0MOOYXnrpJfXbVhkduFEWG+jE362JLpnt1YOc0dUDxSnjcEYnDZhGTKcRkyzIq7uNlHlnjM5Gy7F/OhLisVkMfnhOj14Jw4yKd0OGDImj0HsTPfGen63XTeGxSgc6a2YFJj4lDdmhVzY2y0s5T4hxbK0FJp9FsklBy0R89SZbL6LjT5OtqZTr0AmTp5z4qwTDejM6xI8wNcppbUV2BWreYW7WDhG1QjbrGjFihD5X+leO0Zl4P2vgZwx4amB0NnigfVCueG3dykldpIk+Jf6l32c9O6PLQqV2N2d00nhpwHK0TxGaxoxkp2PiboyOEwxiYuOJdZK2JmWiT2T4abJRdrxJBT98QCYCReZvjINNBM1BtjkgFs9mpWNly3pnboxy8ZfefGLv7WoirVo211hc8RUGYPlEjBkTdci7ejG6OO6mMGSgQ9pZzCCOp5J7Bj/EiVibK0yNDtcYT7yhB7EifhBxVkPlGJ2traXjtkEH6daD0VWCIeJxGBM/NkTZpqRqym5hTAJDeWTnsTkX3o4kFFnLAKZkTrhy4uEkQrlxRhejUb97Z3TSCGmIF154YYIqH4sxnFgkYYwO/7LVO/Fva0CIL414jz9+8WgvXqi39TwLYwzQOg6YgTEGE0WZ30qufOzs4EwTG17IH+mWIytHKT82YwIzY/Sl/FpnDHNNr4vSWVSzPmdpsQGDvMZrnzA9w7AWRlcthjfddJPmKZYMWH6rvTLwsTqxeONZh6jBJFGzscf8yhmNibvd0DbTgzx7x7UcoyOcxR23catj3tWD0VWCoa3VWr7qsesylkQgZjWy9VGwzyLDjrw4o8tCqOXcXI8u0qOTDlF1lGQ2Fl577bWAbpkwt0ShNtajW2CBBVQPTj6sIB+iKn2g9L3eeuslCiDCPIOIjFTHDgVf9OhQxEXPqGvXrkUK2Lfffns4++yzVbfoH6JYi/IohFI1emdp/bokkRw3sitUlaXR80FBHEVxFJll9KihhTGEpZZaKolJRqpBduslz+hjQbvvvnvitvHGGys+OKB4LB2K6sShEJ8mlIFnn312debAWpTiwYD8bLTRRqrQK+LAIOt66g99qmoIfbwDDzxQg6II3aFDhyAz40RXK61HV0k5K8XQ8i9rh0E2fugjemMcFIAupAwKwkILLWTeKrpySPXBBx+sYWgbW221leolSseqbul2KIxRdTB5CS7o1qE0LmuhgbhkoKMHJ/CeQxTQ0ZMuiEfVpUTnrUuXLonCO3XMgQoQ+oLW/jfbbDPVoyNOo1g3jnZtCuOxrpvVWykl6UowbA49OsoiIuBwww036LcMFrQHlPIh8MrS/URXEp1EiL6E/iOLwIv4IfIP3uiUcnAFtMkmm+ihDvrgf1Uh4Izu15NROHUkbohrrrlmkFlHkZKvMTpOtYg7UJDn9A86/JhEnBZEtKUfQuzOyRF0/qb8jRK5MRGZZU1xYgYdFwwSpiCjyDiqXPciEg3HHXecdmxxAD6m3r17FynY8t6UVmO/6Xs+Ypg11NRJ9DLjTRTG8c/ggA6SdGKCmctOwPDnP/85dq7o/rHHHtOOG8YLEaesW6kCdJrRVVLOSjGMM02eOCklVjAWsWOgjVVDIqpMGA3tYr755gsTJkxQZkR8KDdjkSMmBkwo9jPAiOn/2Tuj3IZBIIjir3z4x9fyLXxR3637kLAcS04nDS2gzkptqhTCenBYdoAxE5+gOo+BuhxKP5e5/r2uawpaLr9NQGSgZ6JGXQb8bdtyQOO+Dno+9wGF7wIdh/r5Tp2VR65tqhgGo3Dcl3wGkzmUdz41rpND9ExcizHZjV2Ytwf/1UDHtSEgcWd8J2JJ4O7ffl9A4F8Huis+zGaZ5aOowQD5nfHIDuowQyZbu7OgvRKSQRizeuS0Whi+IstEVsX1kfGUYNvCH3AJKjcFZZkHaySypmn62JXYAJDIEOkT8K7xmcWp3jAsfqmvZHKh15jmec79XyMIlLYJwI/HI2eDZD1MNsh6auJf2mr1yj3LGLEsy6H40soXt6sj4ECnY9VFyVirS1A5ijHAQBGh+Tia7fueA7LiN4MO9M5oRtCEGVANyhDJtJ6MLI7ssVDt+FYyZTJWMlebEWiNgANd6x54s/1Y6M/6l2o19BnPGotqvdblECQ+6yC+8ge6DPpsNItzhwnKXLU4m5ZCOUct/ifloOb5IYODyiODg7LEWN9+V88zV/QvI1AZAQe6yoD+9sexSUYNAPjCAn9LevKneMTuy/xkCKU+NNx5E5BSp4cy0GBls4LiDzRsDeFgpS21DGt/cW7y6Z5k4wWixzyRwmYEekDAga6HXrAPRmBwBHjsDht2YA9erVcPfpl2f1AEHOgG7Ti7bQSMgBEwAhoCDnQaTi5lBIyAETACgyLgQDdox9ltI2AEjIAR0BD4AgAA//8R7zRqAABAAElEQVTsnQeYFcXShlsUc7oiijlh/r0mVMwBEUX0qhdzVhRzDpgRFHPArIAJDJhzwpwwgFkQA4oBxYheETFw/npLa5wzO+fsnLDLnt2q59k9Mz2d5uue/rqru7qny4mECuSdd94J88wzT1hwwQUriMWDOgKOgCPgCDgCDYPAdE50DQOsx+oIOAKOgCPQNBBwomsa5eC5cAQcAUfAEWggBJzoGghYj9YRcAQcAUegaSDgRNc0ysFz4Qg4Ao6AI9BACDjRNRCwHq0j4Ag4Ao5A00DAia6RyuHLL78MZ599dlh++eXDAQcc0EipejIg8Pbbb4dLLrkkbLDBBmH33XcvCMoJJ5wQfv3113DRRRcV9NPSHlx33XXhjTfeCEceeWRYfPHFK3r9hx56KNx9991hzz33DOutt15FcU2rwF988UX44IMPwpxzzhmWW265MOuss1Y1Kz/88EP43//+F2aZZZbQtm3bqsbdkiNzomuk0v/www/DXnvtFTp27BjOP//8qqX66KOPhueeey7suOOOYaWVVqpavM0popdeeikcc8wxYZttttHfQu9mje/zzz9fyEvJ7rVePieeeGJ49tlnwzXXXBNWWGGFkt8/HgDSHDRoUKBDseWWW8YfFb1uChjSATr55JMDdSkuZ555Zthwww3jTmVdf/LJJ+GWW24JDz74oIanU9avX7+y4vJAKQhgXlCJSG85J72cSqJoEWG/+eab3DnnnJO77bbbqvq+l19+eW7dddfNPfnkk1WNtzlFNnz4cMXovPPOK/paMurL1eenaAQpD2u9fO69916tt9X4xq+99lothwceeCAFqcJOTQHDk046SfO+66675u66667clVdeqfd8ezLiLZz5DE+ELKO4iI8/6QxkCOlesiIQsnos5M+JrhAyjePeFBqBxnnT8lPJSnTlp1A4pJfPP9jUKtHJtENERFybnHLKKerObyXSrVu3HH8yolMSdaKrBM30sC1adYk6ok+fPmHuuecOm222WRgyZEh46623whJLLBG6dOkStttuuzpjYMLceOON4dVXXw3jxo0LCy+8cOjQoUPYe++9Va+eDMB8z48//hg5o9ffaaedonu7+Oijj1Q9tOqqq4b27dsH6TXq3NJcc80V/vvf/4Ztt93WvOqcCWoOZNSoUQG9/jLLLJOn099vv/00nihQCRfSIIUxY8aEQw89NNx///2qrvn+++9VNXrEEUeE+eabL4rtjz/+CL179w6zzz576NWrV+TOxQ033KDzGQcddJDunPP++++r6goMULf+/PPPijFzP5dddpnixPxN9+7d8+Ip5UZGzuGqq64Kr7/+ephhhhnC2muvHVZZZZUgjVGq6vKee+5RPC2NGWecMaCuS5M///xTVUuol8aPH69e2BVorbXWCtLTD5QVwpxWQ5QP6u8BAwaENdZYoyhGMmJSfHfeeWd9d/L01Vdfheuvvz6MHj06UJaLLrqo1vmtt946TDfddHiJhPyDS1yYV27Xrl3cKbqmjjD/Rh1GfY4aHfxJ86ijjgpzzDGH+o2rLn/77bcgWoiAyo5viPhXXnnlKM5yMZw8eXLo27dvFM9pp50WZppppui+nIubbropyAgubLzxxlHcn376adhll12i6B5++OHoPSPHjBePP/64zlnOPPPMgWu+J1ddZgQvo7cWTXRM+m6xxRYRVEwsL7bYYtoY4EhFppE2mTJlSth///31g8bvUkstpde//PJLWGSRRcLAgQPDbLPNZt7198ADDwzfffdd4AOEkArN0b322mvhsMMOUxL5+uuv9RciIG7kjDPOCBtttJFejxgxIlx88cV6jV/8/Otf/4oaWh7QWJc7p3LwwQeHN998U8mJBp13++yzzzQ9SGnw4MFR4/j7779rA0D6NHhxYV6MOQ2IEyJm7svIEP/gYRK/p5Gdd9557VHmX7DYd999NV7io2GmYTdJm6ODFGlwESOvQnN0ENxZZ52lfsGhTZs2Gj/4Q0AsNEIaqnx4Pzpf1Ds6EYWEDgpEQ8eNfFK3wJ18slXf9NNPH5WnjCSiMrH4mJOj44EYJoXm6Iy88EsZ09GIlysdNusYmV/ykKxXhI/7LRdDOpXx+b9hw4aldkBJL6swVwaRQ9rgL2MG/VbB2MTquN2X++tEVy5y9YRLH+hld61l1eVPP/0UqSSkEudktKYvLqOZyF0+yAiMO++8U9332GOP3MSJE9VdyCgn5KfuMtKL/CYvZKWW+jn66KOTj/R+5MiRUZrS81Y3IcecjAjVnfylSUOoxoTcNU0ZReYmTJigyUpvPde5c2d1l/1No6xIz1zdUL0khXdFDQOeiIzi9J75h6lTp0bzHPiT0VLOVFtPPfWU+i/1H3NspvYRAtbgMkJXN9zrm3/DD39pIiNXVS/xXDoBkRfy/cILL+SkMxO5xS+qXT6UCXkQ0oonE12TT55TVmAsnbOchbn55pvVDc/gYu5CKlH45AVlRXzvvvtu8lGOeWee8SeNvj4nfRmRRO5Wf3ho5Rv3D24ymlP/Qsx10sChFAz5Li1P/BbCKTWhAo5Wj61eSodH0+B9evToodcvv/xygdClOQsxa3w+R1cabvX5btFzdHGiExVgHlY0inwo8Y9P1JPqJj3ePL9GUttvv32ee/ymFKKTXmkUVEYkmmahuEtpBKJI67kwoiPuuBx33HGaFz5Gk3KIzjoE9lHTYCDPPPOMxs8CiHLEGriPP/44L7iopzXeSogOwrD4C5FaXqJ/31S7fGzhgpEtBIObNbSi3tR8yghOcyArFvVe1OXamYjn0TpuLJIqJMWIzsKLejAv+Oeffx5hlUZ0dBTjcuutt6r/QuVTCoZ80xC4/dFZrFTIL2Uv0xU5UftqJwI8qftGgo888kilyWh4+yac6KoCZxSJE51UYCoxvd+4UHFxF1OAyNlGNKKaidy4iDeC9GjTJCvR0UOMCyMTa2Dj7nZdSiNgYer7NaJjEUdcGGmSlzvuuCNyLofobr/9dg1Ph4H4GGkgtmjE7tUx4z/ryVNGSYE4SadQQ2r+i+GMHyNMGjlR3+pqu/oa0mqXj6iH9V0gB0RUqXpvCyJY0ch7sLABEZWj3uNGgx3/sxFdss5pwL//FSM6G0GzCjEp9q2kER0rFuMCWZO/Qo17tTGMp53l2jq4oobPyRSC5pURMYKmhbxDUNUQJ7pqoFg3Dic6qaRpajfUUVRgRjEIKhDu+UNdlRT7sFHnpElWoqMxTYqlm3TnviEaASM6mZfLS1Im5fX9KyU6axgNYzO5oMfMu0IipcrYsWM1bNrI9+mnn9ZnlRKdLD7KWaNnZULdgbhNVZrMd7XLBxUyaUNsdM5In3vqH50sRmfcW0NsakSWxR977LGpf8VwKUZ05IG00kxb6AzwLI3okuYFqMLx21SJDtzIn3V0LrzwwqiYTXVJ3a2GONFVA8W6cTjRSQWmEieFj9cqN89oVLjnj3m5uNi8CM8K9fBbItEZKSTn6BqC6Gy+KK3TYnMqxRp0ytPKN162adcQHiMr6xAQjvnHNKk20dHJgtR4T1NTWgcEcoPQyA9aBsRGXUOHDk3LXr1uxYjO5o/TVM1GwM2B6KzzAK68V/z7t/ekLJJCmxH/Sz5Pu3eiS0OlcjcnOqm8VOD4BwmsNnEuKykjlK2XmpyY/1jmhIiDBqiQNBTRmeFqWmNTKC/1uVsDnmVEF+8AxOcWuQYT/hqD6CAAS88WCtl7XnHFFfqsWkRn8fJr9SRtJM7zhigfmyvt37+/vhekRoNrxEP5mdCpABdUnOVIMaKzubVk3NbpIN34d2VYlTqiKwVDNC8QE39MOxQaaZeChc1F8j6yIjcKat897mkdXDMy53kx9XAUoVw40cXRqN61E51UQipifN6AHpvNX8jS7Ahta1iYfKeBN6EBJQ7094WkoYgONSJp2xxNofRLcS+F6IgXdSF5iI9q7IPFvTGIjnywAIP0bLELbpCeqZUrIToaTHsP4jWxeUtUhGnSEOXDHCbvyZ+Ve3zUIaYOUVbEli3ySx1MCiORYrueFCM6wlk+4iMaI1yeVYPoSsHQ5motX9VYdcmcvMUXX3Fs86NgnyaGHWGd6NIQajw3t6OL2dFhJI7dEbYsZvwqBBgZaJgdEw7Yw2HcLRVfjXNxkwZIDXG5Rl588UU1QOcaI11scbApwjjdBKNeDI3Njo48SONlj/W32B6MMjcVZIGB+sPeDeP11q1bByGfsMACC+TFk/XG7Oikx67GvBaO95PRkW7wixG7CbZo2GwhXbt2Vbsl6QXb4zp2dLJSTQ3gwUdGJ+Hwww/X/GI7hUE6xsO77bZbFD7rhYy0Q8+ePdU7htDzzz9/kEVFkc1Y0o5OeuRBViVG0ds7xNPeUPYxxD7u22+/VYNzbMUwEMdQHGN9IXQNzyYCSy65ZBSXXTRE+bBJNfaZCPsvbr755loHpWFVN/ZSpX6aWLlxDy7UceojtpLEJSQdNt10U/XOhgjY6EkTpPfYGGLzRr20TYaXXnrp0KlTJ32OPacQkV5vsskmakdHnCYyoqxjR0c+47ZuVm6FjKRLwbAh7Oh4F1EBB5lL1k2cwYL6wKYHCHhh25gU2ycUd+oQtpZpAl7Ej5B/8DabXtywn2VDApfyEXCiE6LDgBXykd55hCS7T5x++um6S3nkKBcQII2LGVDzjPA0FkkDbRqc5A4T8bi4NjJhJ4hDDjlEiSK5MwdER8V/7LHHksH1HsJgJ464AauMPsPqq6+e6r8+x0JER14xJDbDWYuHj5M803Ca8C7kRxacRA2BGYwnic7iq5ToSBssKAvpyWtWMBynkSDfSaIz41zLc9ov7wV5yyg/HH/88XnviH/KBaKON9zJeKpdPqKqjIjGjOsnTZqkZETadKjYXT8usiAnXHDBBXnG3DyHtGUEHzXU8c5cPHz8mk0WRC2nThAiDf19990XCEuDz+blbN7MridsIkAZINcV2NQZo3528onvPKIBYv+yYijmBVpeFpSOCCcBVCq8J3VI5jqjqOi0spFD8rs3D1mJjnejw1dIRLsU+GZcykfAie5voqO3Rm+W3iPExbZgxYQeMUfvMGooZxePYnHX4jMaAvCAEBjZsP3WtBJRK+v2bOwAwig3ucVVJfmijrC1Fbvq0IBT/oyga0Ws3rKDD3mvBgnYu0PAbLdFXWDUQ2eDUU818be0ptWvqLADmgDaB9vxZVrlxdPNjoATXYzossNWGz5plFHdZRVUUiuuuGJW7w3q74knnlAyyZIIjY5tj5bFf1PxU8vlYxgyimP0yD6NJjZSRqOAZsHFEZjWCDjRNWOiY4/N//znP5nrmKwqVfVp5gAN6JG5y7h6uFhS9e39WCzstHxWy+VjuMlKSp2DZQTHCIcRHCpLpND+mPrQ/zkCjYiAE50QHZPzthChEbFv8KRQs7BBb1ZBzcdii6YgsqWVqkGz5AU1XHzxRZYwTcFPLZeP4cfc39VXX53XKWHhBRuU+0HAhpL/TmsEWjTRTWvwPX1HoLkgIFvBaceEFcTMjbo4Ak0JASe6plQanhdHwBFwBByBqiPgRFd1SD1CR8ARcAQcgaaEgBNdUyoNz4sj4Ag4Ao5A1RFwoqs6pB6hI+AIOAKOQFNCwImuKZWG58URcAQcAUeg6gg40VUdUo/QEXAEHAFHoCkh4ETXlErD8+IIOAKOgCNQdQSc6KoOqUfoCDgCjoAj0JQQaNFEJ4d16pZX7KzBSQOlCruxc+rAkUceqburlBre/TcOAnYMCsfA7L777gUT5fgY9p+U89QK+mlpD6pZxzlV4e677w577rlnsKOnahFPNi9nVxs29Z5jjjkqfgVORKEtSpN27drVOYkizZ+7FUegRRMdlZWjQaiwHCdSqtgxHNXc04+G9swzz9TzziBQl8oReOmll8IxxxxT55ieZMzW+HKcULWE8+7Y/3HHHXesyS2xqlnHCx3TUx/WTQVDjpHiSCI7DovvM34uY33vUej5VlttVef4JPN76qmn5p1fae7+WxoCTnQVEB1ncL333nt6SChH+1RDOP6F876Ij6ODXCpHICvRXXrppYGjZiDFagkH1XLwad++fbVTVa14GyueatbxcoluWmPIeYvUCc7Ni0u1ia579+51tk+jLWjfvn08Wb8uBwE5O6oiEbVQ7osvvqgojmkVWPbny3HMfbdu3aZVFuqkKwdHap7khPA6z9yhPASGDx+umJ533nnlRVBBqMsvv1zTlpO6K4ileQSVkw4UiwceeKCkF5rWGMopGprvPfbYI0c5isZF7+Vk9ZLeo5Bn2h/aIdEwFfLi7hUi4CO6v0d07MAeV0ugxurZs6ceJBnvQDAnlzw1/IADDgjo0tMEdQcnc48ZM0ZHC23atFEV1g477JDXUzv33HMDx7awOe6rr76qUUnlj6JcYoklAunEhbPABg4cGJiD4sBTTmFAFcuJxMnDLomXI1VQy9FDXXXVVXWuZPDgwYE8HXroofGow+effx4Y4Sy33HIB1Yp81FFYdqfnVGrSQxgxsYv9O++8o6dMcz7csssuG+QD1hOs1ZP8e//99/XkaeJEnUeet9tuO42H05vJF/M39GzLlW+++SZcddVVql7i8Ne11147rLLKKuGUU05JVV1SlpSpyYwzzqinpdt9/Jd5lAcffFD/xo8fr4/mmWcefUdOMWdDY4T4OPEdGTVqlKqlOBWibdu26sY/TtQutaf+4YcfhgEDBoQ11lijKEZCJIovRx3x7giHxV5//fU6KuHw1UUXXVRVYltvvXWdulJqHUftz/wbc02cWICaFvUeaXJ6vM1jxUd01EchDT3SZ+GFF9a6vfLKK2te+VcuhpMnT9bRs0V02mmn1fmG7VnWX+rlu+++q3WJ74pvlZFutUd0fEPT8sDirHjUoj8nOiEGBFXhxIkTw+yzz66NNW40uEcccQSXkXDsDY0yYo1doTk6zuXabbfd1C/zgDRsMvrVcIccckjg/DcTFkJw/hqNqZ3DZkSCH8jlpJNOMu96yjFEzCnOxE3++RiRzp07Bz5wE+kM6XuMHDlSnWiMaJQQwqepSSGlffbZRwmRecOk2ubYY4+NzrrjHXlX8kED+sEHH2i8xM9xLZA6Asn26tVLr/H7ww8/6DX/4veQTzmntkP8++67r8ZLfHQ+4vneZptt6qglIUUaXMTKs9AcHSR31llnqV/Khg4C8YMhBEQZIXRuLr74Yr0mT1ZGRoQ8YO5rhRVWUD9Z/xEXHYP6zt+j0wLRcPQU+XzttdcUdytrThewOkZnxMrE8lFKHTfyIixkTkcjXq533XVXdBK3+aW+gTXHQlk+CB/3Wy6GkNKWW25JdCrDhg2r6inqRNpQRMd8HJ0/zvWjjBdYYIG/XsL/V45AhSPCXHNQXaI2kIY7J/MzualTp+Zk8ltVCbij3iwkQk7qTwgm1YuMIvS5jBTznsu8Xk4ayDw3u8mquhTS07hRo/zxxx8a/OOPP84Jyan7W2+9ZVHmpOFSNxnp5SZMmKDuQuo5IVp1T1OTyghUn4EBz+P5ld52jj8T3i/+HAxlxBaFl49XvZobuOHnyiuvVD9HH310Tgg+Z6qtp556yqIu6feSSy7R+Ijf1EDgwDvwV5/q0vylJQrGpmJ68803Iy/k+4UXXsjJaDxyi19UW+1GGZJPIa14MtE1+eQ59QCMqdMWRuYK1Q3P4GLuQipR+ORFsToupBZhK8SqQUm/d+/ekbvVNx5a+ZI/8w9uoqlQ/0LMyeT1vhQMqddWjsVwSk0oo+M555yjaVRbdRnPN9eiUdHyy5gt91YEgVDkWaZHzYXoaKxMrLGgssU/VHtuv8UaAfzIaFA/iFIa7ixEZ37IX7KBtcYk3qhbPu+9917Luv4+8sgjmr/6iC5OmnkRFLmhkSVe8igqN/VpRHfjjTfqvfS29Tl5Rp555hm9T+ZTH2b4R1r8fSyEH5c+ffqoexyT+HO7tvB2H/+FMOx5EvO4v+R1KY10Mmzavc0PGdlCGLjJQbXqHazJp4zS9N46bXRqIOW43HnnneqXhruQWN1J68xZeNEe5AUXtXeEVfz7sbrJXFdcRLWv/guVTykY8m1A4PYnqsx4UlW5rjbRido7RyeNuUtRieasvlKOMjVRlTy39Eic6P5uHGW1Y15dENWifnyihstzj98UawTwJ3MXGge9a0YvkCk9zmJiJJZGPhbOGjM+kKTQO+cDgWRN8IebEY65i7pR3dPSshEdo5j6hI4BpEVPnt456fGXHF0a0d1+++0apY00GWkgtmjE7tUx4z/ryZNmUiBO3r9QQ2r+8cNfIbEGCNKQuU0d1dbXkJbSSBdKN+5udQpyQESVqnlGe4DQWPIOMkeo96JW13vcIJj4n43oevTooX7T/hWr4zaCFpVjnaBW9mlEx7cQF8ia/JFWmlQbw7Q0SnGrNtGlpW3lCC6ijk3z4m4lIOBEJxUprTFHnUYlo8EvJMUaAcJMmjQp179//6ihIT7+aCBkHiM12ixER++deGT+q04cRoI0xibW6KBqioupnooRnSw6iQdJvTYVLXkCS9TAjChM1SeLazScEZ01jBA/YcSMQp/jj3tIpFQZO3ashk17F5nk12eVEt24ceNye++9t8ZFPu19IW5TlSbzXe1GWuZWNV0wZ9RsGFPGdDisEbZRuKkR6XhQLml/xXApVset3NNWlJpaPI3oaMTjIouY9J2c6P5BJV62Vpb/PPWrUhFwovu7cU4CVw2iszhRdaG+RMVjDST69zTJQnSokYiHRjcpfBQ8Y2RlYo1OUqUnCwHUbxo52IgOHIqJLHTQOGhoiS8usuJOnzUG0Rlpp3VaZBGJ5qNYg06+rWzi75B2DeExsqITYGEg8TSpNtGhfgRr3tM6NTfddJPmg7K30TuqVsRGXUOHDk3LXr1uxYhOdpDRdNNUzUbALZnoIKv4X71gJzzsv//+im9aRyLh1W/rQcCJrhGILl4GpqahIeAjSAoLN2g8aczSnuPfGnX8WINm8ZiaDjWbyXHHHadxMicXFz4g0qqE6KwhtXk2i59FPNbYNQbRQQBGOkn1sBgc67NqEZ29I7827xTHO/7cFtykkUHcXynXVp6mLaAOgLURT3wUzugZXFBxliPFiM7m1pJxW/0k3WoQXSkYskiHUS1/sq1fwZF2OVhYGBs117cYxRaMgUMx9bDFG//l++H7JiyL11wqQ8CJTioSjURSqjGiYyUi6qS4sFqRykslLiQ85w81VZpAgNZzl70DIy/MFzEHQ1hGMSa2IIEwNheJXz4+/FZCdGKbpXGgIosL82z2Ho1BdKSNupQ0bbELbpCeNRiVEB2qyTQ1dqH3J22ExpA82RzaX66V/Y9ja/Fa40taYuoQJSC2bFE5pM03MyostuFDMaIjnJVxfP7XCJdn1SC6UjC0uVrLV6HVqRFAZVwY1vURnWFHXgoRHbixeCcudNqM3Km7Yt4Tf+zXZSDgdnQFtgBjyx8MoaXHrvZBGHJgT4ZRueCsdh3YX2EP1KVLl8gYeOmllw6dOnXS5xjsYhfDPUax2AwRBjsj6ZUHjHXTREgjPP744/qIjYixB8PmSBYPRN5FVRbkQ9J77MPwQ9zYv2GnJI1hZHwqZKv2ZdjOYaODsThG5mY3VsyOrmPHjkU3vGYLNPmINR/yQWvcGEmTFxNsyjp06BDZ0UknQt/lxRdfVBwOP/zwIGSr9mfYLWIYb/aHFkeWX+wIsS1EwHb++ecPMoqNbLWSdnSiyg3SCYiixu4Miae94YYbqn3ct99+qwbn2IqttdZauhcp7ymLcDSMkGtYcskl9Tr+T+YOg3Q+1IkyBIfWrVvr+5ZrJ0XZHXjggRrnySefHDbffHM1ELf6wAbllJsJdYFttBBwwbYOo3FZuan1gPq26aab6vNS6zhlKw2+ht1kk03Ujo78mcRt466TTdAHDRqk9TZu62blRl3v16+fBY1+S8GwoezoeI+HH35Y8ySqa7WN5FvClhKh3lG2cbF9QnHDxhJby6TQnuCObSubQmDjKFoftUvFb7xskmH9PjsCTnQFiO74448PslhCiQ3jTcQMdovBy950ZthNg5PcRYWw7BzBziJU6jSRXmmQOZUgk/aR8S0fgvTy8rzLvJ8aMGMIbMKuGTR+9gGauyyMCRdeeKE2iPiH7Pbaa68AydDwWSNv/iFFdimpj+jwHzektvAYxNNAsWNGfUTH7hkYQmMkXAnRkTbkSeNgmGA4LiNZNfJPEh2dCfwWExqrrl27aoeFOgE5xGXWWWdVDOMNd/w51+SJnVJowExE7RhWX311uy3pV1SVUWfKjOspXzpcCJjPOeeceXGy68YFF1wQ1Sd7CGlTF8ut43T6aKzZKYTvg3ioVxAamwiwawplgBQiOtF86E4x7OrDnqBpkhVDmePW8rI46IjMMsssdlv2LxsLJL+ReGRpe5lmIbrHHntMO5JWXy1OOp98C+uss445+W8FCLRooqsAt8xBGU2xFRKjOHZdYeRVjQ/PMkBDw7EhkONiiy0WOHKomOCfPDGqMDJbf/31ox0/ioUt9oyRANuGQd7ko1WrVsW8N+gzUe0Get3khVFUcju0ShLnPSlPNt+mAWfUCJa1IozkqC/UE/JezboIAc8000yq8YB0abzRPFQT/1rBuZR8Ul/tGyYcI322lnOpHgJOdNXDsknHBAnRSzQCknmAIAtJghj9BlndFanXmspLPPHEE0omWfLD3pobbbRRFq9Nyg+kiWo1q6AWX3HFFbN6bxR/jOIYPc4888xRejZSZsTKyNXFEZjWCDjRTesSaKT0mdOB7CAENi5GZcIok1EJm07XNxJspGxGyTC/Gd8HMXqQcoG6DPVZrYmYnUT7hWbJu5iJ6EHBWfw2lh/msPljBMecFSM4VJZIoT1g9aH/cwQaEQEnukYEe1omRaPDfAnkZsLkP/MANFBNTcQoXufFsuQLko4vvsgSpin4kZWcgQ2UswpqWBbDNCVh7o+TP+KdEhZesJk388oujkBTQMCJrimUQiPmQcwKdPUo6j6fO2lE4Jt5Uhy7wwpjTmgotMiqmUPgr9eEEXCia8KF41lzBBwBR8ARqBwBJ7rKMfQYHAFHwBFwBJowAk50TbhwPGuOgCPgCDgClSPgRFc5hh6DI+AIOAKOQBNGwImuCReOZ80RcAQcAUegcgSc6CrH0GNwBBwBR8ARaMIIONE14cLxrDkCjoAj4AhUjoATXeUYegyOgCPgCDgCTRgBJ7omXDieNUfAEXAEHIHKEXCiqxzDZh8D55yxAbEcqFnSu5555pm676EcVNkou7FzPI0cRKvHC6233nol5RXPpbwnJxiwRyhn2tkRKxxHNC33DOUcODbqZmu33XffPfX92SX/7LPP1vPROPfP5S8ESin7+jCrtB7WF39jPJdDdYMc1Ksbdi+33HKB46hqWZzomljpQSgQBMd0HHnkkU0id0Yazz//fEn52WefffQg2PjhmyVFUKLnQuedZY0m63uyjdoOO+wQ7RvKeX5se8Wej/Fd/EmXg13Z6JgzCBt670cOCubA4OS5e/H3lxOtw15yXlyWcwbj4eq75rw2Ng3nQOHkWXj1hW0Kz7OWfZa8llsPmwKGtD+cZ0ldigttEocQ16zI+WQVifQic8L+FcXhgf9BQA6OzMlJ3Tk5cfsfx2l8JaOE3HnnnVdyLvbee299lwkTJpQctpwAsou+picH1pYTPJf1PWUjZk1HDizNCekVTevyyy9Xv3LielF/1Xg4fPhwTatYWX3zzTc5GWHnbrvttmokGcUhp6hr2sRfi5K17LO8W7n1sClgKIdGaznKYcU56aDm5LBnvadNeuONN7K8fpP0wyGJFYkTXUXw1QncFImuTiYzOtQa0WV8rZyc4acfvxwNVG+QpkZ09Wa4TA9NoZEuM+tVD1arRCdq7YjUuDY55ZRT1J3fWhVXXf49Fh8xYkS49957A6odzglbeOGFw8Ybbxy23XZbPRnchuxS0OHBBx8MHE8yZswYPaEZldR+++2np4ebPw42Pe200/S5NPh6Xtrrr7+uj1GT9OzZU09jNv/nnnuupssu8K+++qo6Sy/KHoclllgiJOdUUBVdeumlAR36VlttFe64446AevHHH3/UORgZcQTUaiYy0gnDhg0LY8eO1XdaYYUVAurFhRZayLxEv/fcc0+QHlx0zxl2J554YnSfvCBucOHUcg4HRVXH0UDvv/9+qFR1SdkwHwbenGLdpk0bVQOiPmzfvn2UlbjKCBxlFKVzhJQl2K288sqRX7vI+p68F++DfPrpp3osDcfmLLroohZV6N27t5Y3uN1yyy3qPmrUKFVxcrxO27ZtI7/Ul3jeowcZL2TkFFB1UadmmGGGsPbaa4dVVlklSGOUqrpkfpV6YUKd4Xy7NOH0dPB+5plnAgercmo4GFJvpacfBaFcOU4JeeGFF/R3jTXW0PMO9Ub+ofIif6UIZyVy8C7ly+GthYQ5UeYcmV/jNA4E7DlM+N1339V7MOZsw1VXXVXv4/+ylj1hqE+cu2ffF/HtueeeYfDgwVofDz300CjqUuphuRi+99574cYbb9Q0qYecN1mp3HTTTUFGcNru9e3bV6Ojru+yyy5R1A8//HCYY445ovtauXCik5KiwRgyZIiWGadw05DSsLHI4IILLghrrbWWPoO80F8z54LQoNsHxWQtlYRDQBHOGoMoEeKcOHGikgsNB9K9e3c9C05v5B8fK2d6kYad7RUnKc74ErWCeddfSASi4qNDtz569Oi858cee2x0sCfvwUINhLggc/JCviHLZZddNi8smEAUyPjx4/W30BwdDQB/CHGzUCN+7l0lRMchnrvttpvGzSGxNFxMlJOnQw45JK+xtgYGvHlOA2BYEkFaPrK+J1j36dNH8wFu1A3yw7E0JszRsRgFYqYRRgr5pdNAR6McIc59991XMSYP7dq1yyv7tDk6GkLKnPlFyqbYHB2NHHOLCJ24qVOnRvU8Xgf4ZuyEdMoJAfP4MT2USevWrfVZ1n92QjkNLJ21NKHD06lTJ62/5JUjpyDnyy67TL3TsaAzYPWQDgCHw8Yla9nTueXcxpEjR2pwMKF9QKgH1DdRBes9/0qph+ViSDn06tVL0+SbGzBgQJR+uRf9+vULLKQ56qijwnbbbYe2T88VtA468fKdN7UzETO9b6VD0VpXXb711ls6LO/cuXNOeqcRHH/88UdOeuU5IbLITQ4uVb/SE85JY67uqBrlg1F35mxMpAeobui2hXBy8mHmpMHIyUcZueMnKaWoLmWEE8XFnJ4QXRQd+nT+EBmlRv4Ig5AX6eWru3zE6lboH+/AX5owJ2PPwRIRks8JcUfulczRmdokqSaUHm3e+5KufIRRmvJx4pSTxj0nozl1l0ZF3Qr9s/co9NzcpUHV+G6//XZzKvjbEKpL5pPIKxiDNWL1GPdic3Sykk7DHn300al5lgZcn/M9yMgu8iMNek5ILbpPXlRTdSmdFM3D/vvvn0wmuue75F2l46lusvpV73F788031Y3vi7lR3Hgf6WxG4ZMX+OEvTWxOVrQ7OavLxEU7QJjkfHq59bAUDKWzHb1vjx490rJdsht1gvd56qmnNKxoaPSe9yENnsXbyJITmIYBWvwcnfSKtABFBVFvMVDRKWxR/+X55YPiQ+KZEWCc6EStE/mHQPHHn3000UO5KJfojGTicdm1TSjTQMZFDsosmhfza/m1+/ivzVeJ2i7unBs3blymuPMCpdxAwqRvH1+Kl8jJGhgajLgYMRUjAPwXe8+0+KYV0Vk+adzjIiNOfYdi71kf0Rlh0oiXIqU00lni7datm76LdQZFzZgTNWjO5o6s3tmiGhbYgEvau1unK/ndxvNhmMbd7NrCy9SGOekvxE+4QkRXaj0sBUMIh/aIP9qwaoilL1Mnue+//17bNOoBZWAkWKyzU408NFQcLZ7oqKRUVhrmYkKP1j4GCp9KEf+zZ9bjiRNdvGdMGqJy07hodJJSDtHRKBQTer3kj55pUmy0U4wo7d2SYbkXtafGLWrBOo+N/NMIvY7nAg42iiYuCJtOQ6GeuREd/uLC6I53oMEqJsXeMx7OiHNaEB3vTj7BIyk0xDxLa+zNb31ER0fMSIZOBgSDFgANQDGxRrJaqy6NtE1LYZ1MUb9rNuy5aVwY/Rku8e+Sa6uHolou+ArFyp4ViDxHMxIXUdeqeyGiK7UeVhvDeF6zXNviMTEtyJ1xxhn6btYuiDpT74t1FrKkMa38tGiik/kwLTwq8aRJk4qWQVw1giqy0F9cbUK8aSRkvSNTI8YTLofo4irTeFx2bWoHy5u582skWGz5e7FGwFSLaR+AqXYqITrKpX///lE5WV4Yncr8S/xVItVl0rzgnXfe0fDNgehkIZG+S7JxBQhZIKXPKiE64qEzYWRneNMIxzUT+ItLtRtpCI20+Y1rB2z0YsRnIz4jM76FQt9mWmfM3sHe0+7jvxZ3ksRNbZ8sC+twlVoPq41h/B2yXIMbOFgn4sILL4yCWRvCaK8WpUUTHQVmlbi+xphGtdjHkCx8G9E1BtEVmm+xPFkFxs4qKaYaLFaBi703HwPPkx816VhjWR+2yTyl3TPXhvpSVrJG5cBoMi7lNjAWR7H3ND/8TssRnTWuafXK5lQqJTrekU4goyVU+qb1AB9UWmlS7UbaRp6oK01Nef3112vZMz1AXg477LAoKzbqYu62HClW9tZhS6qKZaGT5qO5EJ2pf8GC+sXUhol9y8lRrT1v6r8tnuhMjVhsRGOFaKTIZHl9Ui7R2bwZadWnLrLFKPURnZHRzTffnJftuJqqmOq2WCPAAg+eJ0lHlrKrO8+qQXTxjJsqko8vjlFTJDqbH03O78Tfp5TruBYiqcK94oorFPNqEF08T2Bs3wmq5DQxtVeSDNL8ZnGzuWxIRHZb0VGaqQptMQ7lbWKaiXLnkIrVcdLneTJuW+hSLaIrBUO+fYiJv+R3bZiU+msdCt5VVnVGweParPo2SIgCNbGLFk90Nq9Bry3ZW6WAxVYtKjJbpcjQng8xLlQAm5/DvVyiI6x9dKyAKyZZiU7soTROPsh4Lw11I2mhBrLVe2npWX7SnlkeIGbIzYRVkhauEqJjjiaJNatJiZs049IUiU5sGzWvqHirJbaASuyooighPeuIVUJ0jBhtQVUUuVwwegLzQoRtCzZsDi0ettxrU/GTrsVrKkvc4loIU9vyHaP+jwtEjV8xwYk7510TH39pYiulGTXafDvfu6nzqkV0pWDYEKsu41or1P0mZ511lmIDqdaqtHg7OuzWMCbGBg2bpK5du+ovRtXYlMTt6DCkxbYH2xxsSdZff301ppXRUBC1mtrJYauFmB0dcUovOM/Ug/0I2UtOGuZUmxQMj7ElQtigFzsp7JPkI8+Lx+zoitlEEUAqp+5viO0PtnmbbbZZEFJXA3OeS284bL755lyqCMFHdlQ4YOuDmD0b1+x7h/0OYu9DHrfYYgu1YcOA3CTNfs2e1feLsa+Qs9pMYbSMXZz0pLUM2Fdx6623jqK4Tmy2Bg0apDaJW265ZeQuKjg10AdLbIVMSn1PCzd06FC1PRS1r9pDmnvaL/VI1Hr6CHw6dOigdmXSOIYFFlggLUi9bvY+eOT9559/frVnM5vBpB3diy++GGRRgcZLuVOv55tvPq0Hlhg4YxNIPcbmbJ111lE7P2zgXnvtNTUMJ4yMHurs50kc9913X2DTAwTD/KWXXloNxbGDa9WqlbqX+o96h60bAuZsbIDNJ9eIjLDyNnOwesg3R/mzXyz2lLw/vzJiUawIW0rZS0dL7Rb5fsAAu1U20CZOpJAdnRCX5kM9yT8rt2Q9tOelYNgQdnTkQ0bLahOIfS12h99++21kNyyd18hO2PJcK78tnugoKIytBw4cqAan8YKjIZc5Id0Vwtyl56zGwEZE5s7HBRFhwI0UI7rjjz9ed5IoVHFIg48ZsoBUEYxURQ2m1/aPD29P2Z2hPqLDP7tisGu9GbtbHBguQ+5xMYPduFvyOh4Oo1mMjONxS886yOIX7UBUQnTnn39+YAeLpLDzCo1o0jg5jejoxLATCQb8tuMD8ZX6npYHdqDBINwMa8290C8NLTulxA1vZYFN0V0/CsVl7sRJhwjsEeofu5ZgMJ0kukIYWlz8yryj1nMaY+nBB1ETxh9rAweRUA/ThA6jjPaCrETNM9KnU8KuOuUIu5ywKQAdBNtp5pVXXlHc2ZiB7ycufHOQI3UgLjTadEopLztdotSyl0VRQaYAtI6DOWTH5tiHH364dh6tM0i6hTpcheqh5bUUDGVhUKAdQaplME5cdIqpQ9aZwA1yl1WYZW9wQBzTWpzoYiVARWNLIUiBXvK8884be5p/yUfFFlzsNIE/tndid4amLnykjEDZxoeeaLm97bT3FJWRYsKokcalWkKPWtRpSvqzzz67jnBnmWWWakVfs/GISk7LErKHDKpZ//gGRI2pW65Rt2ulflOY4CLqch2NMKqjoS51d5ZClQIioD4Sn3U0IVE6B81JaN8Y9bK1GvjVujjR1XoJ1kj+2bZL5kky55a9G+lsNGdBk4D6LaugDmTbuVqT5lD2dGrjHUM6xaj5UIeKDV+knq61smkp+XWiayklPY3fUxYL6Fxg1mygZrUzwrKGqTV/7D35n//8J3O2UQejyqs1aQ5lz16hkN1GG22kqlg2nmZaAZUxal9TidZa2bSU/DrRtZSSnsbviRrMFkRkyQpzQc1BZVLsXVEPyW41xbzkPUM9WYsb6jaHsufkChaV2Zw5BcOiEhYkNfd6mlcJa/TGia5GC86z7Qg4Ao2PAHPyqJyZu6rmnGjjv0nLStGJrmWVt7+tI+AIOAItDgEnuhZX5P7CjoAj4Ai0LASc6FpWefvbOgKOgCPQ4hBwomtxRe4v7Ag4Ao5Ay0LAia5llbe/rSPgCDgCLQ4BJ7oWV+T+wo6AI+AItCwEnOhaVnn72zoCjoAj0OIQcKJrcUXuL+wIOAKOQMtCwImuZZW3v60j4Ag4Ai0OgRZNdGzBJAdKhjnnnDPIoYL1Fj7H5nAUiZwErOd11RugiXrgLCuOU+Ess06dOjXRXBbP1plnnqlHyVBu7FCfJhyXwlEvRx55pB6lkuanpblxOgf7iHK0C+cwViJsbMzem+zzyFFAtSjscvLee+/p1l5sms2Zd77jSS2WZD15rvTEWDmAMCe7k1cazTQJzynBnCrMqcVZRPa7U/+y43wW703Wj+y4ru8hh2g22TzWlzHpbOg7FDu93E5sljPW6osu83PqjBxUm5OzyTKHaUoeP/jgA8WN07srld9++03j6tatW0lRcSr9SSedVPC08pIiq8Dz8OHDNf92uji/Qtw5OXuuglg9aFNEoEWP6OjNbbrppropq50MXqxfMGDAAD3skROYOX23VoUDQIcNG6anhK+11lo1+RoccMsJ68UOdeXEZnrrnIzOESvVEE6Z5xT15KnS1Yi7MeLgxGhOtl9iiSUCp5xXImhEOMyWHfzZ8DircGgsp8NzULEQbtZgVfUnZKunhhMph/gutthiesAvdWqNNdYIF110UVXT88imMQKVsq+P6CpF0MOXg0CWEV058dYXRg6X1VGAkER9Xpv983JHdHI6tmIo6s5phpGovDUPcqZclAc5aDQa4cmhqpG7X9Q+Aj6i+3tE17t37zBkyBCd06F3x9wVPb24vt5GdL169dKzqZ555pnw888/h1VWWSXst99+YdFFF63TbeFomltuuSXQg0SYB6An3aFDhzy/zHFwnMkuu+wSVl555eiZVDE92p6zsDi7bJ111omelXLx/fff60GR8TCMTAqN6L7++uswcODAIB0ZfUdODaf3Ti88jgmnLYMdJ3+DS1xuuOGGIKqycNBBB1U0omJu9MEHH9QTnTl4lHLh2JS0ER1zcvfcc088GzoX1a5duzw3u/n000/D4MGDw5tvvhkmTpyo70EZiToucHK0ybnnnhs4P04a9+gAWVF12WMdIZU658WI6NRTTw1zzTVXHeyiiOVCVK/hxhtv1LLabrvt9BH1Akw46426xYnrHG1EPUx7V0YonBpustxyywXOt0sT6uFVV10VXnnlFY2XQ3D5Hhg9M9rZcsstNVh8RHf11VertgNtAcJZgj179gwzzTST3oOtncLNafGczs3xNmBtQhqbbbaZ3Ua/Dz30UGBeGdlwww0r1qZMmTIlmpumji611FIad79+/QJpIXvssYceqKo3/q/mEXCiE6IzmXXWWbXBomFBttlmm3DMMcfY42BEZw6cDcYHDCkQlsYXQjB5/PHHlQS45yyx6aefXhdQcI/qhsUgJiNGjNCzrVADQbg0fggnGNNIsXjgiiuuCK1bt7YgJf2SRzu0kzz/8ssv4eCDDw4777xznXikZ6uNFH7ID2o6w6Rz587htNNOi8LEG7uk+grsXnrpJVWVlXuOGmo2/hAwoJGMnwmWVF1yvttll12m/sePH6+/lMsKK6yg1/F/kBaNvZUf8YMNjTAdCsjNROb7wmeffRZYgMEvEi9rwsq8k3nP/LvDDjsE8kkDy6KoNKExpu5ZnSEPMk8YnnvuOfUO+Vv5UA+vvPLKqPG2+Dg4FKLmmBnw69ixY+oCEkgOtbAdKgppjh49Wus39SH+TVjZkwZ1BOzo8IAn0r17d63TXEOyLPwi78RjmMfPcoPEjcgJY0J5crgpUg0C4sRzOktg9eijj2rH7bXXXtP8WZqcNQfxuTQTBCodlDYH1SWT0PIR5lhogHz44Yc5adBVjYE6w8QWo+CfiWxk6tSpOempql8Z2ZjXnMz/5Zikx68QQOT+5JNPqhvxy2gwcudi0KBB+kwaNI2XSXvC41cawzy/ldzUtxiFhQKkKysbczJi06TAwTCRUWqUfDH1FQseiIf3KEek0dXwxGFpSuOas0UmuFeyGEVGfhr/UUcdpXhbHokT9VqaVFt1aXXn1VdfTUtO3Y499ljNJ/USoT7x7kLSOSF+dSNfMgpTdxlBq1vav/oWo6DKI27qIGWLCNGpG+7nnXdeFK2VPe7kUUZKiqOQR+Tf4ogCyUWpqstLL700ik9GjvGoyrp+5513ND7wQ/hWUUVTv1loxvvsv//+ZcXtgZomAqHSbDUXorOG1PCQUZRWeMjHxIiOhjEuMsEffYhGlvYx77rrrnGvek1DxMckC0LynkEqrPri2fXXX68NGdeiIs3zV+lNMaKzhpx0ZQSQl5SMrDRvaY1d2sq7SonO8hnvQJChcePGRXhXQnSiDtR4KOusYvhUa45O1I+aBxm1aRaoS3QwxPxD7+lIWQfDOh2sEk6rP5CK+TUCTL5XMaIjLeLlj45NXGR0o+5pZY//eMeAfFo8aeVj30bWOToxE9GV0by3aDvi2SrrWtSgmj8jM+tgQtAyMtZnpOXSfBBwovv7w7ZGxIrWRl59+vQxp5wRnTVK0QO5oOHj4xa1ljpbIx2f7Db/9mHR0CaFUYw1VsTXv3//pJeK7y1vaeYFjBpIN42gRb2qz4444ogoD9arbwiis568qCej9OzCMEprSM2PjfxovNIkTpiQCx2P+kxlqk10lgdGUIiNKHg/UfNFpM6ICRG1n5YBZcSIRFR5eX+48/fyyy+r/+S/YkQnqkcNS9pJkRWs+qwQ0clq1Lwg1mEjvaSUSnTJ8JXeW/o9evRQQgcvM7ew0V61OjKV5tXDVwcBJzqp5GkfNg0FHwAqTRMjOjEaN6fol94h/mUxhLqhYuE+jRSNaArZYpkKivAQX7XF0k8jurT3tvSNBE3lg3tDEp2YcSiGyZEv6ZIH8KmE6IjnjjvuyOtYEKcsqlH1Nc+TUm2isxEbdZBrOlbkgT9Uvrw717JgRrPCSMueQ36F/mRxTTLrel+M6MaOHatxpzXy1vFLI7pSOzlGNFlHdKkvUoHjqFGj9D0ZtZl2xaYGZE5Zn8nCogpS8KBNDQEnur8bFRqZuMiiBq3wNLYmRnSyitKcol9GQDRAtiwZP9zLwoDIj13QaPFMVjWaU/RrZGKNmc3XRR6qcFGM6Ex1w/L9pKDeJV/xRqAY0ZkJQLlzdHQESE9WXSazEs1/Vkp0RIy6mTkyRt8QDmkyUkqTahMdadjIk9Ed6VMv+KWeMKInP9aBkkUieo9bOVKM6FBVEy9pJ4Uy4FlzIDrZHSbCkHcaOnRo9Lr2nmwK4NJ8EHCik4pOZU+qrIyMZKVjVNpGdMxXxIXJbOLgj4YQsR6wqUTi/plzwm98kQrPWZxiKlBUWBAK/tJGXvH4Sr0uRnS2AITGjsUFcWEkS37i6tz4vI6srIu8c41f/solOuZjCI8KMy7xuKtBdMm4eXfShXiSQhnxDD/JzlHSb9Z7GlriNFJjxEEdYbSBeo1nNvdLnJY/G4VkTQd/xYguXpbJuK3TUQ2isx1JknOvhd5DVi/nsHvjj9FgpcKCJsMQfOPTFvZtpk0rVJquh592CDjRSSNCQxJvTJkHMcKJr4YzosO/LI+OSs0IwCa3ecBz/PFnq+VwF3u4yN3m83BH7CNjJR5CY2MfZHKxjHoo818xoqOxs9Hp3XffHaVAQ8soh/dhAUVcDCtZ7h45m8oN/+USHeEIDwZxEkUdjDt/lRAdasDkylfuDXOep4mlbaP3ND+luNko2t6Vubn4ysV4vSJeWyhFhyPeSPOMcio0P8fzYkTHczOkZs7SiJw6a5hUg+ji5ZrMP3lIis3Vgk81Vl0S/+WXX671J77i9pNPPonqFaM+l+aDwHS8SiWWEjJ5q5vqVmuLpUryUmpY2wLMwsnHrPZHMhpTY2Rso4TcIgPpuB0d9j/YwWE7JPM8GgVG39gnmcgHGqS3rvY62BRhR4cxMzZKXbt2DSeeeKJ5DWxXhd0W9nayyizMPPPM+gyDYGymkvZ1UcCMF2zijB0Vgl3UyJEjw6qrrhqwwUKwKcJGCcE+S9Rpeo3dFLZUhgnlLCPMMMMMM+hz/mFcjO0fwnthvCxkqvf8ww6uXDs6s8UDFwzchfwDBuQmcTs6ylNIkM6bPibP+Ge7trZt26obBsoYJiPYJ5JP4l1yySXVMJ5NAKTBC9SFuL2gBvj7n3RIAjaSCPZW4EP+ZM7nbx+l/cTt0axeUEe22morjYgtzOLG6GxDxsYC+AFXDNsxzJYRaHjqqafUlg1cTNhySzpKesvGAdjsUX/jxtnYU2K7ycYE2NFh60bcbJ4goyi9J4I0O7q0LcCs3NLKXtTdkf0iYTFIx/4O28XkRgqkWW07OuKMv+fqq6+u9rNPPPFE6reJf5faRsCJ7u+dUdh1BCIzofJLjzky3MbdiI7dJ0S1GBkO84wdLuINB24Yx/Kh0/jGBWNVGi4z/qZhpTFDxKwgtG/fPu5dDXshSBo0210iz0OGGzNMLuQ12VjRYJIWDZ4Ju2JAum3atDEn/ZXRlpI2u4uYYJzOLhk0kry/7T5hz7P+kn7fvn0j42jCyUIU3ckEwo4THUbIaQbH8bQgNTPsxsCdjgyEERcZOQRZ5BHmnXfeuHN0TeeGDgyEa2HZlQRD7XLl0EMPVbzOOOOMsNFGG2k07Cwioz3tACV3xCEPF198cUS4li7lCOFCViZ0wJK7xdgz+8Uge+GFF9Zb6uMFF1yg+aEDROeN9Mkb9QjDb8QIOll3eHb88ccXLXvRcij2lKFhSJ7j+SYepCGIjnjZGIAOHZ0hE4ic0y7olLo0HwRaNNEli5ERgairtIfOx1ufsMMCYdgho9iHQYPAVlMIPf8ZZ5yxvqibxHNGRhzrQqNKz57jWAqJ+RXVn46O4iO+QmFKcZe5T+2FgzWNb7WEfMu8pI52KcP5558/r3NTrXQaKh7qFqMTUVkqMTNyjW/RVkm6olYMrVq10j86FDJPFw4//PCKN4OuJE8NEZaNZ8uzpwAAQABJREFUrtF2sNF1rXybDYFDc47Tia7GShcVlCwDz5RrGjz2Jaw26WRKPOGJToHMdyZcC9+izoJ0ak1qtXwMZ4ifThkdGxM5tiYw4mRvUbah+/e//22P/NcRqAkEnOhqopj+yaTNK/3jUvyKjX9t38ziPhv2qc01Zk2Fw0HZGLjWpFbLx3Bm/myTTTbR+bnVVltN96h8+OGH9XFy/08L47+OQFNHwImuqZdQIn/0qm1T4cSj1FsWS9hcYKqHRnJEPWgLIrIkyZxXfMPfLGGagp9aLR/Djnll5tfYjNsEVTHzfmIXGS2Ssmf+6wjUAgJOdLVQSp5HR6CREUCFyXwrMsccczRy6p6cI1BdBJzoqounx+YIOAKOgCPQxBBwomtiBeLZcQQcAUfAEaguAk501cXTY3MEHAFHwBFoYgg40TWxAvHsOAKOgCPgCFQXgYqJrrrZ8dgcAUfAEXAEHIHqIuBEV108PTZHwBFwBByBJoaAE10TKxDPjiPgCDgCjkB1EXCiqy6eHpsj4Ag4Ao5AE0OgKkQ36ZdcWLHz/8L8bacLiyzQKmzTpXXYbZva2Li4iZWHZ8cRcAQcAUegyghUheim/BbCCedODl9+PTUMe+4PzeLQy2cLndb558yyKufbo3MEHAFHwBFwBDIhUBWii6d02Q1TQu+Lfw2H7T1TOPWwvw4PjT/3a0fAEXAEHAFHoDERqDrRMaLb+bBJYYduM4Yr+s7SmO/iaTkCjoAj4Ag4AnUQqDrRPfvKH2G7npPCf7doHa7uV70DMuvk3B0cAUfAEXAEHIEMCDQY0W0rC1IGnO1El6EM3Isj4Ag4Ao5AAyJQdaJ76fU/Q7d9fg4rLj19eOa22Rsw6x61I+AIOAKOgCNQPwJVJ7rxE6aGf2/+P0155ANzhMUWalV/LtyHI+AIOAKOgCPQQAhUnejIZ//rpoS+l/waZp91uvCfzVqHNv+aLhy650zhX3NN10Cv4dE6Ao6AI+AIOALpCDQI0X31TS4MGjolXDRoSpTq83fMEZZbykd3ESB+4Qg4Ao6AI9AoCFSd6H4Vblul60/h2+9zuvLykD1mCistN32jvIwn4gg4Ao6AI+AIJBGoOtG9OfrP0GmXnzWdz4bPFWZxm/Ek5n7vCDgCjoAj0IgIVJ3ozI6uywYzhJv6z9aIr+JJOQKOgCPgCDgCdRFoMKJzg/G6YLuLI+AIOAKOQOMjUHWie+zZP8Iuh/vOKI1flJ6iI+AIOAKOQBoCVSe6s674NVwwYEo4XDZ1PsU3dU7D3N0cAUfAEXAEGhGBqhDd5F9D2PPoSeGLr6aGMWOnavbvHzRbWHs1P6anEcvSk3IEHAFHwBFIQaAqRMd5dGz7Nfts04WF27UK3bu2Dhuu5SSXgrc7OQKOgCPgCDQyAlUhukbOsyfnCDgCjoAj4AhkRsCJLjNU7tERcAQcAUegFhFwoqvFUvM8OwKOgCPgCGRGwIkuM1Tu0RFwBBwBR6AWEXCiq8VS8zw7Ao6AI+AIZEbAiS4zVO7REXAEHAFHoBYRcKKrxVLzPDsCjoAj4AhkRsCJLjNU7tERcAQcAUegFhFwoqvFUvM8OwKOgCPgCGRGwIkuM1Tu0RFwBBwBR6AWEXCiq8VS8zw7Ao6AI+AIZEbAiS4zVO7REXAEHAFHoBYRcKKrxVLzPDsCjoAj4AhkRsCJLjNU7tERcAQcAUegFhFwoqvFUvM8OwKOgCPgCGRGwIkuM1Tu0RFwBBwBR6AWEXCiq8VS8zw7Ao6AI+AIZEbAiS4zVO7REXAEHAFHoBYRcKKrxVLzPDsCjoAj4AhkRsCJLjNU7tERcAQcAUegFhFwoqvFUvM8OwKOgCPgCGRGwIkuM1Tu0RFwBBwBR6AWEXCiq8VS8zw7Ao6AI+AIZEbAiS4zVO7REXAEHAFHoBYRcKKrxVLzPDsCjoAj4AhkRsCJLjNU7tERcAQcAUegFhFwoqvFUvM8OwKOgCPgCGRGwIkuM1Tu0RFwBBwBR6AWEXCiq8VS8zw7Ao6AI+AIZEbAiS4zVO7REXAEHAFHoBYRcKKrxVLzPDsCjoAj4AhkRsCJLjNU7tERcAQcAUegFhFwoqvFUvM8OwKOgCPgCGRGwIkuM1Tu0RFwBBwBR6AWEXCiq8VS8zw7Ao6AI+AIZEbAiS4zVO7REXAEHAFHoBYRcKKrxVLzPDsCjoAj4AhkRsCJLjNU7tERcAQcAUegFhFwoqvFUvM8OwKOgCPgCGRGwIkuM1RN2+MLI/4IV930Wxj76Z/hi69y4ZZLZw1rrzZD0860584RcAQcgUZAoOaI7vnnnw+333572HrrrUOnTp0qgujPP/8MhxxySJhtttnC+eefX1Fc0zLwl19PDSt1+Z9mYa1VZghLL94qHLTHTGGZJVpNy2x52o6AI+AINAkEao7o7rrrrnDhhReGgw8+OOy8884Vgfj777+HjTfeOPzrX/8K999/f+a43n///XDjjTeGNddcUwk3c8AG8nj/E7+HvY/5JXTZYIZwU//ZGigVj9YRcAQcgdpEoOaI7vXXXw/Dhg0LG264YVhrrbUqQr1convxxRfDcccdF7bddttw9NFHV5SHagS+9rbfwnFnTQ7H7DdT6HXQzNWI0uNwBBwBR6DZIFBzRFdN5JsL0Q0a+ls4/uzJ4QQhuaOF7FwcAUfAEXAE/kGgYqI74YQTwlxzzRV69er1T6yJq3fffVdVfYzAtttuO33666+/hiFDhoSRI0eGzz//PLRt21ZVgXvttVeYeeb8Ucn3338fLrnkkrxYt9hii4Ijum+++SZcddVV4ZVXXgmzzDJLWHvttXU+D7XnGmusEbbcckuNK050V199dbjhhhsCI0ZkvfXWCz179gwzzfQXcUycODGcddZZ+uyrr74KH330UZhvvvnC0ksvrW78Y85ws802i+65GDFiRLj11lvDmDFjwpQpU0KbNm3CSiutFHbYYYfQvn37PL/l3jjRlYuch3MEHIGWgEDFREeDPX78+PDQQw+FOeecMxUzCGTAgAGq7mMRCUR02GGHhc8++yzMOuusYbHFFgujR4/WsIsvvngYOHBgHtl9/fXXumgEDxDOL7/8UnCOjrj32Wef8MMPP+jcW7t27TRu0iHcNttsE4455hhNy4iOmwUXXFDjnn322QPpId27dw9HHHGEXv/444+aZxawEA9+iBOyM4HEjchx++STT8Juu+2mj5kHhNi++OILxYtFMDvttJMFrei31zmTw8BbfwunHDZzOHxvH9FVBKYHdgQcgeaHQK5CkVFObt111829+uqrBWM69thj1c+HH36ofvr06aP3J598cm7y5MnqJgSQM3+DBg0qGNedd96pYW+++eZUPzLy0+cyh5b77bff1I+QqLqRz/POOy8Kx3Pc+CNtGXHlpk6dmnv00Ucjd4sjCiQXL7zwgj6XlZpx5zrXp5xyivoTos979t577+XIUzXkt99zuZW6/JRrs8rE3L3D/nrfasTrcTgCjoAj0FwQCJW+yIMPPpjXmH/77be5M888MycmABo1xNG5c2f188cff+S+/PJLvYZcuI7LBx98oM9kkUfcOe+6GNGRlhHXxx9/nBeuX79++qwQ0UFeJuTT4pkwYYI5R79ZiU5GgxrPU089FYWt1kW/yyfnju33S27N//xFcof3/kWIvVqxezyOgCPgCDQfBCpWXX766adhl112CUIM4ZxzzgkyGgp9+/ZVtd4jjzyi8288X2eddcK5556r82ZHHXWUDo2XWmqpOkNk5r4QVlYyv5aUYuYFqBeZf0Ol+Nhjj+UFxXyA/BVSXZJX1JYmhx56qM7XXX/99XXm0rKuunzggQfC2WefrflBpfnvf/87rLjiijqnaemU+7v4uj+Fn3/JafDO688gi1BmDh1Wmr7c6DycI+AIOALNFoGKiU44P3Tp0kUBguTOOOMMJTscrr322gAR9u7dOxxwwAE6X3Xfffcp4TFntfzyyxcEVtR+YY455qjzvBjRySgu7L777jrfdtttt+WFlVFVIM40okuzo2Me76WXXtJ3WGaZZfLiykp0zOUx35jMy4477qj5nHvuufPiLfXmi6+mhpvu/T2ce9WvGvTFu+ZwI/FSQXT/joAj0PwRqMbgVFZeqopu3LhxqqaUxl1/Bw8enOvfv78+e+ONNzSpZ599Vu+ZQytHiqkuv/vuO40bVWlSZHSlz9JUl926dUt6z4l9nPqX1ZJ1nmVVXVpA8oX68rTTTtM4UYteeuml9rji3y33/lnn6K6/fUrFcXkEjoAj4Ag0NwQqnqMDkKFDh2oDbqQ2atSonIzicgcddFCuR48e+swWnbAghYZ+++23z8kKxpLxLEZ08Tk6WQmaF7fspqLpVoPohg8frnHxjqWKmC9oWMiV/FZDLr3+VyW686/5tRrReRyOgCPgCDQrBKpCdGInp403BMZoCgKLr1zcf//9I9BY6LHHHnuo/7vvvjtytwsWsxBfISlGdISReTiNmwUxRiRipxctiKkG0THKs3flfQoJKyuTzxnZWthC4Up1H3jrFCe6UkFz/46AI9BiEKh4jg7lbtwerWvXruHEE09UO7atttpKdb/YkjFHZ/L222+HAw88UG+l0ddFGsTBHpKi2tT9I9liy4RNnEX9p7fY22Fkvuqqq+rCDhxZfCLkqc8xPseOjvkx5taw0RNVo97joRpzdGJyoDZw2NIxv4dBOgtZWHDToUMHzQf/2Ivz559/VkPyhRdeWO0Gn3zyScWG98OmsBpy412/haP6Tg5H7jtTOOmQfGP7asTvcTgCjoAjUMsIVIXoAMBWKbIYZaONNlJM2FmEXVFYbQkJxEVUmLoKEuKKC+QEaVkcPDOj9Li/+HVyMQmG2hdccIGumoQEO3bsqOmTN+LCWB0xgk6G59nxxx+vBImxe9rqUPJ/zTXXqDE6xukIBMufCSci3HPPPXYb/bIYRdS6Yfrpq7NKcthzf4SdD5sU1l9zhnDHlbOF6f3Qgghrv3AEHAFHoGpEVy6UkyZNUhOE6aabLsw///xVWXpveRG1YWjVqpX+2WrNww8/PMj8oHlp8F/ywJZhkCGjPnZqSTObqCQjP/yYC6t2/Z+aGyw4f6uw1GKtwhnHzBxWXLo6RFpJ3jysI+AIOALTGoFpTnTVBkCUzmrSgMrSBDJlxIlq9IorrlBVqT1rLr+jPvgzDBYV5idfTA0Tvs2F80+cJaz2f050zaV8/T0cAUegfASaHdExf7bJJpvo/Nxqq60WMCJ/+OGHFSEzWi8fLg/pCDgCjoAjUGsINDuiY9Nl5tcw9jZhno6z4/bee++8zaLtuf86Ao6AI+AINF8Emh3RWVGhwmTFI5K2w4r5819HwBFwBByB5o1AsyW65l1s/naOgCPgCDgCWRFwosuKlPtzBBwBR8ARqEkEnOhqstg8046AI+AIOAJZEXCiy4qU+3MEHAFHwBGoSQQqJrp33nknzDPPPHo0Tk0i4Jl2BBwBR8ARaNYIONE16+L1l3MEHAFHwBFwovM64Ag4Ao6AI9CsEXCia9bF6y/nCDgCjoAj4ETndcARcAQcAUegWSPgRNesi9dfrhYReP755wNnMHJeYadOnZrsK/wum6UPO/pwzd+6J5wc5lps8RB3W+/k08KcCy8S5f+9u+4I79w8OHQ46NCw+CabRu61dvHJk4+HN2+4Nqy44y6hfddumbL/w4cfhD+mTAkzy/mVcyy4UGqYyXLm5tdvv8lh2GG+lf4dZp23bR1/o+8YGj5+fFiY79//Fhz/Om7M3NqtulpYredBdcK4gyBQ6RGzcohq7osvvqg0Gg/vCDgCfyNw55136in0N998c5PG5Jdvv81dvsxi+vf1O29pXid9803M7e28/L962cX6bPQdt+W519rNW0Nu0Pd4feDVmbL+1euvRZg8dXKv1DCvXHpR5McwfeHsM3K5qVPz/D9/5unq78Ge+0buz/XtrW4PHdgjcvOLfAR8ROfdHUegiSHw+uuvh2HDhoUNN9wwrLXWWk0sd/9khxHIdeusrg7b33V/aLviSkHIL1y/boe/3R4Qt/+LAoy4vH945ZKLwib9zgvL/bfxzoSMMlCliy9eeSl88MB9YcnOXcKi629YNNapv/8ehm7TNTCiQ1bYYeewUd+z8sK8fdON4bk+p4bWs82mo91WM7QWnC7U0XHHo47LG6W90K+PjiYX33jT0PWqgRrP82ecHt4afF1YolPnsMUVA/Li9pu/EHCi85rgCDgCZSHQUomuFLBeu+bK8NIF54SFOq4TvnjpxbCCqDs36tPvnyhETTmk84bhp88+DZtfdrWSJw/fveWm8Ezvk8IsbdqEPZ97JbSa/q+zJZ3o/oGulCsnOkFrxIgR4dZbbw1jxowJU0SP3kYq10orrRR22GGH0L59+zw8ZUAcHnzwwfD000+rf04Lx+9+++2np4ebZ44LOu200/Q0cY4HuuGGGwI9dWS99dYLPXv2DDPNNJN511/CEDd/48ePVzeM8enV77rrrnVOX//666/DwIEDg6iP9aSGxRdfPGy88cZ6JBEntieFPIwaNSocfPDB4aOPPgpPPPFEePPNN/Xk8y233DLstttuySD13pf6nt9//72eD8gxSp988onGv/DCC+thuHvssUeYTXq1JpdddlngHRdYYIHw0EMPBd7v2GOPVSyfe+65sOyyyyrG8847rwXR+Y0s5RMFyHgBbuBHWcwwwwxaRh9//LHme6eddgodOvw1irHowJdR2ciRI8O4ceMU4yWXXDJwJiJHRiXLB1wuueQSC66/W2yxRdER3SmnnBI4wb5v3746p/fiiy9qneTQ4b322iusu+66efGBp9Urni+zzDJ5z0u9qYTo/vhtSvjooQfC9x99EOZebInQ8ejjwgId1qyThT9+nRxeu/pKJYmJ4z4Os7dbICy8zvphjUMOCzPMPEue/6ny/bx3521htPxBHAjzXIy6Vu3RU+bH5on8fzfmvfD+/fdqvD+M/TDMNMecYZ5llg2LbbRJ+L+ddwvTtWoV+eWCkeoL/U7Pc1t22+5FR3Q/Sv2+qctGof0W3QLzZ8/LaCxJdBPeeD3cueO2OprrMeItSXf68Ke0QUO33jxM/ORjTW+rQTeGRdbbQK+d6PKKIPNNiyc6Gltr4P8lE8UQm8w5aoNwyCGHBBoxExr1k08+OdDIIiuuuGJ499139Zoz76688sqw1FJL6f3vorKAdJAFF1wwTJw4URs7Gm6ke/fu4YgjjtBr+0cDfdZZZ+ktjTqEO3r06PDLL7+EAQMGhOWXX968BhpZyJJn5Js0LC+dO3dWAog8/31xwgknaN532WWXIPM/6kq+iYPfxx57LBmk3vtS3xPsyAcCVjPOOKO+I/eLLLJIuPzyy3WnHe733HNPJWSuLZ9cI3YPaRx99NHqVkr5aIAS/kEixx13XJQueJN36g9Cua2//vp6zb9LL700DB06VP0vscQS4YcffohIZoMNNghnnnlmHtlRL6hvCHWFMqFDsvPOO6tb2j86TAh1lI4aYrhw+HCfPn3Uzf7F8bzwwgvDmmvWJRbzm+W3XKKbc5FFlYjmXnyJqDEnvT2eGa5EZmlPmvBVuHePndUPar1/LdleF2vw/F/tlw7b33lfHtlBcE+deJwG5zkkx+IOFsh0v+NeWeCxskUdXjirb3jz+kFKMPMsvUzgXYwcUUlufulVQQoo8v/zl+PDPbv/1RZM/v47jXOd404Mq+y7f+Qn70I6xPfutasS6R5PvxjGPvZIKtGNuefO8MTxR4elNt8ydOl/uUZhKl6Lb/1TTg8r7ban3jrRGSol/uZP2ZV+V+uLUaRXrBP/0lvPe/n33nsvJyST53b//ferX2lYcl999ZU+++mnn3JXXXWVuh900EGRfznpXN2kV52TUUhORooyrzw19+ijj0bu+DGRnnmuW7du+kxGWeack8Y798ILL+S+++67yI2Lk046Sf1Kg5kjLCLklxOSU/e33vprcYA++Ptfr169orTJ8+TJk/WJnNuXu+228hYIlPqeQsa5e+65Jzdp0qQoa9Kw5w477DDN27XXXhu5ywhP3WSknZOT4qO8826EB1vKwqSU8rEwWX8pA9Ljb9CgQVGw++67L8oHZWVCOcvqyahscP/888+j8nnttdfMa53frItRLD/8yuhR6wqRsTiM+6QYnvh/+eWXk49Lvv9T6t2Et97Qv99/+as8//z99zpuFrEtRmGxxRev/JX+pG++zt210391McVrA640r/o77Jgj1P2Rww7K/T75F3X78dNxuQf231vdWcBhQl6uXXs1dR8/4hVzzk3984/cx08+nmORTFzG3He3uAtmf387PJs47pPcNauuoHF8/vLwuPe86yyLUUbfebvGM/KaKzSskKreP3XKCXlxvTbgKnV/ts+p6v79Rx/q/T277ZgbfsE5ev3yxedHYX764nPF94exH/3j9vlnddyih36hCLT4VZcyqtKG6qmnnqq3SsjoQf0mGxEaeyMYI8A4AdBImkBK1kBNmDDBnJUIzT1JapGnvy8g10J+IQqenXfeeclgOSM63rlaUup7FkoXTMm3jJgjL9YwG4EY/qSJiDpXcbcA9jxL+ViYrL9GdJQznRYTOi/bb7+95l32fTXngr+UC+951113FfRTKtHdeOONBeOKPzjqqKNyYMSfqNHjjxrl2oju1q265KX3xnUDtUF/+rQTI3cadFt9yHVcvhk9Sp/dsEHHyPmPX3+N/EOe5Qp5IN23bx5cMIr6iA5ShTAHd1o/JyYFGk8homNlJem9fPEFQsp/5u7aZXu9nyidVlZ18uzJE48rmBd/kA2B6fBW4iAwz3utb+r8wAMPhLPPPltVPtttt53OuaCSnGuuufLeU0Y/AZUggooNtVVcmJNBTCUUV+k98sgjqrY0/4ceeqjO111//fV5c4DMtchIQONnzoy5P+ahZp55Zguqv6S1p6j1UG8OGTIk7xlzQocffnhYY401wkUXXZT3zFSXqF8333zzvGfl3pTznqiGZSSk6lch+4DKUchLVXvxfPOOvCt2ZQgqZlSFds+8KKpd7kstn1Lf11SXHTt2DOeff35ecOoP9ej000/Ps3uTkWeg7Hlf6bxoGBmZqhrzgAMOiFTmeZHJjZCg1qOsqktUpAstlG6blYx7Wt6bSm61/Q+UObnjo6yMf/WVcM9uO+hCDBZkIJ89/2y4f9899LrNssvpb/wfc2zIfq+PCq1F7Y48fuyR4f377g6oRJfrvkNYYNXVQ9v/WylPvake//735chXw5h77goySpQ5uG/U9dcfvlc1Jvkjn2liqyQLqS4tH/G5tbfE7i5tjm74+eeE1wdcqSsr5158yfDkCceEjsdI2vsdGF4feFUYft7ZYcWddw0b9j4zLSvulhGBFk90zIWwoENUd3mQ7bjjjmH33XcPc889t7rTwNpcHgsKCgl+/i3GnEYAzJ+JSi3P+zHHHBNYjCGjr7wFAZ9++mno3bt3eP/99yP/hKfB32abbXQRBA9eeeWVIL3zsPrqq4f+/ftHfrkwEoSMb7nllrxnRnTMH6266qp5z8q9KfU9LX+WHvOOLCaRUaoujIHcmetEeO8vv/wymjvcZ599FBsjugMPPFAX4nBfavlY+ll/jehYICJq47xgV1xxhc550oGh3iCins0jRMqK+TPy+dlnnwXehb80KZXoRBsRWrdunRZVk3IzokuaF9iCDJ0b+5voRt12S3j6lBN01WF8bi35Qpued1GYac6/OqUTPx4rBuyHhW/efSfyxqrFDgceKmSxW2gli4hMbFWj3bMqckaZB/zhow91TnCNQ44IaxyaP4dufosRnZH2Qmt2DJtd/NecG+HevXWImlYss/W2Yd1eJ8vc4KxKwG9eNzDIqE4XwYx/9WU1sN/+rgc0ry9deK4sxLlCFt4UzovlyX/rQSDbwK+wr1qfo7M3Q12I+lJWSqpqCfWSEII9zsligsg9cixyYSo95t2SIosnNC7mntJEVunlmG9izo988CeLOCKvzHPhJqs5Ize7YP6KZzJiMKfo11SXhK+WlPKeqPlkwYXmTzoX0RwheUnLN6pLVIUmvC/vZsI72n2p5WNxZP011SUYJkVGeJoPGdXpI+YcTZVNOJtD5eHgwYPVb3yeLxlfqarLZPimem+qy6TBuBlUP3zw/lHWxw57VNV2ccPo6GE9F8xfjbr91kgNiPrv4yf+mbOc/MP30VzcJ089kTdPx5wa/sXer2AqxVSX7919h4YnjmJ/NnfHXGHcH3OeJjIy1GfF1Kjm13+LI9Di5+jS4GH+ggYUkqJxNrHGS5Zom1PB31IIoGAk8sDm3GQFXeTtG5kDIH/kJz5fhId7771Xn8X9W8BpTXRxMpKRtGVLf5mz4p3iBF0K0RFJKeWTl3iGGyM65uPidYKg1iF59dVXNaZnn31W3yW+OMmSYA6S95wWREddOuecc/SPzlRjSylE9+2Y0drIM8/FgpJyxdJkYYvJ2Mcf07iZD0sKC18qITpI+4njj6rzd3PXTaP34TkLYZBv3/vrPUlTd0L5O0PM19nCmPEj/6pXfz/ynzIQaPFEx8rKeI8bDN944w1tjGg44yJzXuoOiSTDsIIxvpKtVKITFWAubYQn83iapqg0o6zQ0LIQgwbz7rvvjtzJgy3gEFOFyN0upjXRGSbk+2OZbDdhBGQLSSohulLKx9LO+mtER96HD/9nRd6HH36o5YD7//73P43O6g8dpXg9YbEK/vibFkRndYP043U1KwaV+jPSyTKiYzUki1YggHduHlIn6UlfT8h99cY/C2pY7fn1O/lbjhFoxBWXahyi0oziEBWhurFKM77q0kaWlRBdlEjiotBiFLzdtu2Wmp+RV/+1QhO3MffepW4QfXIbMJ67lIbAdHivR7tZ9HGtL0bBTkmW1+siAgyXmT958skndcEAdlNsrGsiDVnABg2bKIxtsZvC6BuDYFF76oIT5leQUueuvhWDVObhiBejZAzFMVKWFYQan6ysCxgcm8Tt0QjXrl07zTfze9h4YSeHYXNcbI7ummuuCSussEL8UdnXpb6n5WG++eYLXbp00bklIWvFlEyUO0dH2FLKB/+liM3RWRjmYpkXYyEI87wYYPfo0UMfc89cHfWEOUjs5riOzwMn5+jYxNkWrLDAhkVFzKOyMAphfk+ISq/tn9nR2ZyluRf6tcU9PLdFU4X8NoR7KXN0pP/layPC3Tt316yw5dUCYpT/pyxa+nbUu0FUm3nG10J84Yb119ItxzCunrXNvGpDh1E4stMDj4Z5ll5Wr7GrG9J5A110wvwfc4OTv/tWt9ZSD/IvOS/GYhJbsDLhrTfVPo55uPlX+Wuuu/Vss4fVDzjYgtf5LbQYBY/Y2D1y6AEaZpmt/hOmn2nmwEbNSKdzLgjLbvNfvfZ/5SPQ4omOFXQsHEgKDZWonsL000+f9whj3osvvjg8/vjjee4sGpFRSbTAoBgBHH/88UFGCLrThhmYQ7a4s1NJXGjgWEXJKsykQK4YKtOwmrBqkVWVGJsnBfenn346NBbRpb0njTmGzDTkJpC72NGpwXQlREd8WcvH0s76a0QHObNyksVEJhhsszAmXlcw3mcVpu1Egl/CrrzyyuHcc8+tsxiFXXjifi1u+01b1NRciA6j7ju6/yfPaNreW1R74emTe0WG4ubOHpqr9zw4LNllC3WaIouZZFPj8OWIV8yL/mJovv5JvevsrckCmGHHHB4ZieOZhSILdlgjPH3qiXWIbsimG+T5zUtEblj0sveL/9Tp5HNbwMKuKxv0PiP5WHZpuSc8c9pJaojOQ/K9rixaYW9Ml8oRaPFEB4SiXgpi/6a97tlnn11HR2ztVUwgMjEA1mXtrBps27Zt3k4XxcIWe/brr79qXhid0LjNP//8RVfUMSBnZSINPFs/xbfQKpbOtHxGnmWeUf9YHTrnnHNWPTvVLh8jOkbPrJplhEadYdeTpPmHvQxmE5gW0BHBX3LLN/Pnv/Uj8Jt0BH+ULcCmm65VmF22hItv5xUP/cfkX8L/BPMp//spzDJPGz0Sp1WBFalsGfaTmBb8NunnME/7ZWQV5MzxqBr9WlSU8o6fBLH8D3MvuVSdbcgaPUPNKEEnumZUmJW+CnZfY8eOzRQNezUyykyqRzMFnsaeynlPTDpQZRvRTeNX8OQdAUegBASc6EoAq7l7xcBclrZnfk325kwa1mcOPA09lvOeqCKd6KZhoXnSjkAFCDjRVQBecwvKQhYW42QVFlnUgqFy8n3KeU8xHVCiYy6N+UQXR8ARqB0EnOhqp6w8p46AI+AIOAJlIOBEVwZoHsQRcAQcAUegdhBwoqudsvKcOgKOgCPgCJSBgBNdGaB5EEfAEXAEHIHaQcCJrnbKynPqCDgCjoAjUAYCTnRlgOZBHAFHwBFwBGoHASe62ikrz6kj4Ag4Ao5AGQg40ZUBmgdxBBwBR8ARqB0EnOhqp6w8p46AI+AIOAJlIOBEVwZoHsQRcAQcAUegdhBo8UQ3ZMiQwJ6Ncbnqqqtqcg/H+DsUu+b8Ms4/46y9Tp06FfPaZJ+deeaZ4ZNPPglyYrae3ZeW0euuuy7IIajhyCOPDIsvvnialxbnxkkXZ599tp6TJ4fcVvT+nM5wyCGH6IkZHHdVi8JpIe+9956eRrH00kuHhRZaqCqnkBgWX3/9dZDDefWkC86Y/L//+7/AaScujYtAiye6++67L7AzPcJZbQhuVMpakEcffTRwCCvn53GWWxbhcFgO3jz44IMDB8/WonBwKXtW8i4c4pomJ554Ynj22Werev4eDSMkS/2AQGtNaHQ5JLZjx46hUnIqduZiMVwoNw4SXnPNNfMONi4WpiGecaYgRy7FhcNu6TxxDmQlAjbnnXdeeOihh+pEQydzATlqyKXxEGjxRBeHmlOjGSXUEtFdccUVepp43759w8Ybbxx/nYLXr78uh07KyeUbbrihnmZe0GMTfpCF6ChHeuuUK6euV0M4J3CLLbbQ+OInhlcj7saIg5Psr732Wj0fb/vtt68oyXKJzs7246Dio48+uqI8lBt4zJgxYd9999XgdBI5y5EDmCFhDi/mhItKBAKFSDlTslu3bhr/hAkTwiOPPKJxt2vXrpLoPWypCMghmBXJ22+/nZPDJSuKo6kE3nXXXXPrrrtuTk7BbipZqjcfl19+ueb5ySefrNdvc/Kw995763tL49Gor/XTTz9pukISjZpuU0zst99+UyykIS8pey+88IKGkxFlSeGq6VlGbZqHSy65JIr2448/VjfagI8++ihyL/XinXfe0XiEyHNyanxe8KlTp+bd+03jIOAjuljPIMuIDtUVaheObRk3blxYeOGFQ4cOHYI0vKHQqeQjRowI9957r+rqhUQ1DKMverScaI5wyjm9PWkEgnxkemI46o1ll1027LHHHhrGssq80y233KK3o0aN0vmFZZZZRk85Nz/77bdfaN++vd2G77//PshHHd1zwchkrbXWynOzG+YWBg4cGKQjE36W052Z47I8c+iqCfM0p512mr47GNxwww2BESOy3nrrhZ49e1Z8svYDDzyg86jgsuKKK6qa9pprrklVXYINPfO4MBdVqAf96aefhsGDB4c333xTMac8mKuhF77++utH0Zx77rmBspPGXcueB9IgRs85QbzUOS9GRKeeeqrOB/fq1SuKK3nBWXjUOcpqu+2208fSPCgmqNsZnVD3UF1T7mnvygjlxx9/jKJebrnlwk477RTdxy84/Z15alT6xLv22mvrXC5qYkY7HLiLxEd0V199ddGynzhxYjjrrLM0HCezU5aonMHahPnizTbbzG6jX9R/zCsjaCG6dOkSPSvnYsqUKdHcNPV1qaWW0mj69esXqRr55vbff/9yog+nn366akwYrfKNu0x7BJzoYmVQH9HxgVD5+UjR4fOBcP3LL7+ERRZZRIlhttlmi8UYtMFgwQuC+qxNmzZRmAsuuCAiGhoCGte4P0jGREZuYeWVV9ZbiPPiiy/WawiJ9FGRxA9BZX5qhRVWsOABfywcQEiLMIXm6KRnqwRl8ZJvGlukc+fOSmx6I/+sseMef8QNWZAe0r1793DEEUfodTn/ULPxhyy//PI6qf/DDz9EUSXn6JiTu+yyy/S59Kb1F1KMY2GBIS0ae/JKeRI/+adM11lnnQC5mZxwwgl6Vh/Ebmf2xRe4EPakk04y75l/Od+OfNKYzznnnKnhaIwHDBig5+GxgIg8nHzyyTo3SwDI38qH97jyyiujxtsiPPDAA5WoJ0+erB2jQnN0kBxqYTCmTkGao0ePVnyoD/ET1kspe0iWc/zIO/EY5vH5VUjciNzyzS/leeutt6pTJQRkcYoGSjtLYMUcNx231157Le+cQc5ahPjKEea9qSMscuNd6fjNOOOM2vGM15ly4vYwZSJQ6cCxJaku5fRtVUnIx5aTBlGhk9FOTshP3aXXnQfnW2+9pe5CDrmXX345eiajt5yMyHLSOEVuxDNo0KBcXBUno8ec9Kw1joMOOijyG78oR3Vp73HzzTfHo4qupcHWNGXRRY68Iqh1eA/UOryXiamvcD/22GNz0hnIoZ6RBkT94o6fckQa3SgOS1Ma15yQTuQexyuZhvmL4xz3IyM/jeeoo47SPNsz4kS9libVVl3KKEfzIBqCtOTUDVzBURaS6P3999+v90LSORkdqRv5qq+u4PGDDz7QsDLa0HDJf6jySEtOU4/KTYhO3XCXBRZRkHLLvlTV5aWXXhqlLyPHKP1yL0y1CH4I3xmqaOq3aFU0Lb7pcgWc+ON7tmv7Bb9yv4dy8+PhRP1RKQgtiehsXkhGDXmwjRw5Uit0ct5G1FHqLqqxPP+l3NDo8pHwEaZJtYnOGnLSTM5VyshK81KosYuTAwRpH3cxMkp7J3MzQu7du7c56a+ojDPFXR/R0TEhj6LWy4u/2I3hkyzrYmGKPZNev+ZBRm3qTRaL5OhgyMo8vafTYB0M63Qw90O+ZUFRXtQ0oObXCDDPg9wUIzrSsjKjYxMXGd3os2qUfalEJ2YiOd6ZP9GOxLNV1rWoQfVdjMyMkOic0SkCA9IqR6x+GI7gNXz48BydKisbWcRUTtQepgIEnOhi4NW3GMUqqqh1YqFyOoqxim2NER5oDHGnYc4ifCSMsmigIVXyY3kinrSJ7GoTHaMG0iLdpIjKVJ+JKjJ6FO/Vy4rEyJ0LUZWqfxrXcsR68qKerBPcyqIYidZHdHHChFwgjvoWVllDVi2iszwwgkJsRMH7iZpP6w7lwagOEVWYYoobIxK0C/E/3PmLaxA04N//ihEdWgrCknZSZAWrPitEdKWUfalEl8xLpfeWfo8ePXIQOu9sI1wb7ZVbvuBgZSCq2rys0kHmWamLd/Ii8ZuyEHCii8FmpJIcyeAl3sDQACXFGl7UbQh+rMJPmjQp6b3OvcydaC/SwtCI0fjZqBB3VCxJqTbR0UCSVvIjJV0jQVP54GZEl/bx0ngQlyyWwGvJcsopp2j45MiFiMgDcVdCdMRzxx13RD1t4uMPzE1NiJ+4VJvobMRG/eG6T58+mgfDjXfn2rQC1jDjBvkV+pPFNfFsR9fFiG7s2LGaVlojz6pe0kwjulLL3ohmWq26lAVc+i6M2pgS4L1sdaSYBOi9LCyKMCvlIj4qTo7c7FshPaYqXBoPASe6GNbFiC5egZOVNK6mg7BMjPyKNcbm19SCzBfJCklz1jkyPgz+GoPoTHXDiDIpNucYbwTs4y21sUvGnXYvRu363rLqss5j0gOTYtjWN6KzSCkz5siYn7IyY5SUJtUmOtKwfDK6I31Z7aq/kFv//v31PWU1qWYHbYLVh7T81edWjOjo4BE3eUgKZcCz5kB0sjtMhCHvNHTo0Oh17T1lsU/kFr+gHbC/uHv82upmct413k7UpzmIx+fXlSPgRBfD0BaVMPmeJjaKSC5usF52soEw1V0WGzcjWVn9lZe0jaL4INOITlbY6Ucr5gt54Yrd2NxX2mIUWwDCu7CwJC6kQT4YdZg0JNExH0N6qDDjIiv4ooaqGkSXjJt3J900lTOdHJ7hhwavGkJDS5xGaow4mJdktIF6jWdpHSgbhZSSh2JEF+/MJeO2Tkc1iI45K94pOfda6D0ef/zxHHZv/DEarFRY0GRlDL7x6QbyRN6SC8tI074bnvNXSFNji4fovMYlvqgn+W3F/fl19RFwoothamojJqfTxBoisRvLa+T4+Kn4Z5xxRl4wIwYIMj5KwxPk+Pnnn0f+URUSB3MhJnyA9akuUb0RDjVfVrEPNo3oaOyMdO++++4oShpaRjmkxQIKk4YkOlSepEejBLmZsHADd/4qITrKIDk6594aQZ6niaUtZghpj0t2s1G0vStq7/iqVVs0YRGzeAa/1Nd4I81zyqnQ/BzPixEdz82QmjlLI3LqqWFSDaKLl2sy/+QhKTZXyztXY9Ul8ZvKP77iVnZFiuoVo76k2Ldm5c90RpqYmpfvBVI1YVENYfm+XBoXAbeji5llYDSMbRmCATbbAmEQblsFYftjdj7YIbEvnkxeR/ZMQhxh0UUXjWKUBkuNiLFDwiapa9eu+itzIWo3FbejY/87IVK1V9p00011c1lswqQRjOJ74okn6hhfE5d8UOoHWz6M11u3bh1kniVvPz3ix+AZIT+yUlTzjw0Wgk2RxcPemaJOU3fsprClko9XDbSxleM9Z5hhBn1utlS8nyx7Vzf7Z9sgYQcHnuWIxcG7YeCOzRkG5CZxOzoZ8arRsnxC+pg84x8D47Zt26obBsq2kTVG1EL6Gu+SSy6phvHPPPOMbgMnDXuevaClx6/0+oOMMtQJeyvwIX8y5xP3lvnaMCTA/7f3JmBzFVX+f7HEsAUXwICTgQFhzMAzEgSGZYYfgRCWELZMxDGybxEkhD38USDD6qBhyEAQBvLIDoEwIoqoETMom7LGQRbFII6TvwiD6M+gzGD6dz5HTll939vd93bfft/uvOc8T/e9t26t36pbp+pUnTq0EXQg0WPbb7/9NA70O1NldI4hmzZtWjwoAMX2kSNH6gEGixcvVj1GcDHiyC0RO+sjBwegs4f+Wqqcje4XepjC1FSPDv0v+wZkFqX6YESQp0dXtu5lcBT1FwmLQjq6l+gu0n6zVLUeHfGn5dx22231SDS+L3C3Osjmg7ZCmzGS9dPcQyLQt+U8UXTp0K+kftJ2i34mZXUaPASc0WWwprFzCgVKwxANFWVdI9xR1jWlYdzp/On88pSS6Xw5YcQUXi0e4pWZYTzxBKbIySV8TEZ0ApxhKbM1/QDzGB1+6cg4KcVOJMENpskHbGSKyfacvWY7KzpMTrKgwzPiVAzKjtK7kXXS2fC8nzVrlp70kp4+YeGKXkkfDGC+RjJD1pNMYNgpo0sHIuY3e4VZmmI3jBllcjq3lGTUHUT81PCUeZTKRdyoDNfCcioJitrt0owZM7T+RCoQxo8fr9FwqgwDnbyOkTxwaIAxXEuXeoDhovRtxOHN2dNi7J1daZ8M6iCZ2QQGYbQnBkAM6uiYyRvtCMVvqJO6F5G8Yk8dGobkOc23JiJ/3WB0xM23zIAOJmQEI+ew7tVWW82c4pW2xmHoRo0YHe9RkKdP4AQlI7CUDWaBgazT4CLgjK5NvBkZY/Jk9OjRDTvENGoYGf75AJqF4T0nN8BM8DeUxMyIPNOpMrvNnvoymHmTTSA6CudkCTqMqogychoIs106NzBPT5ipKp1uxQOzYXYiIktth8xc0yPaOklXxIph1VVX1Z918jNnzlRpQSfx9lpYDrqm/jnGjRNMqiQGuiIC11NvONIPPJ0GHwFndIOP+bBMEeadjm5bgYA4a6gZfas85r1HRIg4uQjBkDg30sTARcJ02w+Mn/M/GdgYyaaLwIyTk/2xlvHhD3/YXvnVEegLBJzR9UU19X8mOXwYsWdRwjgoh0L3G9m6X9F8cx5iL80gWT/bfffddX3uIx/5iEog7rvvPi1O9vzPomV0f47AUCPgjG6oa2CYpI940DZEFCkya17pgb9FwvSCH2Y96fptqzyxmYXNQ71CiNhZW8WWmhGiYtb9sE6xxhprmLNfHYG+QcAZXd9UlWfUERg8BBBhiqqFJjhq1KjBS9hTcgS6gIAzui6A6lE6Ao6AI+AI9A4Czuh6py48J46AI+AIOAJdQMAZXRdA9SgdAUfAEXAEegcBZ3S9UxeeE0fAEXAEHIEuIOCMrgugepSOgCPgCDgCvYOAM7reqQvPiSPgCDgCjkAXEHBG1wVQPUpHwBFwBByB3kHAGV3v1IXnxBFwBBwBR6ALCDij6wKoHqUj4Ag4Ao5A7yDgjK5BXYjhSTVXIoYow/ve975cX2JIMTz99NNq1oNT9VdWwpQJp7Cntrj6qaz/8R//oSaQOG7r0EMPbZj1fi9nw4J18KLKNo4dPDHmGw4//PC+PMcUGDmcXIzXqjWCsWPHVmpJw6oJe4NYDYGwqNBLR8RZHvvuKkf9dETSidSk8juKoxcDy7l+HVuw7rVyYX1aDlauiU2tUlkzi8qlAvWQ50ceeUTrMrWOnZe9bpTz61//ek3s39XknM+8JHveTZi/YocV9E5JDPBqXGI4t1RUvYAh385pp52m+bd2wlUOKy9VliKexRZiTEcYXpEg7qcFAqHF+5avhzOj+/KXv1yTGV/fMHqx6aYfkFgfb1mvqQcxCFtrxSRS/712X5TRdaOc8+bNU8zF2nmvwVIoP1W28XYZXS9gyGAFxvaJT3yiJrb5amJkNzIjkeoUwrKIJzGkG+MlPWd0RVBr7ccZXQOMiszoGgTtWed2GV3PFqhgxooyuoLRlfLWC510qQx30XO/MjqYjc3iUsZzzjnnqDvXKkiMLtcmTpxYO+GEE2J6v/jFL6qIetjH4Wt0ImwWUUrALthPfvKTsNVWW4WPfexj4V//9V/V0CSWlVNzMazJ3X333XUi6k9+8pNhww03rHOzhwcffDB85StfCZMmTQpYfyatxx9/XC1C77LLLuFTn/pUneVu4r/rrruCiIo0is033zx8/OMfD9tss41FWXdlzeCmm27SvGJpGsvkf/M3f6NWoMeMGaN+L730UrWgjK0xM34qH26Mh3UAypASZSQvRlhePvvss+1xwBUTPLfddlt44YUX9N0WW2yhedhuu+3q/GKXDvtmMqtUczYy09G1UPJKHrbeeus6/2UfMAd09dVXh6eeekoNmmLAddy4cUE6o3DggQeG008/vS7KMuXEhA3thN+yZcs0HtZvd9hhhyAj/WhXDtzAAnr22WfDr371K7XvRv0bHXvssYG6LUMvvvhiuPbaa8P2228fpk6d2jAobey73/2uthvKDkmHGa6//vrw3HPPhddffz1svPHGYc899wz777//AIvkZds47Zv1N74fzCvx/YA/aZ566qnBrB+w3jd//vzAWihtsVndt4shltYvuOCCiM15550XRo4cGZ/bubnllluCzODCbrvtFuPGOO20adNidLRpK2d0LHnDd3rPPfeEG264QdcxCU5f0I8GiEsWvevehz2jk1Fm4Af91V/9lX6cdExGWUb3ne98J1x55ZX62jo7mOKWW25pQequCxcuDJdffrl2KCKWCG+++aYuYHOFYFIwGuj222+Pcf/lX/5loNO2vNBR77XXXurP/ujM6DSg9773vYENMT/96U81DJsupk+fru/wg400OmqzlZZunqHcIppRv/YHs6AjgqycMO08olyzZ8/WV3/+538eVlttNc0HDmeeeaaWXV/Kn3V2H/jABzRe/Fue8JPF28IVuf7yl78MRx99tJYfPBh80LEb5TG6MuWEwV1yySUaHfgxqCB+6hIGBI4QAxnqHCJPvCc/qYFVBg2N2owGzPkjrilTpoQPfvCD2hnmeFEnrIHDaG6++WZtE08++WQ466yzNB/gTv0Y5pMnT9Z3aVxl2rjVJ+GzbRa3tD7Nb5G6bxdDmRWp1XbShhYtWhTWXHPNPz60+X/xxRcrI4dpg79Mj8JJJ52kGFuU9CGUv12CsZ944ok6SKD+zOiwM7p2Ec2E63RO289rdMJIoojANgv87//+b80W4BFXvPLKKw0hMn/NFurvvPPOmAaL2aQJvf322zUZBcbnl156KfpbsmSJ+pFRb421HfKBSOONN95Qd/4QQ+LGOxlx1lasWBHfPfTQQ7W8Bf92RZekwS+PZDdmTTpLfS8j++glzbfYNYvuJr4iPumM1f2///u/azKb0zikc45+y96wxka81Av1CFGvlv9W64zmLy9d6svKafWDPxk81MCbMuRR1aJLMYCq5RHmmZectivKQdugTbz11ls1C3PrrbfGdgIu5i5MJTcuHJu18fT7sboEJxn0RMzT76fdui+DId+I1SPXRjg1LHDOC9uEsnjxYn0rAx5Ng/Icc8wxev+9730vJ2QxJ74h1s2pM75RyMrgostiGLbyNazX6GS0pA2KDzOll19+OTa09ENN/XDfrBMwv8boaMRph2/v7cqmFhp3Xmds6cjo1LzX7rjjDvUvo8zo1uqmG4yOTp58s0ifJVtrSPNtnd1hhx1W511msw3LX+exyYN1DgwaUjr//PMLxW3h07B2D8Ow942YmvlNr2U66TRco3tRe9F8GLOFweBmHa2IN/W9zOA0im984xv6/A//8A/KlNN4rf3T9hqRtb28wZyFF/FgXXARoUes0u+n3bovgyFtHAZuP3ZLdkq0VepexP41EfsqQwJPBqLGBNkZ2i6JOFfjZ+BrZG3NGZ0h0tl1WDO6K664QhuYiFcGoGizpfRDzXpq1gmYX2N0dEbN6LjjjtO8kC4fVvqzvFxzzTUxChgiH0PezC16ytx0g9FZZ8dsKkv2Ad94443xlXV27FpLiQ6b8oBpO2QjebDKEjsHiTtvEJH6tc4ldUvvjWHSyYnIuSbiplqrjrRMJ52m1eieWTP5ZGAAiShVn21DBO2B97JGqO9FrK7PuKVtinub0TEraUTN2rjNoIt+P+3WfdUYNiprI3fbmPboo4/WLrzwQsXTJEAMNME2Hcw1iifPXdY1NTzffyqVIU5+zujyUCvvNqwZHZ1Do0ZKZ8a7qhgdH3kzMmbGLAg9mrxf2qGcfPLJmj8+vqLUDUYH8wUnWUAfkA1jgqnennV2WQb9zDPPaDztMrqlS5dq+DzVCXSdyGOnjI6ZvnV6xMcPcSaDGROVZkGoupO2jpG2S8do4lTaD2JDkwxYR2xiRGbceW0Kt2a4NGN09v0gps5S3vfTbt1XjWE2r62ewYi6toFO2p5NdMlsrx2SdTmNm53BzBbtZ+1LNnepWztxe5g/ITCsGR0NlgaV7XSBxzqQqhgd6yPNiI6IvDz//PPNvMV39tGVGUl2g9ExcyDf2RkaGWXWw7vrrrsu5rvdzi5G0ODG1ouotyzZmkqzDp0w5JVfK4LhMbMy0SxhZGNQbrCqO2nWBGFqlNPElKzRkgeYm7UjRK2QzboWLFiQm79Wjs0YnZyUo+kyY85S3vfTbt1XjWE2r62ebfAAxpQrXYKwclIXWWIgkv6y73m28MTd7JcX1t2KIzCsGR0bH2hciDBTQp/FGt1gMTpOLCHNorL+L37xi+o/HV2mZci75wMlDTrKVEyS5zd1MyxSN7u3TSesVWTJZhPpJpV2O7ts3NlnGIDlM920g7+rrrpK31XF6NK0rTwMPPLIFIvzmEGe/yJuspNVyzN37ly9wtToMI3xwICNkAKACyLOdqgZo7N11WzcNugg3fT7MayyA8tWs/kyGLL5BMbE7/Of/3zDmXYZLEwyQXlk53EMylqwtbk8EbYpmeOnkXiYtok4NPuzeMGfd06dITCsGR1iARoUHT/MzQgxnDW09EO193Zt1gmYH1ujazWjM/EaIh9mXinBlBCNsIcfcbEAAEAASURBVDvLyERY5FO2uJuzXimLia7qXsiDlYvwRcnC5PmXLe8xznRUm25IkK3sMWi7nV2MoMkNGzDIa7omCNOjfnHvhNEhmqS9ZEl00zTu7IYm8yfqJfre1tDMvZMrbcnqxOJNZx2i6hCjZ43H/MoZjdHdbqizZkf4NWvjhLO407o3hsu79Ptpt+7LYGhrtZavKnZdiopPLCdM2cjWR8E+jww78tKI0eWFw83y72t0jRAq5z7s9ehQIJZ1roA+1z777KO6XTLijEoYMiKOCuMcbIwyp0Cs72U2o/7RbzNlYBSlJ0yYEMObHh2K4Sh+NyPLCzpX++67rx4mjQ7bww8/rOnIyLJOeVRGugFlVggdMcogJzeE+++/P8gIP+rRpWlKhxzQe4M45BhdM8LJxoToTUaqQXbrxWf0saBDDjkkuu26665Rb0xmxEFEY6ofiCIzelooYqMDiKJ8qmguM9GoNEwZjVCQR++PPKG31A5ZHIRFERpFW5khR52xrB5dmXK+9tprijG6UiiIoyiOMriIjjWrwlzDZpttNiDbsnYYZOOHuoMzCvQc0ovC/EYbbTTAfxEHDqk+/vjj1atIAsLee++tCuLSsaqbzGTCjjvuGKMSxhhk5qDP4IIOIErjsnMzEBdtYo899tD3Zds4+oK0cWj33XdX3U/iNEq/n3brvgyG3dCjoywiAg6y01nbON877QE9Vog+Ad3GLNHu0UmE0LFE17IouR5dUaSK+Rv2jE5GfHragTVaYJNZlXYCKAOnH6op7DaDFmaZKl8TXsSLegJKK0YnswZV8uX0iJTWWmutwCkqKKyuvfba8RUMlxMpRISlysD2gpNcYJo777yzOcWrjHiVKcHMTRmd0yxgmkapAri5Za98xDAxCEV0Ga0PUGLmhAxOO0lPX2/U2YE1p4Wkp09k0yzyzKCAjpt6hRg0yLqVKuJnGV2ZcorYN8yaNUvbRZoP6mbmzJl1Ssrpe+7JEyelyM7S+Io623bbbeNzmRsRVcbBFAOK9ddfPyxfvjweKECbWHfddeui5ESaOXPmxDq3lzBtEXXGjrpsG6cN0tFzogdh6fCPOOIIHcxweIGIrbUOSK+Tui+KoUhDYrskTQYinSqMEw/l5KAIBnRGfGciVmyo+F8Fo8Pagw2iLV2/lkdg2DM6g4wPhCO0GO3SeQ0liagyiMhHR43MHPigUmaRzRsfoeh2aZj3vOc9OktjVjXYBKPmaCSI2QvHhg0FgZ9sGNGZJflYZZVVKssGMx4RJwVMqcBEmTU2q5vKEq4oImZyzPoZMJH3KpiAZQ0GzHFbtEdmPQw2GEBWib+lNVRX2jiSAL6z9GjAocqPp1sMAWd0xXByX4OMAOJXmEkRotMZP358Ea895QemiWi1KCEW5yzWXiJmccwe11hjjZgtmykzY2Xm6uQIDDUCzuiGugY8/VwEEPPaeYy5HhLHVmc/Jl576pZZ+AEHHFA4T4jUOQ+xlwiRNT9mcMxwmMEhsoSanQGrHvzPERgkBJzRDRLQnkw5BORIq8C6WBFCDJduvigSphf8IAazzQpF8oMYtpODg4ukUdYPa39yaEDdoISNFxx6zNqvkyPQCwg4o+uFWvA8OAJ9jgBmdxiYYKFhKNaH+xw+z36XEXBG12WAPXpHwBFwBByBoUXAGd3Q4u+pOwKOgCPgCHQZAWd0XQbYo3cEHAFHwBEYWgSc0Q0t/p66I+AIOAKOQJcRcEbXZYA9ekfAEXAEHIGhRcAZ3dDi76k7Ao6AI+AIdBkBZ3RdBtijdwQcAUfAERhaBJzRDS3+nroj4Ag4Ao5AlxFwRtdlgD16R8ARcAQcgaFFYFgzOo5g4qgiDqUV44ktawLTNmIpOhx55JG5JnBaRtCnHrBzxgHEYlCzL0uAfTTsiWHr7tBDD21Yhn4vZ8OCdfAC0zpPP/10OOWUU9SyRwdRqUkpzM4cfvjhweytdRLfUIQVY7NBDNhqnzF27NjKLZ1gOovDzLEq4eZ5KqxhManREUkn0tRCcUeRdznw7373O7XkK0ZHC6Ukh9SqfzlxvpD/lcWTWTvu1/I88sgjWm+dWBhvt+y0FbFP2NDie7vxDlY4s5ItRm07TrKRhfFWEfcChvQVp512WrT8bd+EnPXZKvuF3ovpn5oYHI7xg7tTdQhgO6ojckbXEXx9EVhmQ7VWTKKXC1KU0XWjnPPmzdPOS6zR9zJEDfMmEoyaSDsqGcy2y+h6AUMGKzA3MeJbE2PKNTFUHJmSzHgb4lfkxUUXXRTjMgbqjK4IcsX9OKOTxuszuuINph99FmV03ShbL3TS3ShXO3H2K6MTQ7WREXFvdM4556g7105o8uTJNX5ihV6ZKMzOGV0niA4MO6zX6Fh32mOPPdSO1uzZs8PNN9+s6xGbbLJJmDBhQvjYxz5WZx352muvDTfccEM466yz1Br5Aw88oCe2jxs3Lhx77LFh4403HiBU/sEPfhCkAYcXXnhB32E886Mf/WjYbrvt6vx+/vOfD6+++mqYNm1a2HrrreM7qbJw5ZVXanrYLtt5553juzI3f/jDH8K9996rv2XLlmlQrJfvsMMOQUapeup8Gt/dd9+tWJgb1sLPPvtse6y7so4joq06t/Th3HPP1TUNc6NM5AUTL+DCegQmXcBwww03NG9tXcHw6quvDk899VRYffXVw0477RSoH+mMwoEHHhhOP/30unjLlLMohqxpUefQs88+G1h3wbxOuuZCWTfffPO6vLR6ePHFFwNtcPvttw9Tp05t6J21ZOzCYdOPskNYRb/++uvDc889F7AyTlvdc889w/7771/XxvFL/sElpU9+8pMN6+YrX/mKrr/95Cc/0XrkuwF/0jz11FPDqFGjNCrayfz584N04gFrBzLLVdt1Y8aMCcSftvt2MRQRY7jgggti1s877zy1eh4d2ri55ZZbgszgwm677Rbj/tnPfqbfqkV33333xXKaW9ErhmpZs8R4rRmtZT1ZRJlFo3B/LRBwRieMzmittdYKm266aey0sx2jMTrzT+f1xhtvBKwsExZDk3/xF39hr2OjxQFbYpgvMaOUZ555pnYy5vnxxx8PJ598cnjve9+rDBdzJ9Bdd92lm0Cw8XXVVVeFESNGWJBSVxjLJZdcomHI43rrraed3ptvvqmdJ/GnBLOgI4KMMT744IOpl3g/Z86cQP5TeuuttxQX3NjAQ3oQzOIzn/mMdsQ8YzHbmCQY0qFgSLUdoh6OPvpoZSzgCNOkYzfK1ifuZcpZFEOwuPzyyzVZ8gTG5MfqlBcMGrbcckv1U/SPuKZMmaL4MOBqRDNmzFBGw8CNun7yySd1cEY+PvCBD2g7NKO2MpPQd2lc2MhjcAVZ3TcyomrMC798Dww0YOxGIubTgSTP5pc8EC/fhOWD96nfdjH89a9/Hfbdd1+iU1q0aJEOpOy5nSsM52tf+5oybfBnoMYmNpi5EcZnq7AV6IzOEK34OnCSV85lZVijQ1QgDbfGgjMkI+faxIkTVSzBIrGRbUbBP+IwaMWKFTVhIOpXZoXmtSazRRVH4FdGvNGdtRrciF/sd0V3bmS0q++ECWq8MtuJfqVjqPNb5uHtt9+OeVmyZEkMKkyn9tBDD9XE0nV0y7shv/zKkMxQNQwL+KRjBBbEJdayazLiV+ff/OY3NWE46n7CCSeY19JX1tiIG7GP7KjV8DKjVjfcW60z4odfHrWLYdWiS8Ts5FGYVl42a+ST97Qv2qYMOFQ0j9utt96qbgQEF4tLmEpuXDiCJWHzNqMIU9N3vJdOX+Mgfb4D3Pi98sorMW4TXab+aXsym1O/wpij3/SmDIYy8Ixpk04jnNL4W93bJpTFixerVxnwaBqU55hjjtF7MRTcKppC74Uxa3wuuiwEV2FPvkb3zgfJh5+SbKXXBgfzMTJGJ+IYc9Lra6+9pn75sIxZwkB4ZvE6S3TmvKNRp0QnceKJJ+o7ETMpM8CfiEhTb6Xv6eyIh18rppYXuYXNe5fnJqIzTUtEtDWYWErWuWbLLqKsOLgwBpiGK3Jv+UwHJ4Q7//zzNT+dMLp2MSzTSRcpo21csAELDAY362gZpIGDiNc1um984xv6zMAiHXDwUqQF+o7NJo2oGaOz8CIerAv+85//XOMlH3mM7rDDDqvzf/vtt6v/RvVTBkPaG23MfvY91iVY8oH8UpbHHnusJmJfbafgSZs1JljVTmy+C9JyRleyklp4d0YnjYqGBZNJyWZedJJGxuhEbGRO8UqnTjwiilE36wSYZWTJZm433nhj9lWNUbLNJolv7ty5A/y042CdPR/oTTfdVGOnWNFOgHzwK0KM/M2/rNnUBWF0be/IBx1I+rN31mnXBW7xYCN5sMsSOweJu1FHav4tfXvOXtvBsEwnnU0v79lmxDAHyKQJtiHCBhlsbICszVK2FGvubdDBrKQRNWN0NoNmF2KWrA3nMTp2LKYEsyZ/jTr3qjFM0y5yL3qzmr9HH320duGFF+q9DYwZ9JL37MCtSLx5fpzR5aHSuZszOmmkeZ0jnS0NGJGmkXUadJxZOu6449Q/DAS65ppr9DmPKRoTvOyyy7LR6LOJ8UgfxlcFvfzyyzX7YImXHzu97rzzzijma5SO+W/03tyZLRIn/k3MY++4MtOyuM4444xao5/NVtKwre6XLl2qcTPgyBK6TqTbKaNrB8OqO2kGD5QFxoZo0vCmDTNYY3bGe+uITYyIZKER3s1wacboyANpMSjMEgMZ3uUxOphxSs8884z67VVGB26UxQY66Xdroktme1WQM7oqUBwYhzM6acA0YjqNlGRBXt1tpMw7Y3Q2Wk7905EQj81i8MNzdvRKGGZUvLvuuuvSKPTeRE+852frdQM8tulAZ82swMSnpCE79JrGZnlp5gkxjq21wOTzSDYpaJmIr2qy9SI6/izZmkqzDp0wRcqJvzIYVs3oED/C1CintRXZFah5h7lZO0TUCtmsa8GCBfpc9q8ZozPxft7AzxjwysDobPBA+6Bc6dq6lZO6yBJ9SvrLvs97dkaXh0rnbs7opPHSgOVonzo0jRnJTsfoboyOEwxSYuOJdZK2JmWiT2T4WbJRdrpJBT98QCYCReZvjINNBN0g2xyQimfz0rGy5b0zN0a5+MtuPrH3djWRViebayyu9AoDsHwixkyJOuRdVYwujbsVhgx0SDuPGaTxlLln8EOciLW5wtTocI3xpBt6ECviBxFnO9SM0dnaWjZuG3SQbhWMrgyGiMdhTPzYEGWbktopu4UxCQzlkZ3H5lx7KZFQ5C0DmJI54ZqJh2OEcuOMLkWjuntndNIIaYhXXHFFRJWPxRhOKpIwRod/2eod/dsaEOJLI97jj1862ksX6m09z8IYA7SOA2ZgjMFEUea3zJWPnR2cWWLDC/kj3WZk5Wjkx2ZMYGaMvpFf64xhrtl1UTqLdtbnLC02YJDXdO0TpmcYdsLo2sVw4cKFmqdUMmD5bffKwMfqxOJNZx2iBhOjZmOP+ZUzGqO73dA2s4M8e8e1GaMjnMWdtnGrY95VwejKYGhrtZavKnZdppIIxKxGtj4K9nlk2JEXZ3R5CA2em+vRJXp00iGqjpLMxsKPfvSjgG6ZMLeoUJvq0b3//e9XPTj5sIJ8iKr0gdL3jjvuGBVAhHkGERmpjh0KvujRoYiLntGkSZPqFLDvueeecOmll6pu0RdFsRblUQilavTOsvp1MZECN7IrVJWl0fNBQRxFcRSZZfSooYUxhM022yzGJCPVILv14jP6WNAhhxwS3XbddVfFBwcUj6VDUZ04FOKzhDLwOuuso84cWItSPBiQn1122UUVekUcGGRdT/2hT9UOoY83ffp0DYoi9OjRo4PMjKOuVlaPrkw5y2Jo+Ze1wyAbP/QRvTEOCkAXUgYFYaONNjJvpa4cUn388cdrGNrG3nvvrXqJ0rGqW7YdCmNUHUxeggu6dSiNy1poIC4Z6OjBCbznEAV09KQL4lF1KdF522uvvaLCO3XMgQoQ+oLW/nfffXfVoyNOo1Q3jnZtCuOprpvVWyMl6TIYdkOPjrKICDjccccd+i2DBe0BpXwIvPJ0P9GVRCcRoi+h/8gj8CJ+iPyDNzqlHFwBjR8/Xg910Af/awsBZ3TvnIzCqSNpQ9x2222DzDrqlHyN0XGqRdqBgjynf9DhpyTitCCiLf0QUndOjqDzN+VvlMiNicgsa8CJGXRcMEiYgowi06gK3YtINMyaNUs7tjQAH9PMmTPrFGx5b0qrqd/sPR8xzBpqdRK9zHijwjj+GRzQQZJOSjBz2QkYjjrqqNS51P3DDz+sHTeMFyJOWbdSBegsoytTzrIYppkmT5yUkioYi9gx0MbaIRFVRkZDu1h//fXD8uXLlRkRH8rNWORIiQETiv0MMFJi4COizthRm1J66id7v88++wQRy6kzDJGOnoEaYenwjzjiCGVotGsRz2sd4LkRo0Opn28qPXkkm2ZRDEWiENslcTCY4+SdTolyokTPwNWIwa7swmyo+F+U0VE2DpBoRHwTsiTQ6LW7F0BgWDO6LD6MZhnlc6IGHWQrwmQHYRghM1trRCL2ChwZBDGq5zitoSDyyrFMzKooHzMeY7ZDkR9wEVFuEJGldtYckbXKKqt0nBXZABCYIVIn4F1FnJapXsPQ8lX0ykxOzmsMa6+9ttZ/FUzA0oYBjxw5UmeDzHoYbDDrqRJ/S2uorrRZ+oj3vOc98cSXocqLp1scAWd0xbHqCZ+yVhcQ5RQhOhhERJz52G90//33K0Mukm86HcQ7/UYwTSQDRQmRIUem9RIxi2P2aKJ28mYzZWaszFydHIGhRsAZ3VDXQMn0ZaFfz78sGozzGdMzFouGG2p/HEicnoPYLD+IyxCf9RuJ3mFAZF6URDctyMk5Rb0Pij9E8/yYwSHKYwaHyBJifbvseZ4a0P8cgYoRcEZXMaDdjo5NMkUZAHlhgX8oxZPt4iG7L9UyRJHwiOHSTUBFwvSCH8RgtlmhSH4Qw1ZxcHCRtIr6Ye1P9Cbr2iQbLzj0GIsUTo5ALyDgjK4XasHz4Aj0OQKY3WHDDtKDZuvVfV5Mz36fIuCMrk8rzrPtCDgCjoAjUAwBZ3TFcHJfjoAj4Ag4An2KgDO6Pq04z7Yj4Ag4Ao5AMQSc0RXDyX05Ao6AI+AI9CkCzuj6tOI8246AI+AIOALFEHBGVwwn9+UIOAKOgCPQpwg4o+vTivNsOwKOgCPgCBRDwBldMZzclyPgCDgCjkCfIuCMbpAqjoN0P/vZz6q5DiwXOA0eAmYGhVNiDj300IYJY+aG8yc5Zs3pjwhgceDpp58Op5xyih5e3gkuWFX40pe+FA4//PCWFi86SaebYTnIXez66fmeY8eOVXM6VaaHdQkOXeewbQ45d6oGAWd01eDYMhYxTKnmSziqCrM7VRF24zhfENM/fuRSPqqPPvpoOP3009UmH9dGZOaGxIp0Iy+l3fu9fszUTBXnVjYy09MK1F7AkAEQtv9oSylddNFFAduMnRLng2LKibNpoUa2+TpNZ9iG79TGq4yWm1oo7jT+lSX8q6++WsMSsRhvrLRI8+bNUyvPYiy20nhXpsgeeeQRxaiVhXExfllr5acsLv1eP2JLUNttMyvkRTGRw5+1Hr761a8WDaL+egFDsb+neRfbhjUxJlv7whe+oM9YD5cZb6nyZD0Ls4xxmWV0rJM7VYcAtqM6Imd0HcHXceBe6AQ6LkSXIyjK6LqRDa+fP6Har4xOlh0iI+Le6JxzzlF3rp3Q5MmTa/xkRqdMFGbnjK4TRAeGHdaiS8QRWBHHnhnWwW+++eaAvbdNN91UzY5MmTJlwEyfMDfeeGN47LHH1LjnmDFjwnbbbReOPPLIXEvGrPf8+te/jvEg18fcSpZ+8pOfqFmTbbbZRi2My6gxsLbEIbl///d/r5a3LQxrJog5oGeffVatRnOqfSrTx2Lz5ptvbkFKXTG78sILL4QZM2aohWjENRjsRDR68skn1xmcfPvtt9Wi9zrrrBPOOuusunQwncN6BhasP/CBDwQsL8yfPz+AAeJWDgEG478Qw7VYbwYn1m+mTp1aF0+ZB5k5h6uvvlqteWOHb6eddgrjxo0L0hnlii6x0A2eRhjFRVyXR1iMR7TEb9myZerlfe97X8BKN1bMzRxSt+oH8TdW7rfffvumGMmMSfHF1BFlhzC4i/V6rHlTlxtvvLG2+f3333+AYVTyDy4psa6MQeI8woo462+0YdoIYnSsqZPmqaeeGkaNGqXBUtElh0CLFEJN+vANEf/WW28do28XQ4z4XnDBBTGe8847T43BRoc2bm655ZYgM7g6C+gYUp42bVqM7b777ovljI4Fb7Dfh9gcm35my89FlwXBK+htWDM6Fn332WefCNVaa60VNtlkE+0McKQh00kbYUH5uOOO0w8av9hB4+PGkjImVK677jq13Gz+uR5//PEBu2N8gCw0N1qje/LJJ9W0CTa9MGbJFUZA3NCFF14YjYs+/vjj4fLLL1d3/OIHi+HW0fKCzrpdW2Cf+tSnwpIlS5Q50aFTNjMNBFO66aabYueIqZnddttN06fDS4n1MJgkjBNGzNqXMUPyCx5G6TOd7Prrr2+vCl/B4uijj9Z4iY+OmY7d6MADD9S1OnvmClOkw4WMeTVao4PBXXLJJeoXHNZbbz2NH/xhQJingbpVP5SPgUEr+3sMUGA0DNzIJ20L3MknAw6sC1h9ykwi1olmXv4wHcTAAzJMGq3RGfPCL3XMQCOtVwZstGXI/JKHbLvifeq3XQwZLGFs2GjRokW5A1B7X+R68cUXKyOHaYO/zBf0WwVjI2vj9tzu1Rldu8i1CDdwklfOpZ9Fl7/5zW+iSEIacU1ma1p4mc1Ed/kgIyB33XWXuh922GG1N954Q92FGdWE+am7zPSi3+yNzGzUz2mnnZZ9pc9PPPFETFNG3uomzLEmM0J1J3951A3RmDB3TfOggw6qvfLKK5qsMPTaxIkT1f2ZZ56JWZGRuboheskSZUUMA56QzOL0GbHMihUr4joH/mS2VDPR1uLFi9V/2T/W2EzsIwxYg8sMXd1wb7X+hh9+eSQzVxUv8V4GAdEL+X7ooYdqMpiJbulN1fVDnZAHYVppMvGefPKeugJjGZzVLMytt96qbngGF3MXphLDZ2+oK+L74Q9/mH1VY92Zd/yk09f3pD979uzobu2Hl1a/qX9wk9mc+hfGPCANHMpgyHdpeeLaCKfchBo4Wju2dikDHk2D8hxzzDF6L/YTG4Qu5yyMWeNz0WU53Fr5HtZrdCmjExFgHVZ0inwo6ccn4kl1kxFvnV9jUh/96Efr3NOHMoxORqUxqMxINM1GcZfpBGKkLW6M0RF3SmeeeabmhY/RqB1GZwMC+6jpMKAHHnhA42cDRDtkHdxLL71UF1zE0xpvJ4wOhmHxN2JqdYm+81B1/djGBWO2MBjcrKMV8abmU2ZwmgPZsajPIi7XwUSaRxu4sUmqETVjdBZexIN1wX/+859HrPIYHQPFlG6//Xb136h+ymDINw0Dtx+DxU6J/FL3slxRE7GvDiLAk7ZvTPDrX/96p8loePsmnNFVAmeMxBmdNGAaMaPflGi4uIsqQHS2GY2IZqIbN2knyIg2j4oyOkaIKTEzsQ42dbf7Mp2AhWl1NUbHJo6UmGmSl4ULF0bndhjdnXfeqeEZMBAfMw3INo3YszoW/LORPHWUJRgn6TTqSM1/M5zxYwyTTk7Et7rbrlVHWnX9iHhYywJzgESUqs+2IYIdjZSDjQ2QiBz1GTc67PRnM7psm9OA7/w1Y3Q2g2YXYpbsW8ljdOxYTAlmTf4ade5VY5imXeTeBrgihq/JEoLmlRkxhKSFvMOgqiBndFWgODAOZ3TSSPPEboijaMDMYiBEIDzzQ1yVJfuwEefkUVFGR2eaJUs3685zNzoBY3SyjlOXpCzKa/k7ZXTWMRrGpnLBiJmywkTK0tKlSzVs3sz33//93/Vdp4zu5ZdfrlmnZ3VC24Fxm6g0m++q6wcRMmnD2BickT7PtD8GWczOeLaO2MSIbIs/44wzcn/NcGnG6MgDaeWptjAY4F0eo8uqFyAKx2+vMjpwI3820LnssstiNZvokrZbBTmjqwLFgXE4o5MGTCPOEh+vNW7e0anwzI91uZRsXYR3jUb4w5HRGVPIrtF1g9HZelHeoMXWVJp16NSn1W9at3n3MDxmVjYgIBzrj3lUNaNjkAVTo5wmprQBCMwNhkZ+kDJANutasGBBXvZaujVjdLZ+nCdqNga8MjA6GzyAK+VKv38rJ3WRJfqM9Jd9n/fsjC4Plc7dnNFJ46UBpx8ksNrCueykjCjbKDW7MP+SrAkRBx1QI+oWozPF1bzOplFeWrlbB15kRpcOANK1Re7BhN9gMDoYgKVnG4WsnFdddZW+q4rRWbxcrZ3kzcR53436sbXSuXPnarlganS4xnioPyMGFeCCiLMdasbobG0tG7cNOkg3/a4Mq7IzujIYInmBMfFj2aHRTLsMFrYWSXlkR24Mat897nkDXFMy530z8XCMUG6c0aVoVHfvjE4aIQ0xXTdgxGbrF7I1O6JtHQuL73TwRnSgxIH8vhF1i9EhRiRtW6NplH4Z9zKMjngRF5KHdFZjHyzug8HoyAcbMEjPNrvgBtMzsXInjI4O08pBvEa2bomIMI+6UT+sYVJOflbv6axDVB1iVkSXLfqlDWaJmUizU0+aMTrCWT7SGY0xXN5VwejKYGhrtZavKnZdsiZv8aU7jm19FOzzyLAjrDO6PIQGz8316BI9ur322kv1jtBlMeVXYYBRQcP0mHBAHw7lbmn4qpyLm3RAqojLPfTwww+rAjr3KOmiVItOEcrpRij1ov9menTkQTove63XZmcwytpUkA0G6g99N5TXR4wYEYT5hI022qgunqIPpkcnI/aAMq8R5ZPZkR7wixK7Ebpo6GxBkyZNUr0lGQXb6wF6dLJTTRXgwUdmJ2HmzJmaX3SnUEhHefiQQw6J4YveyEw7TJ8+Xb2jCD169Oggm4qizlhWj05G5EF2JcborQxp2rvKOYbox7322muqcI6uGAriKIqjrC8MXcNziMBmm20W47KbbtQPBwmgnwlx/uLee++tbVA6VnXjLFXap5HVG8/ggm4d7RFdSeISJh322GMP9c6BCCj6Sxekz+gYovNGu7QDCbbYYoswYcIEfY8+pzAivd99991Vj444jWRGOUCPjnymum5Wb42UpMtg2A09OsoiIuAga8l6iDNY0B449AACL3Qbs2TnhOJOG0LXMo/Ai/gh8g/eptOL2/jx4/VAAu6d2kPAGZ0wOhRYYT4yOo8ocvrEP/7jP+op5dFRbmCAdC6mcMs7wtNZZBW06XCyJ0ykcXFvzISTIE488URlFNmTOWB0NPxvfvOb2eD6DMPgpJRUgVVmn2HbbbfN9d/KsRGjI68oEpvirMXDx0me6TiNKAv5kQ0nsSMwhfEso7P4OmV0pA0W1IWM5DUrKI5zagn5zjI6U861POddKRfMW2b5YdasWXVlxD/1AqNOO+5sPFXXj4gqI6Mx5frly5crMyJtBlTrrrtuXTZkQ06YM2dOnTI3HmDaMoOPHXU6mKuLIHngkAURy6kLDJGO/p577tGDDujwjzjiCD0Bh4OKOUSAOoC+KJYQOBkny+hQ6uckHw4eSE810UDv/BXFUNQLtL4sLAMRLAF0SpSTNiRrnTEqBq0c5JD97s1DUUZH2RjwNSKRLgW+Gaf2EXBG9w6jY7TGaJbRI4yLY8GaESNiTO8wa2jnFI9mcffjOzoC8IAhMLPh+K2hIhEr6/FsnADCLHeVVVapLCu0EY624lQdOnDqnxl0v5C127XXXlvzXgUTsLLDgEeOHKmzQWY9DDaY9VSJv6U1VFcRYQckAfQPduLLUOXF0y2OgDO6hNEVh60/fNIpI7orSoikttpqq6Leu+rv/vvvV2ZSJBE6HcQ7/Ub9XD+GNTNAZo+c02hkM2UkCkgWnByBoUbAGd1KzOg4Y/OAAw4o3MZkV6mKTwsH6KJH1i5T8XCzpFqd/dgs7FC+6+f6MdxkJ6WuwTKDY4bDDA6RJdTofEx96X+OwCAi4IxOGB2L87YRYRCx73pSiFk4oLcoIeZjs0UvkBxppWLQInlBDJduvigSphf89HP9GH6s/V1zzTV1gxI2Xpx00kluCNhA8uuQIzCsGd2Qo+8ZcARWEgTkKDgdmLCDmLVRJ0eglxBwRtdLteF5cQQcAUfAEagcAWd0lUPqEToCjoAj4Aj0EgLO6HqpNjwvjoAj4Ag4ApUj4Iyuckg9QkfAEXAEHIFeQsAZXS/VhufFEXAEHAFHoHIEnNFVDqlH6Ag4Ao6AI9BLCDij66Xa8Lw4Ao6AI+AIVI6AM7rKIfUIHQFHwBFwBHoJAWd0vVQbnhdHwBFwBByByhEY1oxOrFLr2Y4cIYVJnbKE2RHM65xyyil6jFjZ8O5/cBAwe1/YOzv00EMbJor5GA5aFsOhDf0MtxdVtnHMB33pS18Khx9+eDAbi/2IJ1Y6OL4N6xWjRo3quAiY/qIvyqMNN9xwgMmlPH/u1hyBYc3oaKzYwKLBYjerLJm9qSoPr6Wjveiii9SwJwzUqXMEHn300XD66acPsEeXjdk6X+zmVUUYduWg44997GN9efZjlW28kT26Vlj3CobYS8T2ntl95PtMDRC3Kkej9/vtt98AO4Hm99xzz60z1Gzufi2HgDO6Dhgdxiaff/55tYaNDbsqCDtnGLYkPmzkOXWOQFFGd8UVVwRsqsEUqyIssmPhG4OiDKr6japs4+0yuqHGEMPCtAkMxKZUNaObOnXqgHNC6Qs233zzNFm/bwcBMZjZEYlYqPZf//VfHcUxVIHlINra3/7t39YmT548VFkYkK5YSNY8ffSjHx3wzh3aQ+CRRx5RTD/3uc+1F0EHoebNm6dpf/vb3+4glpUjqJj0USy++tWvlirQUGMo5qI034cddliNehSJiz4vXLiwVDkaeab/oR8SCVMjL+7eIQI+o3tnRoepkVQsgRhr+vTpajE5HUCwJnf33XenTuGTn/xkQJaeR4g7br/99vDCCy/obGG99dZTEdbBBx9cN1K79NJLA/bJOAX+scce06ik8ccoN910U00nOsgNRi+vu+66wBoUlr0xN8Ss4aCDDhpg1Zl4sR2GWI4R6jbbbKNrJTfddFMgTzNmzEijDj//+c8DM5yxY8cGRCvyUcewmGE54YQT4rokMybMtTzzzDOaJwyhfuhDHwryAYcddtghxvujH/0ozJ8/X+NEnEeep0yZovFceeWVmi/WbxjZtkuvvvpquPrqq1W8hJXznXbaKYwbNy6cc845uaJL6pI6NXrXu94VENflEeso9957r/6WLVumXt73vvdpGT/xiU8ETu6HiO+2227T+2effVbFUpg/2mCDDdSNv2OPPbau/uOLJjcvvvhiuPbaa8P222/fFCNhJCouxaYfZYewin799dfrrAQr4xtvvLGKxPbff/8BbaVsG0fsz/oba01//dd/rWJaxHukeeqpp8Z1rHRGR3sUpqG268aMGaNte+utt46lbxfD3/3udzp7tojOO++8Ad+wvSt65Xv54Q9/qG0Ja+l8q8x0q57R8Q3RZp2qR8AZ3TviJESFb7zxRlhnnXW0swZqOtyTTz65DnXsu9EpQ9bZNVqjwwDlIYccon5ZB0QEIbNfDXfiiScGDJ0asRECQ6N0pmZwFMZlBHP59Kc/bY/hpZdeUkb85ptv6hoj+edjhCZOnBj4wI1kMKTleOKJJ9SJzohOCSJ8npgUpnTUUUcpQ2TdMCu2OeOMM6JRV8pIWSkjHeiPf/xjjZf4sUsGU4dgsmeddZbe4/dXv/qV3vOXPsN81l9//fiu6A2M/+ijj9Z4iY/BR5rvAw88cIBYEqZIhwtZfTZao4PJXXLJJeqXumGAQPxgCAOijiAGN5dffrnekyerI2OEvICZbrnlluqn6B9xMTBoZWiWQQuMBhuL5PPJJ59U3K2uMaNjbYzBiNWJ5aNMGzfmRViYOQONtF7/7d/+TQ2y8t780t7AGvuHlg/ep37bxRCmtO+++xKd0qJFi8Kaa65pj5Vcu8XoWI9j8IcBW+p4o402qiS/Hokg0OGMsLYyiC4RG0jHXZP1mdqKFStqsvitogTcEW82ImFO6k8YTK4XmUXoe5kp1r2Xdb2adJB1bvZQVHQpTE/jRozy9ttva3BhfjVhcur+gx/8wKKsScelbjLTq73yyivqLky9JoxW3fPEpDID1XdgwPs0vzLarvEzonzpezCUGVsMLx+vejU3cMPPF77wBfVz2mmn1YTB10y0tXjxYou61PVf/uVfND7iNzEQOFAGfq1El+YvL1EwNhHTkiVLohfy/dBDD9VkNh7d0puqxW7UIfkUppUmE+/JJ+9pB2BMm7YwslaobngGF3MXphLDZ2+atXFhahFbYawalPRnz54d3a298dLql/yZf3ATiYj6F8acTV6fy2BIu7Z6bIZTbkIFHf/pn/5J06hadJnmm3uRqGj9FcyWe2uCgDM6aVA0KjorI+sscE8/VHtv12adAH5kNqhxl+m4izA680P+sh2sdSZpp275/PKXv2xZ1+vXv/51zV8rRpcyzboImjzQyRIveRSRm/o0RnfjjTfqs4y29T15hh544AF9zuZTXxb4Iy1+LwnDT+n8889X9xST9L3dW3h7Tq8wDHufxTz1l70v00lnw+Y92/qQMVsYBm5ikV29gzX5lFmaPtugjUENTDmlu+66S/3ScTciazt5gzkLL9KDuuAi9o5Ypd+PtU3WulIS0b76b1Q/ZTDk24CB209EmWlSldxXzehE7F1jkMbapYhEa9ZeqUdZmqgkz8M9Emd073SOstuxri2IaFE/PhHD1bmnD806AfzJ2oXGweia2QvMlBFnMzImlsd8LJx1ZnwgWWJ0zgcCkzXCH27GcMxdxI3qnpeWzeiYxbQiBgYwLUbyjM5Jj192dmmM7s4779QobabJTAOyTSP2rI4F/2wkT5pZgnFS/kYdqfnHD79GZB0QTEPWNnVW26ojLdNJN0o3dbc2BXOARJSqeUZ6ANFZUgZZI9RnEavrM24wmPRnM7pjjjlG/eb9NWvjNoMWkeOAoFb3eYyObyElmDX5I608qhrDvDTKuFXN6PLStnoEFxHH5nlxtxIIOKOThpTXmSNOo5HR4TeiZp0AYZYvX16bO3du7GiIjx8dhKxj5EZbhNExeiceWf8aEIcxQTpjI+t0EDWlZKKnZoxONp2kQXLvTURLnsASMTAzChP1yeYaDWeMzjpGGD9hRI1C3+OPZ5hIWVq6dKmGzSuLLPLru04Z3csvv1w78sgjNS7yaeWFcZuoNJvvqjtpWVvVdMGcWbNhTB0z4LBO2GbhJkZk4EG95P2a4dKsjVu95+0oNbF4HqOjE09JNjFpmZzR/QmVtG6tLv/01u/KIuCM7p3OOQtcFYzO4kTUhfgSEY91kMjf86gIo0OMRDx0ulnio+AdMysj63SyIj3ZCKB+85iDzejAoRnJRgeNg46W+FKSHXf6bjAYnTHtvEGLbCLRfDTr0Mm31U1ahrx7GB4zKwYBFgYmnkdVMzrEj2BNOW1Qc8stt2g+qHubvSNqhWzWtWDBgrzstXRrxujkBBlNN0/UbAx4ODM6mFX6awl2xsNxxx2n+OYNJDJe/bEFAs7oBoHRpXVgYho6Aj6CLLFxg86TzizvPf6tU8ePdWgWj4npELMZnXnmmRona3Ip8QGRVieMzjpSW2ez+NnEY53dYDA6GIAxnax4WBSO9V1VjM7KyNXWnVK80/e24SaPGaT+ytxbfZq0gDYA1sZ40lk4s2dwQcTZDjVjdLa2lo3b2ifpVsHoymDIJh1mtfzkWL+GM+12sLAwNmtutRnFNoyBQzPxsMWbXvl++L4Jy+Y1p84QcEYnDYlOIktVzOjYiYg4KSV2K9J4acSNiPf8EFPlEQzQRu5ydmD0wnoRazCEZRZjZBsSCGNrkfjl48NvJ4xOdLM0DkRkKbHOZuUYDEZH2ohLSdM2u+AG07MOoxNGh2gyT4zdqPykDdEZkidbQ/uja2f/KbYWr3W+pCWqDjEB0WWL9ZC33syssNmBD80YHeGsjtP1X2O4vKuC0ZXB0NZqLV+NdqdGgNq4MaxbMTrDjrw0YnTgxuadlBi0GXOn7Yp6T/ra79tAwPXo3lEYR+k1JY78QRFaRuyqH8Q79MlQKhec1Sv6V+gD7bXXXlEZeIsttggTJkzQ9yjsohfDM0qx6AwRBj0jGZUHlHXzSJhG+Na3vqWvOIgYfTB0jmTzQPQuorIgH5I+ox+GH+JG/w09JekMo/KpMFvVL0N3Dh0dlMVRMje9sWZ6dDvuuGPTA685Ak0+Ys2HfNAaN0rS5MUInbLtttsu6tHJIELL8vDDDysOM2fODMJsVf8MvUUU8E3/0OIockWPECV/CGxHjx4dZBYbdbWyenQiyg0yCIhRo3cGpWnvuuuuqh/32muvqcI5umIowaMoTjllE46GEeYaNttsM71P/2TtMMjgQ52oQ3AYMWKElrddPSnq7vjjj9c4P/OZz4S9995bFcStPXBAOfVmRFvgGC0IXNCtQ2lcdm5qO6C97bHHHvq+bBunbqXD17C777676tGRP6NUN+6Lcgg6BwaQz1TXzeqNtn7xxRdb0Hgtg2G39Ogox3333ad5EtG16kbyLaFLCdHuqNuU7JxQ3NCxRNcyS/QnuKPbyqEQ6DiK1Ef1UvGb1k02rD8XR8AZXQNGN2vWrCCbJZSxobwJmcJuM3g5m84Uu+lwsqeoEJYDfjlZhEadRzIqDbKmEmTRPirf8iHIKK/Ou6z7qQIzisBGnJpB52cfoLnLxphw2WWXaYeIf5jdEUccEWAydHzWyZt/mCKnlLRidPhPFaktPArxdFCcmNGK0XF6BorQKAl3wuhIG+ZJ52CYoDguM1lV8s8yOgYT+G1GdFaTJk3SAQttAuaQ0lprraUYph13+p578sRJKXRgRiJ2DNtuu609lrqKqDIOpky5nvplwAWB+brrrlsXJ6duzJkzJ7YnewnTpi2228YZ9NFZc1II3wfx0K5gaBwiwACSOoAaMTqRfOhJMZzqw5mgeVQUQ1nj1vqyOBiIVKEwzsEC2W/E0uCad5ZpEUb3zW9+UweS1l4tTgaffAs777yzOfm1AwSGNaPrALfCQZlNcRQSszhOXWHmVcWHZxmgo8FsCMxxk002CZgcakb4J0/MKoyZ7bLLLvHEj2Zhm71jJsCxYTBv8rHqqqs2897VdyLaDYy6yQuzKI5tqoooJ/XJ4dt04MwawbJfiJkc7YV2Qt6rbIsw4JEjR6rEA6ZL543koUr8+wXnMvmkvdo3TDhm+kgMnKpDwBlddVj2dEwwIUaJxoBkHSDIRpIgSr9BdndF8VqvFOL+++9XZlIkP5ytOX78+CJee8oPTBPRalFCLL7VVlsV9T4o/pjFMXtcY401Yno2U2bGyszVyREYagSc0Q11DQxS+qzpwOxgCBxcjMiEWSazEg6dbjUTHKRsxmRY30zPQYwvcm4QlyE+6zcStZN4XmiRvIuaiBoKLuJ3sPywhs2PGRxrVszgEFlCjc6A1Zf+5wgMIgLO6AYR7KFMik6H9RKYmxGL/6wD0EH1GolSvK6LFckXTDrdfFEkTC/4kZ2cgQOUixJiWDbD9BKx9oflj3RQwsYLDvNmXdnJEegFBJzR9UItDGIeRK1Ad48i7vO1k0EEfiVPCrM77DDGQkOjTVYrOQRevB5GwBldD1eOZ80RcAQcAUegcwSc0XWOocfgCDgCjoAj0MMIOKPr4crxrDkCjoAj4Ah0joAzus4x9BgcAUfAEXAEehgBZ3Q9XDmeNUfAEXAEHIHOEXBG1zmGHoMj4Ag4Ao5ADyPgjK6HK8ez5gg4Ao6AI9A5As7oOsfQY3AEHAFHwBHoYQSc0fVw5XjWHAFHwBFwBDpHwBld5xiu9DFgP4wDiMWgZqmyXnTRRXruoRiqHJTT2DFPI4Zo1bzQ3/3d35XKK57LlBMLBpwRik07M7GCOaKhPDMUO3Ac1M3Rboceemhu+Tkl/7Of/azaR8Pun9MfEShT960w67Qdtop/MN6LUd0ghnr1wO6xY8cGzFH1Mzmj67Hag6HAIDDTccopp/RE7oxpPPjgg6Xyc9RRR6kh2NT4ZqkISnpuZO+saDRFy8kxagcffHA8NxR7fhx7xZmP6Sn+pIthVw46xgZht89+xFAwBoOzdvfS8otF63CE2IsrYmcwDdfqHnttHBqOQeGsLbxWYXvhfdG6L5LXdtthL2BI/4M9S9pSSvRJGCHuWxL7ZB2RjCJrwv07isMD/wkBMRxZE0vdNbG4/SfHIb6TWULtc5/7XOlcHHnkkVqWV155pXTYdgLIKfqanhisbSd4rWg55SBmTUcMltaE6TVNa968eepXLK439VfFy0ceeUTTalZXr776ak1m2LU77rijiiRjHGJFXdMm/n6konVfpGzttsNewFCMRms9irHimgxQa2LsWZ/pk55++ukixe9JPxhJ7Iic0XUE34DAvcjoBmSyoEO/MbqCxaqJDT/9+MU0UMsgvcboWma4TQ+90Em3mfXKg/UroxOxdmRq3Budc8456s61X8lFl+/MxR9//PHw5S9/OSDawU7YmDFjwm677RYOOuggtQxuU3ap6HDvvfcGzJO88MILaqEZkdSxxx6r1sPNH4ZNzzvvPH0vHb7aS3vqqaf0NWKS6dOnqzVm83/ppZdqupwC/9hjj6mzjKLsddh0001Ddk0FUdEVV1wRkKHvt99+YeHChQHx4q9//Wtdg5EZR0CsZiQznbBo0aKwdOlSLdOWW24ZEC/+2Z/9mXmJ17vvvjvICC4+Y8Pu7LPPjs/ZG+IGF6yWYxwUUR2mgX70ox+FTkWX1A3rYeCNFev11ltPxYCIDzfffPOYlVRkBI4yi9I1QuoS7Lbeeuvo126KlpNyUR7oZz/7mZqlwWzOxhtvbFGF2bNna32D22233abuzz77rIo4Ma+zwQYbRL+0lzTv8UXBG5k5BURdtKnVV1897LTTTmHcuHFBOqNc0SXrq7QLI9oM9u3yCOvp4P3AAw8EDKtiNRwMabcy0o9BqFfMKUEPPfSQXrfffnu1d6gP8ofIi/yVIWwlYniX+sV4ayNiTZQ1R9bXsMYBgT3GhH/4wx/qMxhj23CbbbbR5/SvaN0ThvaE3T37vojv8MMPDzfddJO2xxkzZsSoy7TDdjF8/vnnw4033qhp0g6xN9kp3XLLLUFmcNrvXXDBBRodbX3atGkx6vvuuy+MGjUqPvfLjTM6qSk6jJtvvlnrDCvcdKR0bGwymDNnTthhhx30HcwL+TVrLhAdun1QLNbSSDACCmFrDEYJEecbb7yhzIWOA5o6daragtMH+eNjxaYXaZhtr5RJYeNLxArmXa8wERgVHx2y9eeee67u/RlnnBENe1IONmpAxAUzJy/kG2b5oQ99qC4smMAooGXLlum10RodHQA/iLjZqJHaveuE0WHE85BDDtG4MRJLx8VCOXk68cQT6zpr62DAm/d0AIYlEeTlo2g5wfr888/XfIAbbYP8YJbGiDU6NqPAmOmEoUZ+GTQw0GiHiPPoo49WjMnDhhtuWFf3eWt0dITUOeuL1E2zNTo6OdYWIQZxK1asiO08bQN8M2YhnXqCwDw100OdjBgxQt8V/TML5XSwDNbyiAHPhAkTtP2SV0xOwZyvvPJK9c7AgsGAtUMGABiHTalo3TO4xW7jE088ocHBhP4Boh3Q3kQUrM/8lWmH7WJIPZx11lmaJt/ctddeG9Nv9+biiy8ObKQ59dRTw5QpU5D2qV1BG6ATL995r9lELFTeTqei/S66/MEPfqDT8okTJ9ZkdBrhePvtt2syKq8JI4tuYrhU/cpIuCadubojapQPRt1ZszGSEaC6IdsWhlOTD7MmHUZNPsrojp8slRFdygwnxsWanjC6GB3ydH6QzFKjP8JA5EVG+eouH7G6NfqjDPzyiDUZew+WkDD5mjDu6N7JGp2JTbJiQhnR1pWXdOUjjGnKx4lTTTr3mszm1F06FXVr9GflaPTe3KVD1fjuvPNOc2p47YbokvUk8grGYA1ZO8a92Rqd7KTTsKeddlpunqUD1/d8DzKzi36kQ68JU4vP2ZsqRZcySNE8HHfccdlk4jPfJWWVgae6ye5XfcZtyZIl6sb3xdoobpRHBpsxfPYGP/zyyNZkRbpTs7ZMXPQDhMmup7fbDstgKIPtWN5jjjkmL9ul3WgTlGfx4sUaViQ0+kx5SIN3aR9ZOoEhDDDs1+hkVKQVKCKIltVAQ6eyRfxX55cPig+Jd8YAU0YnYp3oHwaKP3720cSXctMuozMmk8Zl97agTAeZkhjKbJoX82v5tef0autVIrZLnWsvv/xyobjrAuU8wIRJ3z6+HC/RyToYOoyUjDE1YwD4b1bOvPiGitFZPuncU5IZp5ahWTlbMTpjmHTiZahMJ10k3smTJ2tZbDAoYsaaiEFrtnZk7c421bDBBlzyym6Drux3m+bDME3d7N7Cy9KGOekVxk+4RoyubDssgyEMh/6IH31YFWTpy9JJ7fXXX9c+jXZAHRgTbDbYqSIP3Ypj2DM6GimNlY65GTGitY+ByqdRpD97ZyOelNGlI2PSEJGbxkWnk6V2GB2dQjNi1Ev+GJlmyWY7zRillS0blmcRe2rcIhYc8NqYfx5DH+C5gYPNookLhs2godHI3Bgd/lJidkcZ6LCaUbNypuGMcQ4Fo6Ps5BM8skRHzLu8zt78tmJ0DMSMyTDIgMEgBUAC0Iysk6xq16UxbZNS2CBTxO+aDXtvEhdmf4ZL+l1yb+1QRMsNi9Cs7tmByHskIymJuFbdGzG6su2wagzTvBa5t81jolpQu/DCC7Vs1i+IOFOfmw0WiqQxVH6GNaOT9TCtPBrx8uXLm9ZBKhpBFNnol4pNiDePCdnoyMSIacLtMLpUZJrGZfcmdrC8mTtXY4LNtr836wRMtJj3AZhopxNGR73MnTs31pPlhdmprL+kRYmiy6x6wTPPPKPhVwZGJxuJtCzZzhUgZIOUvuuE0REPgwljdoY3nXAqmcBfSlV30jA00uaaSgds9mKMz2Z8xsz4Fhp9m3mDMSuDldOe06vFnWXiJrbP1oUNuMq2w6oxTMtQ5B7cwMEGEZdddlkMZn0Is71+pGHN6Kgwa8StOmM61WYfQ7bybUY3GIyu0XqL5ckaMHpWWTLRYLMG3KzcfAy8z37UpGOdZStss3nKe2atDfGl7GSN9cBsMqV2OxiLo1k5zQ/XoZzRWeea165sTaVTRkcZGQQyW0Kkb1IP8EGklUdVd9I280RcaWLK66+/Xuue5QHyctJJJ8Ws2KyLtdt2qFnd24AtKyqWjU6aj5WF0Zn4FyxoXyxtGNm3nJ3V2vtevw57RmdixGYzGqtEY4oslreidhmdrZuRVitxkW1GacXojBndeuutddlOxVTNRLfNOgE2ePA+y3RkK7u6864KRpdm3ESRfHwpRr3I6Gx9NLu+k5anzH0qhciKcK+66irFvApGl+YJjO07QZScRyb2yjKDPL9F3GwtGyYip63oLM1EhbYZh/o2MslEu2tIzdo46fM+G7dtdKmK0ZXBkG8fxsQv+10bJmWvNqCgrLKrMwZPpVmtDkiIgXrsZtgzOlvXYNSWHa1SwaKrFqvMdikytedDTIkGYOtzuLfL6AhrHx074JpRUUYn+lAaJx9kOkpD3EhaiIFs915eepafvHeWBxgzzM2IXZIWrhNGxxpNFmt2kxI3aabUi4xOdBs1r4h4qyLbQCV6VDFKmJ4NxDphdMwYbUNVjFxumD2BeSOGbRs2bA0tDdvuvYnEvP18AAAYOklEQVT4SdfiNZElbqkUwsS2fMeI/1OCUeNXVHBS57p74uOXR7ZTmlmjrbfzvZs4rypGVwbDbuy6TKVWiPuNLrnkEsUGptqvNOz16NBbQ5kYHTR0kiZNmqRXlKrRKUn16FCkRbcH3Rx0SXbZZRdVppXZUBCxmurJoasFmR4dccoouE7Vg/MIOUtOOuZcnRQUj9ElgjigFz0p9JPkI6+Lx/TomulEEUAap55viO4Punl77rlnEKauCua8l9Fw2HvvvblVEgYf9ahwQNcHMn027jn3Dv0dyMpDHvfZZx/VYUOB3ChPf83etbqi7CvMWXWmUFpGL05G0loHnKu4//77xyi+KDpb8+fPV53EfffdN7qLCE4V9MESXSGjsuW0cAsWLFDdQxH7qj6kueddaUci1tNX4LPddtupXpl0jmGjjTbKC9LSzcqDR8o/evRo1WczncGsHt3DDz8cZFOBxku9067f//73azuwxMAZnUDaMTpnO++8s+r5oQP35JNPqmI4YWT2MOA8T+K45557AoceQCjmb7HFFqoojh7cqquuqu5l/2h36LpBYM7BBuh8cg/JDKvuMAdrh3xz1D/nxaJPSfm5yoxFsSJsmbqXgZbqLfL9gAF6qxygTZxQIz06YVyaD/Ukf1Zv2XZo78tg2A09OvIhs2XVCUS/Fr3D1157LeoNy+A16glbnvvlOuwZHRWFsvV1112nCqdpxdGRy5qQngph7jJyVmVgY0TmzscFI0KBG2rG6GbNmqUnSTRqOKTBxwyzgKlCKKmKGEzv7Y8P73A5naEVo8M/p2Jwar0pu1scKC7D3FMyhd3ULXufhkNpFiXjNG4ZWQfZ/KIDiE4Y3ec///nACRZZ4uQVOtGscnIeo2MQw0kkKPDbiQ/EV7aclgdOoEEh3BRrzb3RlY6Wk1JSxVvZYNP01I9GcZk7cTIgAnuI9sepJShMZxldIwwtLq6y7qjtnM5YRvBBxITpa+3gYCS0wzxiwCizvSA7UeuU9BmUcKpOO8QpJxwKwADBTpr5/ve/r7hzMAPfT0p8czBH2kBKdNoMSqkvsy5Rtu5lU1SQJQBt42AOs+Nw7JkzZ+rg0QaDpNtowNWoHVpey2AoG4MC/QhUlcI4cTEopg3ZYAI3mLvswmz7gAPiGGpyRpfUAA2NI4VgCoyS119//eRt/S0fFUdwcdIE/jjeidMZep34SJmBcowPI9F2R9t55RSRkWLCrJHOpSpiRC3iNGX666yzjs5w11xzzaqi79t4RCSndQmzhxlU2f74BkSMqUeu0bb7pX1TmeAi4nKdjTCro6MuezpLo0YBI6A9Ep8NNGGiDA5WJqJ/Y9bL0Wrg1+/kjK7fa7BP8s+xXbJOUji3nN3IYGNlJiQJiN+KEuJAjp3rN1oZ6p5BbTowZFCMmA9xqOjwRfF0v9XNcMmvM7rhUtNDXE7ZLKBrgUWzgZjVbIQVDdNv/jh78oADDiicbcTBiPL6jVaGuuesUJjd+PHjVRTLwdMsKyAyRuxrItF+q5vhkl9ndMOlpoe4nIjBbENEkaywFrQyiEyalRXxkJxW08xL3TvEk/14oO7KUPdYrmBTma2ZUzFsKmFD0sreTusaYZ8+OKPr04rzbDsCjsDgI8CaPCJn1q6qXBMd/JIMrxSd0Q2v+vbSOgKOgCMw7BBwRjfsqtwL7Ag4Ao7A8ELAGd3wqm8vrSPgCDgCww4BZ3TDrsq9wI6AI+AIDC8EnNENr/r20joCjoAjMOwQcEY37KrcC+wIOAKOwPBCwBnd8KpvL60j4Ag4AsMOAWd0w67KvcCOgCPgCAwvBJzRDa/69tI6Ao6AIzDsEBjWjI4jmMSgZFh33XWDGBVsWfmYzcEUiVgCVntdLQP0qAdsWWFOBVtmEyZM6NFcNs/WRRddpKZkqDdOqM8jzKVg6uWUU05RUyp5foabG9Y5OEcU0y7YYeyEONiYszc55xFTQP1InHLy/PPP69FeHJqNzTs/8aQfa7JFnju1GCsGCGtyOnmn0QxJeKwEY1UYq8VFSM67U/9y4nwR7z3rR05c13KIEc2ezWOrjMlgQ8vQzHq5WWwWG2utoiv8njYjhmprYpuscJhe8vjjH/9YccN6d6f0P//zPxrX5MmTS0WFVfpPf/rTDa2Vl4qsA8+PPPKI5t+si3MVxl0T23MdxOpBexGBYT2jYzS3xx576KGsZhm82bjg2muvVWOPWGDG+m6/EgZAFy1apFbCd9hhh74sBgZusbDezKgrFpsZrWMZHRMrVRBW5rGinrUqXUXcgxEHFqOxbL/pppsGrJx3QkhEMGbLCf4ceFyUMBqLdXgMFQvDLRqsUn/CbNVqOJFixHeTTTZRA7+0qe233z788z//c6XpeWRDjECn3NdndJ0i6OHbQaDIjK6deFuFEeOyOgsQJtHK60r/vt0ZnVjHVgxF3DlkGInIW/MgNuViHsTQaJzhiVHV6O43/Y+Az+jemdHNnj073Hzzzbqmw+iOtStGeqm83mZ0Z511ltqmeuCBB8Jvf/vbMG7cuHDssceGjTfeeMCwBdM0t912W2AECbEOwEh6u+22q/PLGgfmTKZNmxa23nrr+E6amJq2xxYWtst23nnn+K7Mzeuvv66GItMwzEwazeh++ctfhuuuuy7IQEbLiNVwRu+MwlNMsLYMdlj+BpeUbrjhhiCisnDCCSd0NKNibfTee+9Vi84YHqVeMJuSN6NjTe7uu+9Os6FrURtuuGGdmz387Gc/CzfddFNYsmRJeOONN7Qc1JGI4wKWo40uvfTSgP046dyjAVkRddlrnSGVXfNiRnTuueeGd7/73QOwixHLjYhew4033qh1NWXKFH1FuwATbL3RtrC4jmkj2mFeWZmhYDXcaOzYsQH7dnlEO7z66qvD97//fY0XI7h8D8yeme3su+++Giyd0V1zzTUq7UBaAGFLcPr06WHkyJH6DLZmhRtr8VjnxrwNWBuRxp577mmP8fq1r30tsK4M7brrrh1LU9566624Nk0b/eAHP6hxX3zxxYG0oMMOO0wNquqD//U9As7ohNEZrbXWWtph0bFABx54YDj99NPtdTBGZw7YBuMDhikQls4XhmD0rW99S5kAz9gSW2211XQDBc+IbtgMYvT444+rbSvEQDBcOj8IC8Z0UmweuOqqq8KIESMsSKkreTSjneT5zTffDJ/61KfCxz/+8QHxyMhWOyn8kB/EdIbJxIkTw3nnnRfDpJ1dVnwFdo8++qiKytq1o4aYjR8EBnSSqU2wrOgS+25XXnml+l+2bJleqZctt9xS79M/mBadvdUf8YMNnTADCpibkaz3hf/8z/8MbMDgCqV1TVhZdzLvha8HH3xwIJ90sGyKyiM6Y9qetRnyIOuE4bvf/a56h/lb/dAOv/CFL8TO2+LDcCiMGjMz4LfjjjvmbiCBySEWNqOiMM3nnntO2zftIf0mrO5JgzYCdgx4wBOaOnWqtmnuYbJs/CLvxGOYp7bcYOLGyAljRH1i3BSqggFh8ZzBElh94xvf0IHbk08+qfmzNLE1B+NzWkkQ6HRSujKILlmElo+wxkYD6MUXX6xJh65iDMQZRrYZBf8sZEMrVqyoyUhV/crMxrzWZP2vxiI9foUBRPdvf/vb6kb8MhuM7tzMnz9f30mHpvGyaE94/EpnWOe3k4dWm1HYKEC6srOxJjM2TQocDBOZpcbkm4mv2PBAPJSjHZJOV8MTh6UpnWvNNpng3slmFJn5afynnnqq4m15JE7Ea3lUtejS2s5jjz2Wl5y6nXHGGZpP2iVEe6LswqRrwvjVjXzJLEzdZQatbnl/rTajIMojbtogdQsJo1M33D/3uc/FaK3ucSePMlNSHIV5RP8WRwwkN2VFl1dccUWMT2aOaVRt3T/zzDMaH/hBfKuIomnfbDSjPMcdd1xbcXug3kQgdJqtlYXRWUdqeMgsShs8zMfIGB0dY0qywB8/RGOW9jF/4hOfSL3qPR0RH5NsCKl7B1Nh1xfvrr/+eu3IuBcRaZ2/Th+aMTrryElXZgB1ScnMSvOW19nl7bzrlNFZPtMBBBl6+eWXI96dMDoRB2o81HVRMnyqWqMT8aPmQWZtmgXaEgMMUf/QZwZSNsCwQQe7hPPaD0zF/BoDzJarGaMjLeLlx8AmJZndqHte3eM/HRiQT4snr37s2yi6RidqIrozmnKLtCPNVlv3IgbV/BkzswEmDFpmxvqOtJxWHgSc0b3zYVsnYlVrM6/zzz/fnGrG6KxTii/kho6Pj1vEWupsnXS62G3+7cOio80SsxjrrIhv7ty5WS8dP1ve8tQLmDWQbh6DFvGqvjv55JNjHmxU3w1GZyN5EU/G9OzGMMrrSM2PzfzovPIoZZgwFwYerVRlqmZ0lgdmUJDNKCifiPkiU2fGBInYT+uAOmJGIqK8uh/u/L73ve+p/+xfM0YnokcNS9pZkh2s+q4Ro5PdqHVBbMBGelkqy+iy4Tt9tvSPOeYYZejgZeoWNturaiDTaV49fDUIOKOTRp73YdNR8AEg0jQyRidK4+YUr4wO8S+bIdQNEQvPeUzRGE0jXSwTQREexlc1Wfp5jC6v3Ja+MUET+eDeTUYnahyKYXbmS7rkAXw6YXTEs3DhwrqBBXHKphoVX/M+S1UzOpux0Qa5Z2BFHvgh8qXs3MuGGc0KMy17D/Nr9JPNNdms63MzRrd06VKNO6+Tt4FfHqMrO8gxRlN0RpdbkA4cn332WS0nszaTrtjSgKwp6zvZWNRBCh601xBwRvdOp0Ink5JsatAGT2drZIxOdlGaU7wyA6IDsm3J+OFZNgZEP3ZDp8U72dVoTvFqzMQ6M1uvix4quGnG6Ex0w/b9LCHeJV9pJ9CM0ZkKQLtrdAwESE92XWazEtc/O2V0RIy4mTUyZt8wHNJkppRHVTM60rCZJ7M70qddcKWdMKMnPzaAkk0i+oxbO9SM0SGqJl7SzhJ1wLuVgdHJ6TARQ8q0YMGCWFwrJ4cCOK08CDijk4ZOY8+KrIwZyU7HWNvG6FivSInFbOLgR0cI2QjYRCKpf9ac8JtuUuE9m1NMBIoIC4aCv7yZVxpf2ftmjM42gNDZsbkgJWay5CcV56brOrKzLnrnHr/82mV0rMcQHhFmSmncVTC6bNyUnXRhPFmijniHn+zgKOu36DMdLXEaU2PGQRthtoF4jXe29kuclj+bhRRNB3/NGF1al9m4bdBRBaOzE0mya6+NyiG7l2vovfFjNtgpsaHJMATfdNnCvs28ZYVO0/XwQ4eAMzrpROhI0s6UdRBjOOluOGN0+Jft0bHWjAHY4jYveI8/frZbDnfRh4vutp6HO2QfGTvxIDob+yCzm2XUQ5t/zRgdnZ3NTr/0pS/FFOhomeVQHjZQpGRYyXb36GwiN/y3y+gIR3gwSJko4mDc+XXC6BADZne+8myY8z6PLG2bvef5KeNms2grK2tz6c7FtF0Rr22UYsCRdtK8o54arc/xvhmj470pUrNmaYycNmuYVMHo0nrN5p88ZMnWasGnil2XxD9v3jxtP+mO25/+9KexXTHrc1p5EFiFonSiKSGLt3qoblVHLHWSl7Jh7QgwCycfs+ofyWxMlZHRjRLmFhWkUz069H/Qg0N3SNZ5NAqUvtFPMpIPNMhoXfV10ClCjw5lZnSUJk2aFM4++2zzGjiuCr0t9O1kl1lYY4019B0KwehMZfXrYsCCNxzijB4VhF7UE088EbbZZpuADhaEThE6ShD6WSJO03v0ptClMkyoZ5lhhtVXX13f84dyMbp/EOVCeVmYqT7zhx5cu3p0posHLii4C/MPKJAbpXp01KcwQQZv+po845/j2jbYYAN1Q0EZxWQI/UTySbybbbaZKsZzCIB0eIG2kOoLaoB3/mRAEtCRhNC3Ah/yJ2s+7/god0n10axd0Eb2228/jYgjzFJldI4h42AB/IAriu0oZssMNCxevFh12cDFiCO3ZKCkjxwcgM4e7TdVzkafEt1NDiZAjw5dN+Lm8ASZRekzEeTp0eUdAWb1llf3Iu6O+ouERSEd/Tt0F7MHKZBm1Xp0xJmWc9ttt1X92fvvvz/328S/U38j4IzunZNROHUERmZE45cRc1Tcxt0YHadPiGgxKg7zjhMu0o4DN5Rj+dDpfFNCWZWOy5S/6VjpzCBRKwibb7556l0Ve2GQdGh2ukSdhwIPppjcyGu2s6LDJC06PCNOxYDprrfeeuakV5ltKdPmdBEjlNM5JYNOkvLb6RP2vuiV9C+44IKoHE042YiiJ5nAsFNGhxJynsJxmhZMzRS7UXBnIAPDSElmDkE2eYT1118/dY73DG4YwMBwLSynkqCo3S7NmDFD8brwwgvD+PHjNRpOFpHZng6AsifikIfLL788MlxLl3qE4cKsjBiAZU+LsXd2RSF7zJgx+kh7nDNnjuaHARCDN9Inb7QjFL8hY9DZtsO7WbNmNa17kXIo9tShYUie03wTD9QNRke8HAzAgI7BkBGMHGsXDEqdVh4EhjWjy1YjMwIRV+kInY+3FXHCAmE4IaPZh0GHwFFTECP/d73rXa2i7on3zIww60KnysgecyyNyPyK6E9nR+mMr1GYMu6y9qmjcLCm862KyLesS+pslzocPXp03eCmqnS6FQ9ti9mJiCyVMTNzTY9o6yRdESuGVVddVX8MKGSdLsycObPjw6A7yVM3wnLQNdIODrrul2+zGziszHE6o+uz2kUEJdvAC+WaDo9zCatmOoUSz3hiUCDrnRnXxo+Is2A6/Ub9Wj+GM4yfQRkDGyMxWxOYcXK2KMfQffjDH7ZXfnUE+gIBZ3R9UU1/yqStK/3JpfkdB//auZnNfXb3ra01Fk0F46AcDNxv1K/1Yzizfrb77rvr+txHPvIRPaPyvvvu09fZ8z8tjF8dgV5HwBldr9dQJn+Mqu1Q4cyr3Ec2S9haYK6HQXJEPGgbIookyZpXeuBvkTC94Kdf68ewY12Z9TUO4zZCVMy6n+hFxk1S9s6vjkA/IOCMrh9qyfPoCAwyAogwWW+FRo0aNcipe3KOQLUIOKOrFk+PzRFwBBwBR6DHEHBG12MV4tlxBBwBR8ARqBYBZ3TV4umxOQKOgCPgCPQYAs7oeqxCPDuOgCPgCDgC1SLQMaOrNjsemyPgCDgCjoAjUC0CzuiqxdNjcwQcAUfAEegxBJzR9ViFeHYcAUfAEXAEqkXAGV21eHpsjoAj4Ag4Aj2GQCWMbvmbtbDVxP8bRm+wSvjzjVYNB+41IhxyYH8cXNxj9eHZcQQcAUfAEagYgUoY3Vv/E8L/d+nvwv//yxVh0Xff1iwumLd2mLDzn2yWVZxvj84RcAQcAUfAESiEQCWMLk3pyhveCrMv/3046ciR4dyT/mg8NH3v946AI+AIOAKOwGAiUDmjY0b38ZOWh4MnvytcdcGag1kWT8sRcAQcAUfAERiAQOWM7jvffztMmb48/P0+I8I1F1dnIHNAzt3BEXAEHAFHwBEogEDXGN1BsiHl2s86oytQB+7FEXAEHAFHoIsIVM7oHn3qD2HyUb8NW22xWnjgjnW6mHWP2hFwBBwBR8ARaI1A5Yxu2Ssrwof3/r+a8hNfHRU2+bNVW+fCfTgCjoAj4Ag4Al1CoHJGRz7nfvGtcMG//D6ss9Yq4YA9R4T13rtKmHH4yPDed6/SpWJ4tI6AI+AIOAKOQD4CXWF0v3i1FuYveCv88/y3YqoPLhwVxn7QZ3cREL9xBBwBR8ARGBQEKmd0vxfeNm7Sb8Jrr9d05+WJh40Mfz12tUEpjCfiCDgCjoAj4AhkEaic0S157g9hwrTfajr/+ci7w5quM57F3J8dAUfAEXAEBhGByhmd6dHt9X9WD7fMXXsQi+JJOQKOgCPgCDgCAxHoGqNzhfGBYLuLI+AIOAKOwOAjUDmj++Z33g7TZvrJKINflZ6iI+AIOAKOQB4ClTO6S676fZhz7VthphzqfI4f6pyHubs5Ao6AI+AIDCIClTC63/0+hMNPWx7+6xcrwgtLV2j2vzJ/7bDTR9xMzyDWpSflCDgCjoAjkINAJYwOe3Qc+7XO2quEMRuuGqZOGhF23cGZXA7e7uQIOAKOgCMwyAhUwugGOc+enCPgCDgCjoAjUBgBZ3SFoXKPjoAj4Ag4Av2IgDO6fqw1z7Mj4Ag4Ao5AYQSc0RWGyj06Ao6AI+AI9CMCzuj6sdY8z46AI+AIOAKFEXBGVxgq9+gIOAKOgCPQjwg4o+vHWvM8OwKOgCPgCBRGwBldYajcoyPgCDgCjkA/IuCMrh9rzfPsCDgCjoAjUBiB/wewNnD1EhTGgAAAAABJRU5ErkJggg==;imageBorder=default;" vertex="1" parent="1">
          <mxGeometry x="257" y="100" width="219.1" height="460" as="geometry" />
        </mxCell>
        <mxCell id="5scTNiIZI9GJ8U_l5Csz-24" value="" style="shape=flexArrow;endArrow=classic;html=1;rounded=0;fillStyle=solid;labelBackgroundColor=none;fontColor=default;" edge="1" parent="1">
          <mxGeometry width="50" height="50" relative="1" as="geometry">
            <mxPoint x="214" y="282" as="sourcePoint" />
            <mxPoint x="264" y="282" as="targetPoint" />
          </mxGeometry>
        </mxCell>
        <mxCell id="5scTNiIZI9GJ8U_l5Csz-175" value="" style="shape=flexArrow;endArrow=classic;html=1;rounded=0;fillStyle=solid;labelBackgroundColor=none;fontColor=default;" edge="1" parent="1">
          <mxGeometry width="50" height="50" relative="1" as="geometry">
            <mxPoint x="461" y="285" as="sourcePoint" />
            <mxPoint x="511" y="285" as="targetPoint" />
          </mxGeometry>
        </mxCell>
      </root>
    </mxGraphModel>
  </diagram>
</mxfile>
